<svg version="1.1" xmlns="http://www.w3.org/2000/svg" xmlns:xlink="http://www.w3.org/1999/xlink" width="450" height="337" viewBox="0, 0, 450, 337">
  <g id="internet">
    <path d="M135.681,274.115 C135.681,244.999 167.149,220 201.681,220" fill-opacity="0" stroke="#FFFFFF" stroke-width="3" id="pipe-notebook"/>
    <path d="M328.155,274.115 C328.155,244.999 296.687,220 262.155,220" fill-opacity="0" stroke="#FFFFFF" stroke-width="3" id="pipe-tablet"/>
    <path d="M29.681,203 C26.681,178.391 124.681,137 201.681,193" fill-opacity="0" stroke="#FFFFFF" stroke-width="3" id="pipe-desktop"/>
    <path d="M434.155,203 C437.155,178.391 339.155,137 262.155,193" fill-opacity="0" stroke="#FFFFFF" stroke-width="3" id="pipe-phone"/>
    <path d="M232.681,137 L232.681,173.051" fill-opacity="0" stroke="#FFFFFF" stroke-width="4" id="pipe-cloud"/>
    <path d="M256.232,226.938 C253.673,225.636 250.986,224.535 248.205,223.659 C249.536,219.455 250.359,215.038 250.604,210.466 L262.677,210.466 C262.194,216.652 259.857,222.324 256.232,226.938 z M241.732,237.099 C243.57,234.341 245.164,231.41 246.474,228.326 C248.62,228.987 250.686,229.791 252.689,230.736 C249.554,233.561 245.838,235.751 241.732,237.099 z M234.442,238.529 C234.39,238.536 234.348,238.54 234.291,238.551 L234.422,226.219 C236.871,226.333 239.264,226.618 241.601,227.088 C239.752,231.237 237.333,235.09 234.442,238.529 z M234.594,210.466 L245.629,210.466 C245.381,214.591 244.62,218.59 243.39,222.384 C240.496,221.758 237.525,221.364 234.473,221.235 L234.594,210.466 z M234.765,194.252 C237.75,194.11 240.674,193.707 243.507,193.095 C244.753,197.057 245.499,201.243 245.674,205.584 L234.641,205.584 L234.765,194.252 z M234.94,177.551 C235.049,177.559 235.157,177.571 235.262,177.582 C237.873,180.865 240.058,184.49 241.752,188.393 C239.496,188.847 237.182,189.151 234.809,189.277 L234.94,177.551 z M252.276,184.958 C250.447,185.796 248.558,186.517 246.62,187.129 C245.469,184.373 244.104,181.728 242.528,179.227 C246.139,180.526 249.427,182.486 252.276,184.958 z M262.677,205.584 L250.656,205.584 C250.471,200.802 249.669,196.188 248.312,191.818 C250.942,190.98 253.485,189.944 255.924,188.719 C259.726,193.399 262.182,199.223 262.677,205.584 z M229.943,189.29 C227.398,189.171 224.908,188.847 222.486,188.346 C224.362,184.431 226.739,180.797 229.559,177.555 C229.726,177.54 229.894,177.52 230.065,177.504 L229.943,189.29 z M229.768,205.584 L217.906,205.584 C218.225,201.216 219.125,197.002 220.54,193.018 C223.571,193.691 226.688,194.13 229.887,194.264 L229.768,205.584 z M229.597,221.253 C226.209,221.413 222.908,221.905 219.711,222.677 C218.576,218.79 217.915,214.701 217.797,210.466 L229.717,210.466 L229.597,221.253 z M229.415,238.503 C228.805,238.447 228.2,238.363 227.591,238.276 C225.078,234.955 222.963,231.31 221.363,227.394 C224.016,226.782 226.748,226.381 229.548,226.226 L229.415,238.503 z M211.671,230.736 C213.257,229.991 214.879,229.343 216.549,228.767 C217.576,231.346 218.808,233.818 220.199,236.177 C217.05,234.842 214.17,232.993 211.671,230.736 z M201.685,210.466 L212.813,210.466 C212.937,215.185 213.676,219.743 214.937,224.069 C212.596,224.874 210.316,225.822 208.131,226.938 C204.505,222.324 202.168,216.652 201.685,210.466 z M208.437,188.719 C210.773,189.898 213.208,190.885 215.729,191.705 C214.197,196.099 213.245,200.764 212.928,205.584 L201.685,205.584 C202.179,199.223 204.638,193.399 208.437,188.719 z M222.067,179.147 C220.362,181.648 218.85,184.293 217.576,187.071 C215.702,186.472 213.859,185.774 212.086,184.958 C214.984,182.43 218.367,180.451 222.067,179.147 z M260.227,186.319 C259.189,184.982 258.063,183.721 256.859,182.546 C251.779,177.635 245.254,174.229 237.956,173.034 C236.825,172.85 235.663,172.713 234.488,172.631 C233.727,172.582 232.96,172.551 232.18,172.551 C230.442,172.551 228.728,172.682 227.05,172.924 C219.498,174.016 212.731,177.491 207.505,182.546 C206.297,183.721 205.168,184.982 204.131,186.319 C199.483,192.317 196.706,199.848 196.706,208.023 C196.706,216.034 199.366,223.43 203.843,229.368 C204.856,230.711 205.96,231.982 207.153,233.163 C211.895,237.886 217.977,241.272 224.772,242.72 C227.158,243.225 229.641,243.5 232.18,243.5 C232.193,243.5 232.196,243.5 232.204,243.5 C233.827,243.5 235.426,243.378 237.005,243.165 C244.84,242.097 251.875,238.48 257.207,233.163 C258.402,231.982 259.506,230.711 260.517,229.368 C265.001,223.43 267.655,216.034 267.655,208.023 C267.655,199.848 264.879,192.317 260.227,186.319" fill="#FFFFFF" id="dns"/>
  </g>
  <g id="devices">
    <g id="desktop">
      <path d="M23.655,242.784 L39.064,242.784 C37.544,238.43 37.844,230.548 37.844,230.548 L24.872,230.548 C24.872,230.548 25.172,238.43 23.655,242.784" fill="#344F61"/>
      <path d="M62.561,186.064 C62.561,184.139 60.803,182.891 58.994,182.891 C53.695,182.891 5.459,182.936 3.693,182.972 C1.396,183.022 0.193,185.281 0.156,186.147 C0.126,186.867 0.345,217.042 0.193,227.186 C0.156,229.676 1.928,230.826 3.693,230.956 C4.58,231.023 52.738,231.051 58.573,231.008 C60.969,230.988 62.561,229.444 62.561,227.11 C62.564,216.749 62.561,187.974 62.561,186.064" fill="#344F61"/>
      <path d="M4.938,187.709 L57.779,187.709 L57.779,221.898 L4.938,221.898 z" fill="#FFFFFE"/>
      <path d="M41.697,242.714 C41.304,242.712 21.415,242.712 21.018,242.714 C20.024,242.69 19.237,243.362 19.237,244.46 C19.295,245.855 19.439,246.427 20.837,246.485 C21.015,246.505 41.704,246.505 41.879,246.485 C43.279,246.427 43.422,245.855 43.479,244.46 C43.479,243.362 42.694,242.69 41.697,242.714" fill="#344F61"/>
      <path d="M8.108,190.5 L54.608,190.5 L54.608,205.5 L8.108,205.5 z" fill="#00ADC4" id="ui-blue"/>
      <path d="M9.441,208.5 L19.441,208.5 L19.441,218.5 L9.441,218.5 z" fill="#E4695D" id="ui-ruby"/>
      <path d="M26.358,208.5 L36.358,208.5 L36.358,218.5 L26.358,218.5 z" fill="#FFD600" id="ui-amber"/>
      <path d="M43,208.5 L53,208.5 L53,218.5 L43,218.5 z" fill="#5CC39C" id="ui-green"/>
    </g>
    <g id="notebook">
      <path d="M114.474,314.03 L163.956,313.695 L168.854,328.049 L169.361,333.625 L108.223,334.129 L107.55,329.231 L114.474,314.03" fill="#354B5A"/>
      <path d="M167.809,332.694 C167.536,332.72 167.331,332.714 167.331,332.714 C167.331,332.714 111.255,332.785 109.181,332.714 C109.17,332.714 109.165,332.71 109.158,332.71 L108.823,330.722 C117.058,330.742 161.563,330.721 168.138,330.716 L167.809,332.694 z M114.313,315.335 L162.708,315.335 L165.866,323.683 L111.038,323.626 L114.313,315.335 z M170.722,328.774 C169.811,326.587 165.628,316.003 164.978,314.317 C164.398,312.817 162.343,312.96 162.343,312.96 L114.321,312.96 C114.321,312.96 112.565,312.66 111.833,314.327 C111.101,315.99 106.107,328.726 106.107,328.726 C106.107,328.726 105.943,329.319 106.067,329.901 L106.612,333.147 C106.747,333.787 106.582,334.797 108.132,334.819 C110.28,334.852 168.366,334.819 168.366,334.819 C168.366,334.819 169.951,335.017 170.234,333.284 L170.782,330.081 C170.891,329.651 170.976,329.377 170.722,328.774" fill="#DFDED8"/>
      <path d="M112.92,276.876 L162.571,276.876 L162.571,308.627 L112.92,308.627 z" fill="#FFFFFE"/>
      <path d="M115.559,279.835 C115.576,278.226 117.139,278.271 117.139,278.271 L159.7,278.271 C159.7,278.271 161.335,278.091 161.35,279.745 C161.361,281.4 161.335,303.356 161.35,305.189 C161.361,307.02 159.353,306.889 159.353,306.889 L117.094,306.889 C117.094,306.889 115.546,306.934 115.559,305.099 C115.576,303.264 115.546,281.445 115.559,279.835 z M111.238,309.232 C111.263,311.732 111.595,313.057 115.046,313.085 C115.808,313.088 161.1,313.088 161.861,313.085 C165.311,313.057 165.646,311.732 165.674,309.232 C165.683,308.304 165.678,300.994 165.664,293.353 C165.678,285.712 165.683,278.401 165.674,277.476 C165.646,274.976 165.311,273.641 161.861,273.616 C161.1,273.616 158.848,273.616 155.837,273.616 C155.83,273.616 155.823,273.616 155.82,273.616 C155.178,273.616 153.5,273.616 151.212,273.616 C150.255,273.616 148.174,273.616 145.476,273.616 C145.471,273.616 145.464,273.616 145.457,273.616 C144.613,273.612 141.951,273.616 138.455,273.622 C134.955,273.616 132.295,273.612 131.45,273.616 C131.443,273.616 131.44,273.616 131.432,273.616 C128.737,273.616 126.652,273.616 125.695,273.616 C123.407,273.616 121.727,273.616 121.089,273.616 C121.082,273.616 121.077,273.616 121.069,273.616 C118.059,273.616 115.811,273.616 115.046,273.616 C111.595,273.641 111.263,274.976 111.238,277.476 C111.226,278.401 111.235,285.712 111.243,293.353 C111.235,300.994 111.226,308.304 111.238,309.232" fill="#344F61"/>
      <path d="M118.142,280.95 L159.197,280.95 L159.197,294.194 L118.142,294.194 z" fill="#00ADC4" id="ui-blue"/>
      <path d="M119.32,296.842 L128.149,296.842 L128.149,305.671 L119.32,305.671 z" fill="#E4695D" id="ui-ruby"/>
      <path d="M134.255,296.842 L143.084,296.842 L143.084,305.671 L134.255,305.671 z" fill="#FFD600" id="ui-amber"/>
      <path d="M148.948,296.842 L157.777,296.842 L157.777,305.671 L148.948,305.671 z" fill="#5CC39C" id="ui-green"/>
    </g>
    <g id="tablet">
      <path d="M320.645,328.457 L330.696,328.457 L330.696,335.668 L320.645,335.668 z" fill="#DFDED8"/>
      <path d="M327.932,333.653 C327.919,334.228 327.449,334.253 327.449,334.253 L323.964,334.253 C323.964,334.253 323.423,334.291 323.413,333.69 C323.399,333.088 323.399,330.663 323.413,330.208 C323.423,329.747 323.918,329.747 323.918,329.747 L327.413,329.735 C327.413,329.735 327.932,329.723 327.932,330.125 C327.932,330.525 327.943,333.078 327.932,333.653 z M350.881,276.792 C350.858,272.722 349.158,272.322 345.971,272.29 C344.786,272.277 335.469,272.27 325.726,272.259 C315.982,272.237 306.661,272.209 305.479,272.222 C302.294,272.24 300.598,272.637 300.556,276.705 C300.548,277.603 300.451,331.03 300.461,331.925 C300.484,335.991 302.179,336.393 305.372,336.428 C306.549,336.44 315.872,336.449 325.611,336.453 C335.355,336.481 344.676,336.508 345.856,336.498 C349.044,336.474 350.744,336.08 350.784,332.013 C350.789,331.117 350.884,277.693 350.881,276.792" fill="#344F61"/>
      <path d="M306.661,276.788 L344.29,276.788 L344.29,326.733 L306.661,326.733 z" fill="#FFFFFE"/>
      <path d="M309.601,279.356 L341.74,279.356 L341.74,292.599 L309.601,292.599 z" fill="#00ADC4" id="ui-blue"/>
      <path d="M312.232,294.581 L339.109,294.581 L339.109,303.41 L312.232,303.41 z" fill="#E4695D" id="ui-ruby"/>
      <path d="M312.232,305.41 L339.109,305.41 L339.109,314.239 L312.232,314.239 z" fill="#FFD600" id="ui-amber"/>
      <path d="M312.232,316.239 L339.109,316.239 L339.109,325.068 L312.232,325.068 z" fill="#5CC39C" id="ui-green"/>
    </g>
    <g id="phone">
      <path d="M430.485,247.595 L438.17,247.595 L438.17,253.36 L430.485,253.36 z" fill="#DFDED8"/>
      <path d="M426.789,202.367 L441.128,202.367 L441.128,208.131 L426.789,208.131 z" fill="#DFDED8"/>
      <path d="M420.335,207.935 L447.925,207.935 L447.925,246.168 L420.335,246.168 z" fill="#FFFFFE"/>
      <path d="M446.605,244.202 C446.605,244.591 446.458,244.805 446.057,244.805 C445.691,244.805 425.855,244.805 422.362,244.805 C422.029,244.805 421.842,244.591 421.842,244.202 C421.841,239.558 421.816,209.62 421.842,209.294 C421.877,208.945 422.053,208.803 422.382,208.828 C422.687,208.851 442.929,208.814 446.127,208.808 C446.404,208.808 446.643,209.044 446.627,209.415 C446.607,209.753 446.605,239.568 446.605,244.202 z M436.405,252.052 C436.393,252.606 435.94,252.632 435.94,252.632 L432.588,252.632 C432.588,252.632 432.067,252.664 432.056,252.085 C432.044,251.511 432.044,249.178 432.056,248.736 C432.067,248.293 432.542,248.293 432.542,248.293 L435.907,248.282 C435.907,248.282 436.405,248.272 436.405,248.656 C436.405,249.043 436.416,251.498 436.405,252.052 z M430.193,204.325 L438.262,204.325 C438.598,204.325 438.868,204.85 438.868,205.498 C438.868,206.147 438.598,206.669 438.262,206.669 L430.193,206.669 C429.858,206.669 429.588,206.147 429.588,205.498 C429.588,204.85 429.858,204.325 430.193,204.325 z M449.842,205.052 C449.842,202.895 447.955,201.494 446.01,201.494 C439.025,201.494 424.31,201.546 422.416,201.586 C419.951,201.639 418.655,204.177 418.615,205.146 C418.582,205.959 418.82,239.804 418.655,251.185 C418.615,253.974 420.516,255.27 422.416,255.414 C423.498,255.501 438.115,255.526 445.557,255.471 C448.13,255.453 449.846,253.72 449.846,251.1 C449.846,239.475 449.842,207.199 449.842,205.052" fill="#344F61"/>
      <path d="M423.16,210.788 L445.299,210.788 L445.299,224.031 L423.16,224.031 z" fill="#00ADC4" id="ui-blue"/>
      <path d="M423.16,226.013 L445.299,226.013 L445.299,233.443 L423.16,233.443 z" fill="#E4695D" id="ui-ruby"/>
      <path d="M423.16,235.284 L445.299,235.284 L445.299,242.714 L423.16,242.714 z" fill="#FFD600" id="ui-amber"/>
    </g>
  </g>
  <g id="app">
    <g id="cloud">
      <path d="M254.767,1 C282.754,1 305.442,23.552 305.442,51.37 L305.373,52.739 C319.982,55.668 332.09,67.426 336.444,81.453 C338.251,87.272 338.118,89.009 338.381,94.185 C338.381,117.831 319.096,137 295.307,137 C295.307,137 178.755,137 178.755,137 C154.966,137 135.681,117.831 135.681,94.185 C135.944,89.008 135.811,87.273 137.617,81.453 C142.826,64.674 158.558,52.383 176.228,51.497 L176.221,51.37 C176.221,37.461 187.565,26.185 201.558,26.185 C204.446,26.215 207.38,26.598 210.055,27.721 L210.208,27.361 C216.946,15.997 226.84,7.208 239.698,3.264 C242.912,2.279 246.29,1.928 249.586,1.26 z" fill="#FFFFFF"/>
      <path d="M254.767,1 C282.754,1 305.442,23.552 305.442,51.37 L305.373,52.739 C319.982,55.668 332.09,67.426 336.444,81.453 C338.251,87.272 338.118,89.009 338.381,94.185 C338.381,117.831 319.096,137 295.307,137 C295.307,137 178.755,137 178.755,137 C154.966,137 135.681,117.831 135.681,94.185 C135.944,89.008 135.811,87.273 137.617,81.453 C142.826,64.674 158.558,52.383 176.228,51.497 L176.221,51.37 C176.221,37.461 187.565,26.185 201.558,26.185 C204.446,26.215 207.38,26.598 210.055,27.721 L210.208,27.361 C216.946,15.997 226.84,7.208 239.698,3.264 C242.912,2.279 246.29,1.928 249.586,1.26 z" fill-opacity="0" stroke="#FFFFFF" stroke-width="1"/>
    </g>
    <g id="database">
      <path d="M316.928,100.9 C316.928,104.928 307.813,108.193 296.569,108.193 C285.325,108.193 276.209,104.928 276.209,100.9 C276.209,96.873 285.325,93.608 296.569,93.608 C307.813,93.608 316.928,96.873 316.928,100.9" fill="#344F61"/>
      <path d="M316.928,85.061 C316.928,89.089 307.813,92.354 296.569,92.354 C285.325,92.354 276.209,89.089 276.209,85.061 C276.209,81.033 285.325,77.768 296.569,77.768 C307.813,77.768 316.928,81.033 316.928,85.061" fill="#344F61"/>
      <path d="M296.569,76.629 C285.325,76.629 276.209,73.363 276.209,69.335 L276.209,81.642 C276.209,85.67 285.325,88.935 296.569,88.935 C307.813,88.935 316.928,85.67 316.928,81.642 L316.928,69.335 C316.928,73.363 307.813,76.629 296.569,76.629 z M296.569,92.354 C285.325,92.354 276.209,89.089 276.209,85.061 L276.209,97.368 C276.209,101.395 285.325,104.661 296.569,104.661 C307.813,104.661 316.928,101.395 316.928,97.368 L316.928,85.061 C316.928,89.089 307.813,92.354 296.569,92.354 z M296.569,108.193 C285.325,108.193 276.209,104.928 276.209,100.9 L276.209,113.207 C276.209,117.235 285.325,120.5 296.569,120.5 C307.813,120.5 316.928,117.235 316.928,113.207 L316.928,100.9 C316.928,104.928 307.813,108.193 296.569,108.193" fill="#DFDED8"/>
      <path d="M316.928,69.335 C316.928,73.363 307.813,76.629 296.569,76.629 C285.325,76.629 276.209,73.363 276.209,69.335 C276.209,65.308 285.325,62.042 296.569,62.042 C307.813,62.042 316.928,65.308 316.928,69.335" fill="#344F61"/>
    </g>
    <g id="arrows">
      <path d="M244.747,91.658 L228.843,91.658 L228.843,104.894 L244.747,104.894 L244.747,114.753 L262.028,98.276 L244.747,81.799 L244.747,91.658" fill="#344F61"/>
      <path d="M226.269,91.658 L242.173,91.658 L242.173,104.894 L226.269,104.894 L226.269,114.753 L208.988,98.276 L226.269,81.799 L226.269,91.658" fill="#344F61"/>
    </g>
    <g id="code">
      <path d="M155.434,64.371 L197.292,64.371 L197.292,120.182 L155.434,120.182 z" fill="#363B43"/>
      <path d="M155.434,64.371 L197.292,64.371 L197.292,67.964 L155.434,67.964 z" fill="#20262F"/>
      <path d="M158.922,70.911 L164.154,70.911 L164.154,71.783 L158.922,71.783 z" fill="#D46457"/>
      <path d="M158.922,69.167 L162.41,69.167 L162.41,70.039 L158.922,70.039 z" fill="#6EB8B7"/>
      <path d="M160.693,74.399 L171.158,74.399 L171.158,75.271 L160.693,75.271 z" fill="#64676D"/>
      <path d="M160.693,90.096 L172.875,90.096 L172.875,90.968 L160.693,90.968 z" fill="#64676D"/>
      <path d="M172.875,74.399 L183.339,74.399 L183.339,75.271 L172.875,75.271 z" fill="#8D9193"/>
      <path d="M164.168,77.887 L172.875,77.887 L172.875,78.759 L164.168,78.759 z" fill="#64676D"/>
      <path d="M162.41,76.224 L165.925,76.224 L165.925,77.096 L162.41,77.096 z" fill="#D46457"/>
      <path d="M167.629,76.224 L174.619,76.224 L174.619,77.096 L167.629,77.096 z" fill="#8D9193"/>
      <path d="M174.646,102.289 L183.339,102.289 L183.339,103.161 L174.646,103.161 z" fill="#64676D"/>
      <path d="M167.629,93.584 L174.619,93.584 L174.619,94.456 L167.629,94.456 z" fill="#64676D"/>
      <path d="M176.383,93.584 L186.855,93.584 L186.855,94.456 L176.383,94.456 z" fill="#64676D"/>
      <path d="M162.41,102.289 L172.881,102.289 L172.881,103.161 L162.41,103.161 z" fill="#64676D"/>
      <path d="M165.925,79.712 L176.363,79.712 L176.363,80.584 L165.925,80.584 z" fill="#64676D"/>
      <path d="M178.107,79.712 L193.804,79.712 L193.804,80.584 L178.107,80.584 z" fill="#8D9193"/>
      <path d="M158.922,88.318 L164.154,88.318 L164.154,89.19 L158.922,89.19 z" fill="#6EB8B7"/>
      <path d="M165.905,88.318 L178.107,88.318 L178.107,89.19 L165.905,89.19 z" fill="#64676D"/>
      <path d="M162.41,91.84 L167.629,91.84 L167.629,92.712 L162.41,92.712 z" fill="#8D9193"/>
      <path d="M164.154,93.584 L165.925,93.584 L165.925,94.456 L164.154,94.456 z" fill="#6EB8B7"/>
      <path d="M169.414,91.84 L176.363,91.84 L176.363,92.712 L169.414,92.712 z" fill="#D46457"/>
      <path d="M169.414,116.292 L176.363,116.292 L176.363,117.164 L169.414,117.164 z" fill="#8D9193"/>
      <path d="M169.414,100.56 L190.315,100.56 L190.315,101.433 L169.414,101.433 z" fill="#8D9193"/>
      <path d="M178.121,91.84 L183.339,91.84 L183.339,92.712 L178.121,92.712 z" fill="#64676D"/>
      <path d="M174.619,77.921 L178.107,77.921 L178.107,78.793 L174.619,78.793 z" fill="#64676D"/>
      <path d="M165.925,95.328 L178.121,95.328 L178.121,96.2 L165.925,96.2 z" fill="#8D9193"/>
      <path d="M162.41,107.6 L179.851,107.6 L179.851,108.472 L162.41,108.472 z" fill="#64676D"/>
      <path d="M165.925,111.088 L174.619,111.088 L174.619,111.96 L165.925,111.96 z" fill="#64676D"/>
      <path d="M176.39,111.088 L181.636,111.088 L181.636,111.96 L176.39,111.96 z" fill="#64676D"/>
      <path d="M183.366,111.053 L186.827,111.053 L186.827,111.925 L183.366,111.925 z" fill="#64676D"/>
      <path d="M158.922,83.2 L165.898,83.2 L165.898,84.072 L158.922,84.072 z" fill="#64676D"/>
      <path d="M160.693,84.864 L167.629,84.864 L167.629,85.736 L160.693,85.736 z" fill="#8D9193"/>
      <path d="M160.693,116.292 L167.629,116.292 L167.629,117.164 L160.693,117.164 z" fill="#64676D"/>
      <path d="M160.693,100.56 L167.629,100.56 L167.629,101.433 L160.693,101.433 z" fill="#6EB8B7"/>
      <path d="M179.878,77.887 L186.855,77.887 L186.855,78.759 L179.878,78.759 z" fill="#6EB8B7"/>
      <path d="M164.168,109.298 L172.875,109.298 L172.875,110.17 L164.168,110.17 z" fill="#6EB8B7"/>
      <path d="M174.619,109.332 L178.107,109.332 L178.107,110.204 L174.619,110.204 z" fill="#8D9193"/>
      <path d="M179.878,109.298 L193.804,109.298 L193.804,110.17 L179.878,110.17 z" fill="#D46457"/>
      <path d="M158.922,98.783 L162.41,98.783 L162.41,99.655 L158.922,99.655 z" fill="#D46457"/>
      <path d="M158.922,114.576 L169.414,114.576 L169.414,115.448 L158.922,115.448 z" fill="#6EB8B7"/>
      <path d="M164.154,104.084 L178.121,104.084 L178.121,104.956 L164.154,104.956 z" fill="#64676D"/>
    </g>
    <g id="gears">
      <path d="M229.082,60.07 L227.74,60.07 C226.591,60.07 225.655,59.129 225.655,57.985 L225.655,57.888 C225.655,56.739 223.937,55.253 223.329,54.949 C223.189,54.876 223.024,54.842 222.841,54.842 C222.214,54.842 221.378,55.233 220.756,55.861 L220.688,55.928 C220.283,56.334 219.747,56.537 219.211,56.537 C218.675,56.537 218.14,56.334 217.734,55.928 L216.783,54.978 C215.972,54.167 215.972,52.834 216.783,52.024 L216.851,51.961 C217.662,51.145 217.512,48.905 217.305,48.249 C217.087,47.593 215.972,47.057 214.824,47.057 L214.732,47.057 C213.578,47.057 212.647,46.12 212.647,44.972 L212.647,43.63 C212.647,42.481 213.578,41.544 214.732,41.544 L214.824,41.544 C215.972,41.544 217.459,39.821 217.763,39.218 C218.077,38.615 217.662,37.456 216.851,36.64 L216.783,36.573 C215.972,35.767 215.972,34.439 216.783,33.624 L217.734,32.678 C218.14,32.267 218.675,32.065 219.211,32.065 C219.747,32.065 220.283,32.267 220.688,32.678 L220.756,32.735 C221.224,33.208 222.17,33.358 223.015,33.358 C223.633,33.358 224.188,33.281 224.468,33.189 C225.119,32.977 225.655,31.862 225.655,30.713 L225.655,30.616 C225.655,29.473 226.591,28.531 227.74,28.531 L229.082,28.531 C230.231,28.531 231.172,29.473 231.172,30.616 L231.172,30.713 C231.172,31.862 232.891,33.344 233.494,33.653 C233.634,33.72 233.798,33.754 233.981,33.754 C234.604,33.754 235.444,33.368 236.067,32.735 L236.129,32.678 C236.54,32.267 237.075,32.065 237.611,32.065 C238.147,32.065 238.683,32.267 239.088,32.678 L240.034,33.624 C240.855,34.439 240.855,35.767 240.034,36.573 L239.976,36.64 C239.161,37.456 239.305,39.701 239.523,40.352 C239.74,41.004 240.855,41.544 242.004,41.544 L242.091,41.544 C243.239,41.544 244.181,42.481 244.181,43.63 L244.181,44.972 C244.181,46.12 243.239,47.057 242.091,47.057 L242.004,47.057 C240.855,47.057 239.363,48.78 239.064,49.388 C238.75,49.987 239.161,51.145 239.976,51.961 L240.034,52.024 C240.855,52.834 240.855,54.167 240.034,54.978 L239.088,55.928 C238.683,56.334 238.147,56.537 237.611,56.537 C237.075,56.537 236.54,56.334 236.134,55.928 L236.067,55.861 C235.598,55.388 234.648,55.243 233.808,55.243 C233.19,55.243 232.635,55.32 232.36,55.412 C231.708,55.62 231.172,56.739 231.172,57.888 L231.172,57.985 C231.172,59.129 230.231,60.07 229.082,60.07 M228.411,36.414 C224.057,36.414 220.529,39.942 220.529,44.301 C220.529,48.65 224.057,52.183 228.411,52.183 C232.765,52.183 236.298,48.65 236.298,44.301 C236.298,39.942 232.765,36.414 228.411,36.414" fill="#344F61"/>
      <path d="M254.385,41.433 L254.047,41.433 C252.903,41.433 251.957,40.651 251.957,39.691 C251.957,38.726 250.552,37.495 250.055,37.244 C249.944,37.186 249.814,37.162 249.664,37.162 C249.152,37.162 248.452,37.49 247.921,38.016 C247.622,38.315 247.217,38.46 246.787,38.46 C246.246,38.46 245.667,38.228 245.214,37.775 L244.972,37.529 C244.161,36.722 244.05,35.496 244.731,34.821 C245.411,34.145 245.296,32.296 245.122,31.76 C244.948,31.225 244.021,30.785 243.061,30.785 C242.1,30.785 241.313,29.854 241.313,28.7 L241.313,28.362 C241.313,27.214 242.1,26.272 243.061,26.272 C244.021,26.272 245.257,24.863 245.503,24.371 C245.759,23.878 245.411,22.918 244.731,22.237 C244.05,21.561 244.161,20.34 244.972,19.529 L245.214,19.283 C245.667,18.834 246.246,18.602 246.787,18.602 C247.217,18.602 247.622,18.747 247.921,19.046 C248.322,19.442 249.128,19.573 249.828,19.573 C250.32,19.573 250.764,19.51 250.986,19.433 C251.522,19.264 251.957,18.337 251.957,17.376 C251.957,16.411 252.903,15.629 254.047,15.629 L254.385,15.629 C255.533,15.629 256.475,16.411 256.475,17.376 C256.475,18.337 257.879,19.573 258.376,19.819 C258.487,19.877 258.618,19.901 258.763,19.901 C259.279,19.901 259.979,19.573 260.51,19.046 C260.809,18.747 261.215,18.602 261.644,18.602 C262.185,18.602 262.769,18.834 263.223,19.283 L263.459,19.529 C264.27,20.34 264.386,21.561 263.7,22.237 C263.02,22.918 263.136,24.766 263.309,25.297 C263.478,25.838 264.41,26.272 265.375,26.272 C266.336,26.272 267.118,27.214 267.118,28.362 L267.118,28.7 C267.118,29.854 266.336,30.785 265.375,30.785 C264.41,30.785 263.179,32.195 262.923,32.692 C262.672,33.18 263.02,34.145 263.7,34.821 C264.386,35.496 264.27,36.722 263.459,37.529 L263.223,37.775 C262.769,38.228 262.185,38.46 261.644,38.46 C261.215,38.46 260.809,38.315 260.51,38.016 C260.109,37.615 259.303,37.49 258.598,37.49 C258.111,37.49 257.667,37.553 257.445,37.625 C256.914,37.799 256.475,38.726 256.475,39.691 C256.475,40.651 255.533,41.433 254.385,41.433 M254.211,22.083 C250.653,22.083 247.767,24.969 247.767,28.531 C247.767,32.098 250.653,34.98 254.211,34.98 C257.778,34.98 260.669,32.098 260.669,28.531 C260.669,24.969 257.778,22.083 254.211,22.083" fill="#344F61"/>
      <path d="M254.211,64.371 C253.25,64.371 252.459,63.758 252.459,63.014 C252.459,62.261 251.363,61.301 250.977,61.108 C250.895,61.064 250.789,61.045 250.678,61.045 C250.277,61.045 249.731,61.301 249.321,61.711 C249.099,61.933 248.8,62.039 248.476,62.039 C248.023,62.039 247.521,61.827 247.12,61.431 C246.44,60.746 246.309,59.756 246.84,59.23 C247.366,58.699 247.284,57.261 247.144,56.846 C247.009,56.43 246.29,56.088 245.537,56.088 C244.794,56.088 244.181,55.301 244.181,54.331 C244.181,53.37 244.794,52.579 245.537,52.579 C246.29,52.579 247.246,51.483 247.444,51.097 C247.641,50.715 247.366,49.972 246.84,49.436 C246.309,48.91 246.44,47.921 247.12,47.24 C247.521,46.844 248.023,46.632 248.476,46.632 C248.8,46.632 249.099,46.738 249.321,46.96 C249.635,47.269 250.262,47.366 250.813,47.366 C251.194,47.366 251.532,47.322 251.706,47.264 C252.121,47.129 252.459,46.405 252.459,45.662 C252.459,44.914 253.25,44.301 254.211,44.301 C255.181,44.301 255.973,44.914 255.973,45.662 C255.973,46.405 257.068,47.366 257.45,47.563 C257.532,47.602 257.633,47.626 257.749,47.626 C258.149,47.626 258.695,47.37 259.11,46.96 C259.327,46.738 259.631,46.632 259.955,46.632 C260.408,46.632 260.915,46.844 261.311,47.24 C262.001,47.921 262.122,48.91 261.591,49.436 C261.065,49.972 261.152,51.406 261.287,51.821 C261.422,52.236 262.151,52.579 262.894,52.579 C263.638,52.579 264.251,53.37 264.251,54.331 C264.251,55.301 263.638,56.088 262.894,56.088 C262.151,56.088 261.19,57.188 260.988,57.57 C260.79,57.951 261.065,58.699 261.591,59.23 C262.122,59.756 262.001,60.746 261.311,61.431 C260.915,61.827 260.408,62.039 259.955,62.039 C259.631,62.039 259.327,61.933 259.11,61.711 C258.796,61.402 258.169,61.301 257.623,61.301 C257.242,61.301 256.899,61.349 256.73,61.407 C256.315,61.542 255.973,62.261 255.973,63.014 C255.973,63.758 255.181,64.371 254.211,64.371 M254.211,49.32 C251.445,49.32 249.196,51.57 249.196,54.331 C249.196,57.106 251.445,59.355 254.211,59.355 C256.986,59.355 259.231,57.106 259.231,54.331 C259.231,51.57 256.986,49.32 254.211,49.32" fill="#344F61"/>
    </g>
  </g>
</svg>
