<svg version="1.1" xmlns="http://www.w3.org/2000/svg" xmlns:xlink="http://www.w3.org/1999/xlink" viewBox="0, 0, 615, 350">
  <g id="arrow">
    <path d="M485.078,113.728 L287.109,113.728 L287.109,236.272 L485.078,236.272 L485.078,327.56 L601.124,175.002 L485.078,22.44 L485.078,113.728" fill="#E46A5D" id="direction"/>
  </g>
  <g id="devices">
    <g id="desktop">
      <path d="M416.626,143.029 L439.196,143.029 C436.969,136.653 437.409,125.107 437.409,125.107 L418.408,125.107 C418.408,125.107 418.847,136.653 416.626,143.029" fill="#344F61"/>
      <path d="M473.612,59.95 C473.612,57.131 471.037,55.302 468.388,55.302 C460.626,55.302 389.974,55.368 387.387,55.422 C384.023,55.495 382.26,58.803 382.207,60.072 C382.163,61.127 382.483,105.324 382.26,120.183 C382.207,123.83 384.802,125.514 387.387,125.705 C388.685,125.802 459.224,125.844 467.771,125.78 C471.281,125.751 473.612,123.491 473.612,120.071 C473.617,104.895 473.612,62.748 473.612,59.95" fill="#344F61"/>
      <path d="M389.21,62.359 L466.609,62.359 L466.609,112.438 L389.21,112.438 z" fill="#FFFFFE"/>
      <path d="M443.052,142.926 C442.476,142.924 413.345,142.924 412.764,142.926 C411.307,142.892 410.154,143.876 410.154,145.485 C410.24,147.528 410.45,148.365 412.498,148.451 C412.759,148.48 443.062,148.48 443.319,148.451 C445.369,148.365 445.579,147.528 445.662,145.485 C445.662,143.876 444.512,142.892 443.052,142.926" fill="#344F61"/>
      <path d="M393.853,66.448 L461.963,66.448 L461.963,88.419 L393.853,88.419 z" fill="#00ADC4" id="ui-blue"/>
      <path d="M395.806,92.813 L410.454,92.813 L410.454,107.46 L395.806,107.46 z" fill="#E4695D" id="ui-ruby"/>
      <path d="M420.585,92.813 L435.232,92.813 L435.232,107.46 L420.585,107.46 z" fill="#FFD600" id="ui-amber"/>
      <path d="M444.961,92.813 L459.608,92.813 L459.608,107.46 L444.961,107.46 z" fill="#5CC39C" id="ui-green"/>
    </g>
    <g id="notebook">
      <path d="M392.784,254.497 L465.262,254.006 L472.436,275.031 L473.178,283.199 L383.628,283.936 L382.642,276.762 L392.784,254.497" fill="#354B5A"/>
      <path d="M470.905,281.834 C470.505,281.873 470.205,281.863 470.205,281.863 C470.205,281.863 388.068,281.968 385.031,281.863 C385.014,281.863 385.007,281.858 384.997,281.858 L384.507,278.946 C396.568,278.976 461.756,278.944 471.386,278.937 L470.905,281.834 z M392.547,256.408 L463.433,256.408 L468.059,268.635 L387.751,268.552 L392.547,256.408 z M475.172,276.093 C473.837,272.89 467.71,257.387 466.758,254.917 C465.908,252.72 462.899,252.93 462.899,252.93 L392.56,252.93 C392.56,252.93 389.987,252.49 388.915,254.931 C387.844,257.367 380.528,276.022 380.528,276.022 C380.528,276.022 380.288,276.891 380.469,277.743 L381.267,282.498 C381.465,283.435 381.223,284.915 383.494,284.946 C386.64,284.995 471.721,284.946 471.721,284.946 C471.721,284.946 474.042,285.237 474.457,282.698 L475.26,278.006 C475.419,277.377 475.543,276.976 475.172,276.093" fill="#DFDED8"/>
      <path d="M390.507,200.076 L463.233,200.076 L463.233,246.583 L390.507,246.583 z" fill="#FFFFFE"/>
      <path d="M394.373,204.411 C394.398,202.053 396.688,202.119 396.688,202.119 L459.027,202.119 C459.027,202.119 461.422,201.855 461.444,204.279 C461.461,206.703 461.422,238.862 461.444,241.547 C461.461,244.23 458.519,244.037 458.519,244.037 L396.622,244.037 C396.622,244.037 394.354,244.103 394.373,241.415 C394.398,238.727 394.354,206.769 394.373,204.411 z M388.044,247.469 C388.08,251.13 388.566,253.071 393.622,253.113 C394.737,253.117 461.078,253.117 462.193,253.113 C467.246,253.071 467.737,251.13 467.778,247.469 C467.791,246.109 467.783,235.403 467.764,224.21 C467.783,213.018 467.791,202.309 467.778,200.955 C467.737,197.293 467.246,195.338 462.193,195.301 C461.078,195.301 457.78,195.301 453.369,195.301 C453.359,195.301 453.349,195.301 453.344,195.301 C452.405,195.301 449.946,195.301 446.595,195.301 C445.194,195.301 442.145,195.301 438.193,195.301 C438.185,195.301 438.176,195.301 438.166,195.301 C436.928,195.296 433.03,195.301 427.909,195.311 C422.782,195.301 418.886,195.296 417.649,195.301 C417.639,195.301 417.634,195.301 417.622,195.301 C413.675,195.301 410.621,195.301 409.22,195.301 C405.868,195.301 403.408,195.301 402.473,195.301 C402.463,195.301 402.456,195.301 402.444,195.301 C398.035,195.301 394.742,195.301 393.622,195.301 C388.566,195.338 388.08,197.293 388.044,200.955 C388.027,202.309 388.039,213.018 388.051,224.21 C388.039,235.403 388.027,246.109 388.044,247.469" fill="#344F61"/>
      <path d="M398.157,206.044 L458.29,206.044 L458.29,225.442 L398.157,225.442 z" fill="#00ADC4" id="ui-blue"/>
      <path d="M399.881,229.321 L412.813,229.321 L412.813,242.253 L399.881,242.253 z" fill="#E4695D" id="ui-ruby"/>
      <path d="M421.758,229.321 L434.689,229.321 L434.689,242.253 L421.758,242.253 z" fill="#FFD600" id="ui-amber"/>
      <path d="M443.279,229.321 L456.211,229.321 L456.211,242.253 L443.279,242.253 z" fill="#5CC39C" id="ui-green"/>
    </g>
    <g id="tablet">
      <path d="M570.887,137.676 L585.609,137.676 L585.609,148.238 L570.887,148.238 z" fill="#DFDED8"/>
      <path d="M581.562,145.287 C581.542,146.129 580.854,146.166 580.854,146.166 L575.75,146.166 C575.75,146.166 574.956,146.222 574.942,145.341 C574.922,144.46 574.922,140.908 574.942,140.241 C574.956,139.565 575.681,139.565 575.681,139.565 L580.8,139.548 C580.8,139.548 581.562,139.531 581.562,140.119 C581.562,140.705 581.576,144.445 581.562,145.287 z M615.175,62.001 C615.141,56.04 612.651,55.454 607.984,55.407 C606.248,55.388 592.6,55.378 578.33,55.361 C564.057,55.329 550.404,55.288 548.673,55.307 C544.008,55.334 541.523,55.915 541.462,61.874 C541.45,63.19 541.309,141.445 541.323,142.756 C541.358,148.712 543.84,149.3 548.517,149.351 C550.241,149.369 563.896,149.383 578.161,149.388 C592.434,149.43 606.087,149.469 607.815,149.454 C612.485,149.42 614.975,148.841 615.033,142.885 C615.041,141.572 615.18,63.321 615.175,62.001" fill="#344F61"/>
      <path d="M550.404,61.996 L605.521,61.996 L605.521,135.152 L550.404,135.152 z" fill="#FFFFFE"/>
      <path d="M554.711,65.756 L601.786,65.756 L601.786,85.154 L554.711,85.154 z" fill="#00ADC4" id="ui-blue"/>
      <path d="M558.565,88.057 L597.932,88.057 L597.932,100.989 L558.565,100.989 z" fill="#E4695D" id="ui-ruby"/>
      <path d="M558.565,103.919 L597.932,103.919 L597.932,116.85 L558.565,116.85 z" fill="#FFD600" id="ui-amber"/>
      <path d="M558.565,119.78 L597.932,119.78 L597.932,132.712 L558.565,132.712 z" fill="#5CC39C" id="ui-green"/>
    </g>
    <g id="phone">
      <path d="M572.764,265.548 L584.022,265.548 L584.022,273.993 L572.764,273.993 z" fill="#DFDED8"/>
      <path d="M567.352,199.302 L588.354,199.302 L588.354,207.744 L567.352,207.744 z" fill="#DFDED8"/>
      <path d="M557.897,207.456 L598.309,207.456 L598.309,263.457 L557.897,263.457 z" fill="#FFFFFE"/>
      <path d="M596.376,260.578 C596.376,261.147 596.161,261.462 595.573,261.462 C595.038,261.462 565.983,261.462 560.866,261.462 C560.379,261.462 560.106,261.147 560.106,260.578 C560.104,253.776 560.067,209.924 560.106,209.448 C560.156,208.937 560.414,208.728 560.897,208.764 C561.343,208.799 590.992,208.744 595.677,208.736 C596.082,208.736 596.431,209.081 596.409,209.624 C596.378,210.119 596.376,253.79 596.376,260.578 z M581.436,272.076 C581.418,272.887 580.755,272.926 580.755,272.926 L575.845,272.926 C575.845,272.926 575.082,272.973 575.066,272.125 C575.048,271.283 575.048,267.866 575.066,267.219 C575.082,266.57 575.778,266.57 575.778,266.57 L580.706,266.554 C580.706,266.554 581.436,266.54 581.436,267.102 C581.436,267.669 581.452,271.265 581.436,272.076 z M572.336,202.169 L584.156,202.169 C584.648,202.169 585.044,202.938 585.044,203.887 C585.044,204.838 584.648,205.603 584.156,205.603 L572.336,205.603 C571.846,205.603 571.45,204.838 571.45,203.887 C571.45,202.938 571.846,202.169 572.336,202.169 z M601.118,203.234 C601.118,200.074 598.354,198.022 595.504,198.022 C585.273,198.022 563.719,198.099 560.945,198.158 C557.335,198.235 555.437,201.952 555.378,203.372 C555.33,204.562 555.679,254.137 555.437,270.807 C555.378,274.891 558.163,276.789 560.945,277 C562.531,277.128 583.941,277.164 594.841,277.083 C598.609,277.057 601.124,274.52 601.124,270.681 C601.124,253.654 601.118,206.379 601.118,203.234" fill="#344F61"/>
      <path d="M562.035,211.636 L594.463,211.636 L594.463,231.033 L562.035,231.033 z" fill="#00ADC4" id="ui-blue"/>
      <path d="M562.035,233.937 L594.463,233.937 L594.463,244.819 L562.035,244.819 z" fill="#E4695D" id="ui-ruby"/>
      <path d="M562.035,247.516 L594.463,247.516 L594.463,258.399 L562.035,258.399 z" fill="#FFD600" id="ui-amber"/>
    </g>
  </g>
  <g id="newsletter">
    <path d="M320.719,178.447 L320.719,178.18 C320.719,170.463 317.11,163.65 311.588,159.12 L178.201,25.744 C167.516,15.065 150.405,14.864 139.989,25.286 L8.679,156.606 C3.023,162.236 0.612,169.835 1.188,177.327 L1.095,178.18 L1.095,325.243 C1.095,338.92 12.17,350 25.841,350 L295.968,350 C309.629,350 320.719,338.92 320.719,325.243 L320.719,180.694 C320.75,179.938 320.77,179.203 320.719,178.447" fill="#00838C"/>
    <path d="M113.011,37.142 C112.163,16.489 95.201,-0 74.341,-0 C53.482,-0 36.52,16.489 35.667,37.142 L35.585,37.142 L35.585,319.855 L286.26,319.855 L287.109,37.142 L113.011,37.142" fill="#FFF7EB"/>
    <path d="M324.498,38.556 C324.498,17.265 307.238,0 285.941,0 L73.298,0 C94.594,0 111.854,17.265 111.854,38.556 L285.941,38.706 L285.936,38.556 L324.498,38.556" fill="#DED7CB"/>
    <path d="M259.247,179.784 C259.247,181.872 257.55,183.553 255.473,183.553 L69.514,183.553 C67.431,183.553 65.74,181.872 65.74,179.784 C65.74,177.702 67.431,176.01 69.514,176.01 L255.473,176.01 C257.55,176.01 259.247,177.702 259.247,179.784" fill="#2E424C"/>
    <path d="M259.247,202.33 C259.247,204.417 257.55,206.099 255.473,206.099 L69.514,206.099 C67.431,206.099 65.74,204.417 65.74,202.33 C65.74,200.248 67.431,198.556 69.514,198.556 L255.473,198.556 C257.55,198.556 259.247,200.248 259.247,202.33" fill="#2E424C"/>
    <path d="M259.247,224.876 C259.247,226.963 257.55,228.649 255.473,228.649 L69.514,228.649 C67.431,228.649 65.74,226.963 65.74,224.876 C65.74,222.793 67.431,221.096 69.514,221.096 L255.473,221.096 C257.55,221.096 259.247,222.793 259.247,224.876" fill="#2E424C"/>
    <path d="M257.118,89.602 C257.118,91.694 255.426,93.375 253.349,93.375 L166.103,93.375 C164.02,93.375 162.329,91.694 162.329,89.602 C162.329,87.519 164.02,85.833 166.103,85.833 L253.349,85.833 C255.426,85.833 257.118,87.519 257.118,89.602" fill="#2E424C"/>
    <path d="M257.118,112.147 C257.118,114.235 255.426,115.921 253.349,115.921 L166.103,115.921 C164.02,115.921 162.329,114.235 162.329,112.147 C162.329,110.065 164.02,108.378 166.103,108.378 L253.349,108.378 C255.426,108.378 257.118,110.065 257.118,112.147" fill="#2E424C"/>
    <path d="M257.118,134.698 C257.118,136.78 255.426,138.467 253.349,138.467 L166.103,138.467 C164.02,138.467 162.329,136.78 162.329,134.698 C162.329,132.616 164.02,130.924 166.103,130.924 L253.349,130.924 C255.426,130.924 257.118,132.616 257.118,134.698" fill="#2E424C"/>
    <path d="M257.118,157.238 C257.118,159.326 255.426,161.007 253.349,161.007 L166.103,161.007 C164.02,161.007 162.329,159.326 162.329,157.238 C162.329,155.161 164.02,153.465 166.103,153.465 L253.349,153.465 C255.426,153.465 257.118,155.161 257.118,157.238" fill="#2E424C"/>
    <path d="M317.176,163.851 L159.917,245.051 L3.481,163.866 C0.9,167.758 -0,173.157 -0,178.18 L-0,312.066 C-0,325.727 11.162,336.812 24.921,336.812 L296.929,336.812 C310.677,336.812 321.845,325.727 321.845,312.066 L321.845,178.18 C321.845,170.874 316.112,162.375 317.176,163.851" fill="#85CCD1"/>
    <path d="M160.57,244.963 L3.409,324.174 C7.692,331.681 15.712,336.812 25.019,336.812 L297.027,336.812 C306.184,336.812 314.117,331.84 318.441,324.529 L160.57,244.963" fill="#00A8B5"/>
    <path d="M67.061,85.288 L146.128,85.288 L146.128,163.958 L67.061,163.958 z" fill="#E26254"/>
    <path d="M67.061,55.302 L257.509,55.302 L257.509,71.658 L67.061,71.658 z" fill="#EE9C3E"/>
  </g>
</svg>
