<svg version="1.1" xmlns="http://www.w3.org/2000/svg" xmlns:xlink="http://www.w3.org/1999/xlink" viewBox="0, 0, 615, 360">
  <g id="browser">
    <g id="body-chrome">
      <path d="M2.797,58.68 L612.297,58.68 L612.297,353.512 C612.297,355.169 610.954,356.512 609.297,356.512 L5.797,356.512 C4.14,356.512 2.797,355.169 2.797,353.512 L2.797,58.68 z" fill="#E4695D"/>
      <path d="M614.297,56.68 L614.297,353.512 C614.297,356.273 612.059,358.512 609.297,358.512 L5.797,358.512 C3.035,358.512 0.797,356.273 0.797,353.512 L0.797,56.68 L614.297,56.68 z M612.297,58.68 L2.797,58.68 L2.797,353.512 C2.797,355.169 4.14,356.512 5.797,356.512 L609.297,356.512 C610.954,356.512 612.297,355.169 612.297,353.512 L612.297,58.68 z" fill="#20262F"/>
    </g>
    <path d="M2.797,58.68 L612.297,58.68 L612.297,147.667 L2.797,147.667 z" fill="#FFFFFF" id="metro-style"/>
    <g id="nav-chrome">
      <path d="M5.703,3.488 L609.297,3.488 C610.954,3.488 612.297,4.831 612.297,6.488 L612.297,58.68 L2.703,58.68 L2.703,6.488 C2.703,4.831 4.046,3.488 5.703,3.488 z" fill="#95BED0"/>
      <path d="M609.297,1.488 C612.059,1.488 614.297,3.727 614.297,6.488 L614.297,60.68 L0.703,60.68 L0.703,6.488 C0.703,3.727 2.941,1.488 5.703,1.488 L609.297,1.488 z M609.297,3.488 L5.703,3.488 C4.046,3.488 2.703,4.831 2.703,6.488 L2.703,58.68 L612.297,58.68 L612.297,6.488 C612.297,4.831 610.954,3.488 609.297,3.488 z" fill="#20262F"/>
    </g>
    <g id="menu">
      <path d="M564.828,31.227 L600.092,31.227" fill-opacity="0" stroke="#000000" stroke-width="1.685"/>
      <path d="M564.828,42.107 L600.092,42.107" fill-opacity="0" stroke="#000000" stroke-width="1.685"/>
      <path d="M564.828,20.276 L600.092,20.276" fill-opacity="0" stroke="#000000" stroke-width="1.685"/>
    </g>
    <path d="M61.541,16.491 L543.685,16.491 C545.342,16.491 546.685,17.834 546.685,19.491 L546.685,42.678 C546.685,44.335 545.342,45.678 543.685,45.678 L61.541,45.678 C59.884,45.678 58.541,44.335 58.541,42.678 L58.541,19.491 C58.541,17.834 59.884,16.491 61.541,16.491 z" fill="#FFFFFF" id="address"/>
    <path d="M13.822,31.163 L42.712,13.393 L42.712,48.932 z" fill="#FFFFFF" id="back"/>
  </g>
  <g id="app">
    <g id="database">
      <path d="M598.423,266.36 C598.423,281.206 564.827,293.24 523.385,293.24 C481.942,293.24 448.346,281.206 448.346,266.36 C448.346,251.517 481.942,239.482 523.385,239.482 C564.827,239.482 598.423,251.517 598.423,266.36" fill="#45616A"/>
      <path d="M598.423,207.981 C598.423,222.827 564.827,234.861 523.385,234.861 C481.942,234.861 448.346,222.827 448.346,207.981 C448.346,193.136 481.942,181.101 523.385,181.101 C564.827,181.101 598.423,193.136 598.423,207.981" fill="#45616A"/>
      <path d="M523.385,176.903 C481.942,176.903 448.346,164.868 448.346,150.022 L448.346,195.382 C448.346,210.227 481.942,222.261 523.385,222.261 C564.827,222.261 598.423,210.227 598.423,195.382 L598.423,150.022 C598.423,164.868 564.827,176.903 523.385,176.903 z M523.385,234.861 C481.942,234.861 448.346,222.827 448.346,207.981 L448.346,253.341 C448.346,268.186 481.942,280.221 523.385,280.221 C564.827,280.221 598.423,268.186 598.423,253.341 L598.423,207.981 C598.423,222.827 564.827,234.861 523.385,234.861 z M523.385,293.24 C481.942,293.24 448.346,281.206 448.346,266.36 L448.346,311.72 C448.346,326.565 481.942,338.6 523.385,338.6 C564.827,338.6 598.423,326.565 598.423,311.72 L598.423,266.36 C598.423,281.206 564.827,293.24 523.385,293.24" fill="#FFFFFF"/>
      <path d="M598.423,150.022 C598.423,164.868 564.827,176.903 523.385,176.903 C481.942,176.903 448.346,164.868 448.346,150.022 C448.346,135.177 481.942,123.142 523.385,123.142 C564.827,123.142 598.423,135.177 598.423,150.022" fill="#45616A"/>
    </g>
    <g id="code">
      <path d="M17.945,131.723 L172.222,131.723 L172.222,337.426 L17.945,337.426 z" fill="#363B43"/>
      <path d="M17.945,131.723 L172.222,131.723 L172.222,144.969 L17.945,144.969 z" fill="#20262F"/>
      <path d="M30.801,155.829 L50.086,155.829 L50.086,159.043 L30.801,159.043 z" fill="#D46457"/>
      <path d="M30.801,149.401 L43.658,149.401 L43.658,152.615 L30.801,152.615 z" fill="#6EB8B7"/>
      <path d="M37.33,168.685 L75.899,168.685 L75.899,171.899 L37.33,171.899 z" fill="#64676D"/>
      <path d="M37.33,226.539 L82.227,226.539 L82.227,229.753 L37.33,229.753 z" fill="#64676D"/>
      <path d="M82.227,168.685 L120.796,168.685 L120.796,171.899 L82.227,171.899 z" fill="#8D9193"/>
      <path d="M50.138,181.542 L82.227,181.542 L82.227,184.756 L50.138,184.756 z" fill="#64676D"/>
      <path d="M43.658,175.411 L56.615,175.411 L56.615,178.625 L43.658,178.625 z" fill="#D46457"/>
      <path d="M62.894,175.411 L88.655,175.411 L88.655,178.625 L62.894,178.625 z" fill="#8D9193"/>
      <path d="M88.756,271.48 L120.796,271.48 L120.796,274.694 L88.756,274.694 z" fill="#64676D"/>
      <path d="M62.894,239.396 L88.655,239.396 L88.655,242.61 L62.894,242.61 z" fill="#64676D"/>
      <path d="M95.16,239.396 L133.753,239.396 L133.753,242.61 L95.16,242.61 z" fill="#64676D"/>
      <path d="M43.658,271.48 L82.251,271.48 L82.251,274.694 L43.658,274.694 z" fill="#64676D"/>
      <path d="M56.615,188.267 L95.084,188.267 L95.084,191.481 L56.615,191.481 z" fill="#64676D"/>
      <path d="M101.512,188.267 L159.366,188.267 L159.366,191.481 L101.512,191.481 z" fill="#8D9193"/>
      <path d="M30.801,219.986 L50.086,219.986 L50.086,223.201 L30.801,223.201 z" fill="#6EB8B7"/>
      <path d="M56.538,219.986 L101.512,219.986 L101.512,223.201 L56.538,223.201 z" fill="#64676D"/>
      <path d="M43.658,232.967 L62.894,232.967 L62.894,236.181 L43.658,236.181 z" fill="#8D9193"/>
      <path d="M50.086,239.396 L56.615,239.396 L56.615,242.61 L50.086,242.61 z" fill="#6EB8B7"/>
      <path d="M69.471,232.967 L95.084,232.967 L95.084,236.181 L69.471,236.181 z" fill="#D46457"/>
      <path d="M69.471,323.091 L95.084,323.091 L95.084,326.305 L69.471,326.305 z" fill="#8D9193"/>
      <path d="M69.471,265.108 L146.509,265.108 L146.509,268.322 L69.471,268.322 z" fill="#8D9193"/>
      <path d="M101.564,232.967 L120.796,232.967 L120.796,236.181 L101.564,236.181 z" fill="#64676D"/>
      <path d="M88.655,181.666 L101.512,181.666 L101.512,184.88 L88.655,184.88 z" fill="#64676D"/>
      <path d="M56.615,245.824 L101.564,245.824 L101.564,249.038 L56.615,249.038 z" fill="#8D9193"/>
      <path d="M43.658,291.054 L107.94,291.054 L107.94,294.268 L43.658,294.268 z" fill="#64676D"/>
      <path d="M56.615,303.911 L88.655,303.911 L88.655,307.125 L56.615,307.125 z" fill="#64676D"/>
      <path d="M95.184,303.911 L114.521,303.911 L114.521,307.125 L95.184,307.125 z" fill="#64676D"/>
      <path d="M120.897,303.782 L133.653,303.782 L133.653,306.996 L120.897,306.996 z" fill="#64676D"/>
      <path d="M30.801,201.124 L56.514,201.124 L56.514,204.338 L30.801,204.338 z" fill="#64676D"/>
      <path d="M37.33,207.255 L62.894,207.255 L62.894,210.469 L37.33,210.469 z" fill="#8D9193"/>
      <path d="M37.33,323.091 L62.894,323.091 L62.894,326.305 L37.33,326.305 z" fill="#64676D"/>
      <path d="M37.33,265.108 L62.894,265.108 L62.894,268.322 L37.33,268.322 z" fill="#6EB8B7"/>
      <path d="M108.04,181.542 L133.753,181.542 L133.753,184.756 L108.04,184.756 z" fill="#6EB8B7"/>
      <path d="M50.138,297.314 L82.227,297.314 L82.227,300.528 L50.138,300.528 z" fill="#6EB8B7"/>
      <path d="M88.655,297.438 L101.512,297.438 L101.512,300.652 L88.655,300.652 z" fill="#8D9193"/>
      <path d="M108.04,297.314 L159.366,297.314 L159.366,300.528 L108.04,300.528 z" fill="#D46457"/>
      <path d="M30.801,258.556 L43.658,258.556 L43.658,261.77 L30.801,261.77 z" fill="#D46457"/>
      <path d="M30.801,316.767 L69.471,316.767 L69.471,319.981 L30.801,319.981 z" fill="#6EB8B7"/>
      <path d="M50.086,278.093 L101.564,278.093 L101.564,281.307 L50.086,281.307 z" fill="#64676D"/>
    </g>
  </g>
  <g id="mechanics">
    <g id="arrows">
      <path d="M365.557,210.184 L306.937,210.184 L306.937,258.965 L365.557,258.965 L365.557,295.304 L429.249,234.575 L365.557,173.845 L365.557,210.184" fill="#364A56"/>
      <path d="M249.537,210.184 L308.157,210.184 L308.157,258.965 L249.537,258.965 L249.537,295.304 L185.845,234.575 L249.537,173.845 L249.537,210.184" fill="#364A56"/>
    </g>
    <g id="gears">
      <path d="M287.399,160.199 L284.653,160.199 C282.303,160.199 280.386,158.273 280.386,155.932 L280.386,155.735 C280.386,153.384 276.87,150.342 275.626,149.72 C275.339,149.571 275.003,149.502 274.628,149.502 C273.344,149.502 271.635,150.302 270.361,151.586 L270.223,151.725 C269.393,152.554 268.297,152.969 267.2,152.969 C266.104,152.969 265.007,152.554 264.178,151.725 L262.232,149.779 C260.572,148.119 260.572,145.393 262.232,143.734 L262.37,143.605 C264.03,141.936 263.723,137.353 263.299,136.01 C262.854,134.666 260.572,133.57 258.222,133.57 L258.034,133.57 C255.673,133.57 253.767,131.654 253.767,129.303 L253.767,126.557 C253.767,124.206 255.673,122.29 258.034,122.29 L258.222,122.29 C260.572,122.29 263.615,118.764 264.237,117.529 C264.879,116.295 264.03,113.924 262.37,112.255 L262.232,112.116 C260.572,110.467 260.572,107.751 262.232,106.081 L264.178,104.145 C265.007,103.306 266.104,102.891 267.2,102.891 C268.297,102.891 269.393,103.306 270.223,104.145 L270.361,104.264 C271.319,105.232 273.255,105.538 274.984,105.538 C276.248,105.538 277.384,105.38 277.957,105.192 C279.29,104.758 280.386,102.476 280.386,100.125 L280.386,99.928 C280.386,97.587 282.303,95.661 284.653,95.661 L287.399,95.661 C289.75,95.661 291.676,97.587 291.676,99.928 L291.676,100.125 C291.676,102.476 295.193,105.508 296.427,106.141 C296.714,106.279 297.05,106.348 297.425,106.348 C298.699,106.348 300.418,105.558 301.692,104.264 L301.82,104.145 C302.66,103.306 303.756,102.891 304.853,102.891 C305.949,102.891 307.045,103.306 307.875,104.145 L309.811,106.081 C311.49,107.751 311.49,110.467 309.811,112.116 L309.693,112.255 C308.023,113.924 308.32,118.517 308.764,119.85 C309.209,121.184 311.49,122.29 313.841,122.29 L314.019,122.29 C316.37,122.29 318.296,124.206 318.296,126.557 L318.296,129.303 C318.296,131.654 316.37,133.57 314.019,133.57 L313.841,133.57 C311.49,133.57 308.438,137.096 307.826,138.341 C307.184,139.566 308.023,141.936 309.693,143.605 L309.811,143.734 C311.49,145.393 311.49,148.119 309.811,149.779 L307.875,151.725 C307.045,152.554 305.949,152.969 304.853,152.969 C303.756,152.969 302.66,152.554 301.83,151.725 L301.692,151.586 C300.734,150.618 298.788,150.322 297.069,150.322 C295.805,150.322 294.669,150.48 294.106,150.668 C292.773,151.092 291.676,153.384 291.676,155.735 L291.676,155.932 C291.676,158.273 289.75,160.199 287.399,160.199 M286.026,111.79 C277.117,111.79 269.897,119.011 269.897,127.93 C269.897,136.83 277.117,144.06 286.026,144.06 C294.936,144.06 302.166,136.83 302.166,127.93 C302.166,119.011 294.936,111.79 286.026,111.79" fill="#344F61"/>
      <path d="M339.177,122.063 L338.485,122.063 C336.144,122.063 334.208,120.463 334.208,118.497 C334.208,116.522 331.334,114.003 330.317,113.489 C330.089,113.371 329.823,113.321 329.517,113.321 C328.47,113.321 327.037,113.993 325.951,115.07 C325.338,115.682 324.509,115.978 323.63,115.978 C322.523,115.978 321.338,115.504 320.41,114.576 L319.916,114.072 C318.256,112.423 318.029,109.914 319.422,108.531 C320.815,107.148 320.578,103.365 320.222,102.269 C319.866,101.172 317.97,100.273 316.004,100.273 C314.039,100.273 312.429,98.367 312.429,96.006 L312.429,95.315 C312.429,92.964 314.039,91.038 316.004,91.038 C317.97,91.038 320.499,88.154 321.002,87.146 C321.526,86.139 320.815,84.173 319.422,82.781 C318.029,81.398 318.256,78.899 319.916,77.239 L320.41,76.736 C321.338,75.817 322.523,75.343 323.63,75.343 C324.509,75.343 325.338,75.639 325.951,76.252 C326.771,77.062 328.42,77.328 329.852,77.328 C330.86,77.328 331.769,77.2 332.223,77.042 C333.319,76.696 334.208,74.8 334.208,72.834 C334.208,70.859 336.144,69.259 338.485,69.259 L339.177,69.259 C341.527,69.259 343.453,70.859 343.453,72.834 C343.453,74.8 346.328,77.328 347.345,77.832 C347.572,77.951 347.839,78 348.135,78 C349.192,78 350.624,77.328 351.711,76.252 C352.323,75.639 353.153,75.343 354.032,75.343 C355.138,75.343 356.334,75.817 357.262,76.736 L357.746,77.239 C359.405,78.899 359.642,81.398 358.24,82.781 C356.847,84.173 357.084,87.956 357.44,89.043 C357.786,90.149 359.692,91.038 361.667,91.038 C363.633,91.038 365.233,92.964 365.233,95.315 L365.233,96.006 C365.233,98.367 363.633,100.273 361.667,100.273 C359.692,100.273 357.173,103.158 356.65,104.175 C356.136,105.173 356.847,107.148 358.24,108.531 C359.642,109.914 359.405,112.423 357.746,114.072 L357.262,114.576 C356.334,115.504 355.138,115.978 354.032,115.978 C353.153,115.978 352.323,115.682 351.711,115.07 C350.891,114.25 349.242,113.993 347.8,113.993 C346.802,113.993 345.893,114.122 345.439,114.27 C344.352,114.625 343.453,116.522 343.453,118.497 C343.453,120.463 341.527,122.063 339.177,122.063 M338.821,82.465 C331.541,82.465 325.635,88.371 325.635,95.661 C325.635,102.96 331.541,108.857 338.821,108.857 C346.12,108.857 352.037,102.96 352.037,95.661 C352.037,88.371 346.12,82.465 338.821,82.465" fill="#344F61"/>
      <path d="M338.821,169 C336.855,169 335.236,167.746 335.236,166.224 C335.236,164.684 332.993,162.718 332.203,162.323 C332.035,162.234 331.818,162.195 331.591,162.195 C330.771,162.195 329.655,162.718 328.815,163.558 C328.361,164.012 327.748,164.229 327.087,164.229 C326.158,164.229 325.131,163.795 324.311,162.985 C322.918,161.582 322.652,159.557 323.738,158.481 C324.815,157.394 324.647,154.451 324.361,153.601 C324.084,152.752 322.612,152.05 321.071,152.05 C319.55,152.05 318.296,150.44 318.296,148.455 C318.296,146.49 319.55,144.87 321.071,144.87 C322.612,144.87 324.568,142.627 324.973,141.837 C325.378,141.057 324.815,139.536 323.738,138.439 C322.652,137.363 322.918,135.338 324.311,133.945 C325.131,133.135 326.158,132.701 327.087,132.701 C327.748,132.701 328.361,132.918 328.815,133.372 C329.457,134.005 330.741,134.202 331.867,134.202 C332.648,134.202 333.339,134.113 333.695,133.995 C334.544,133.718 335.236,132.236 335.236,130.715 C335.236,129.184 336.855,127.93 338.821,127.93 C340.806,127.93 342.426,129.184 342.426,130.715 C342.426,132.236 344.668,134.202 345.449,134.607 C345.617,134.686 345.824,134.735 346.061,134.735 C346.881,134.735 347.997,134.212 348.847,133.372 C349.291,132.918 349.913,132.701 350.575,132.701 C351.504,132.701 352.541,133.135 353.351,133.945 C354.763,135.338 355.01,137.363 353.923,138.439 C352.847,139.536 353.025,142.469 353.301,143.319 C353.578,144.168 355.069,144.87 356.59,144.87 C358.111,144.87 359.366,146.49 359.366,148.455 C359.366,150.44 358.111,152.05 356.59,152.05 C355.069,152.05 353.104,154.302 352.689,155.083 C352.284,155.863 352.847,157.394 353.923,158.481 C355.01,159.557 354.763,161.582 353.351,162.985 C352.541,163.795 351.504,164.229 350.575,164.229 C349.913,164.229 349.291,164.012 348.847,163.558 C348.204,162.925 346.92,162.718 345.804,162.718 C345.024,162.718 344.323,162.817 343.977,162.935 C343.128,163.212 342.426,164.684 342.426,166.224 C342.426,167.746 340.806,169 338.821,169 M338.821,138.202 C333.161,138.202 328.558,142.805 328.558,148.455 C328.558,154.135 333.161,158.737 338.821,158.737 C344.5,158.737 349.093,154.135 349.093,148.455 C349.093,142.805 344.5,138.202 338.821,138.202" fill="#344F61"/>
    </g>
  </g>
  <g id="text">
    <text transform="matrix(1, 0, 0, 1, 246.534, 234.458)">
      <tspan x="-27.744" y="7" font-family="AvenirNext-Medium" font-size="24" fill="#FFFFFF">code</tspan>
    </text>
    <text transform="matrix(1, 0, 0, 1, 368.475, 234.458)">
      <tspan x="-24.456" y="7" font-family="AvenirNext-Medium" font-size="24" fill="#FFFFFF">data</tspan>
    </text>
  </g>
</svg>
