<svg version="1.1" xmlns="http://www.w3.org/2000/svg" xmlns:xlink="http://www.w3.org/1999/xlink" viewBox="0, 0, 200, 171">
  <defs>
    <linearGradient id="Gradient_1" gradientUnits="userSpaceOnUse" x1="186.602" y1="5.652" x2="186.602" y2="344.82">
      <stop offset="0" stop-color="#484A4D"/>
      <stop offset="0.44" stop-color="#34383B"/>
      <stop offset="1" stop-color="#25282C"/>
    </linearGradient>
  </defs>
  <g id="typography">
    <path d="M0.136,0.155 L199.864,0.155 L199.864,153.795 C199.864,163.173 192.189,170.845 182.81,170.845 L17.19,170.845 C7.808,170.845 0.136,163.173 0.136,153.795 L0.136,0.155" fill="#E4E3E0"/>
    <path d="M199.86,151.337 L199.86,153.795 C199.86,163.173 192.189,170.845 182.81,170.845 L17.19,170.845 C7.811,170.845 0.136,163.173 0.136,153.795 L0.136,151.337 C0.136,160.719 7.811,168.39 17.19,168.39 L182.81,168.39 C192.189,168.39 199.86,160.719 199.86,151.337" fill="#C4C6C3"/>
    <path d="M0.136,0.155 L199.86,0.155 L199.86,2.613 L0.136,2.613 z" fill="#F0F0ED"/>
    <path d="M29.97,124.269 L31.35,124.269 L31.35,139.522 L29.97,139.522 z" fill="#9E9CA1"/>
    <path d="M127.107,109.51 L128.487,109.51 L128.487,139.522 L127.107,139.522 z" fill="#9E9CA1"/>
    <path d="M177.96,56.116 L179.339,56.116 L179.339,139.526 L177.96,139.526 z" fill="#9E9CA1"/>
    <path d="M119.435,124.269 L120.815,124.269 L120.815,139.522 L119.435,139.522 z" fill="#9E9CA1"/>
    <path d="M14.717,36.782 L127.993,36.782 L127.993,38.162 L14.717,38.162 z" fill="#9E9CA1"/>
    <path d="M14.717,64.772 L185.287,64.772 L185.287,66.155 L14.717,66.155 z" fill="#9E9CA1"/>
    <path d="M14.717,122.886 L185.287,122.886 L185.287,124.269 L14.717,124.269 z" fill="#9E9CA1"/>
    <path d="M20.922,38.162 L22.302,38.162 L22.302,123.318 L20.922,123.318 z" fill="#9E9CA1"/>
    <path d="M29.97,31.478 L31.35,31.478 L31.35,123.318 L29.97,123.318 z" fill="#9E9CA1"/>
    <path d="M119.435,31.478 L120.815,31.478 L120.815,123.318 L119.435,123.318 z" fill="#9E9CA1"/>
    <path d="M30.689,133.074 L178.403,133.074 L178.403,134.454 L30.689,134.454 z" fill="#9E9CA1"/>
    <path d="M88.066,95.63 L54.946,95.63 L49.155,109.133 C47.713,112.448 47.002,114.924 47.002,116.583 C47.002,117.872 47.626,119.016 48.853,120.003 C50.102,120.998 52.775,121.641 56.907,121.942 L56.907,124.269 L29.97,124.269 L29.97,121.942 C33.543,121.299 35.848,120.479 36.905,119.469 C39.058,117.462 41.425,113.352 44.032,107.172 L74.134,36.782 L76.327,36.782 L106.107,107.924 C108.5,113.653 110.674,117.356 112.631,119.055 C114.592,120.758 117.326,121.728 120.815,121.942 L120.815,124.269 L87.053,124.269 L87.053,121.942 C90.455,121.771 92.76,121.187 93.966,120.221 C95.171,119.273 95.774,118.09 95.774,116.688 C95.774,114.837 94.913,111.932 93.232,107.924 L88.066,95.63 z M86.298,90.957 L71.785,56.399 L56.907,90.957 L86.298,90.957 z M159.036,115.937 C153.114,120.522 149.389,123.169 147.861,123.877 C145.602,124.934 143.188,125.475 140.625,125.475 C136.62,125.475 133.327,124.095 130.742,121.361 C128.16,118.623 126.868,115.033 126.868,110.574 C126.868,107.753 127.492,105.317 128.763,103.254 C130.484,100.412 133.476,97.718 137.742,95.176 C142.004,92.66 149.11,89.599 159.036,85.983 L159.036,83.699 C159.036,77.952 158.132,73.99 156.302,71.834 C154.472,69.706 151.804,68.628 148.315,68.628 C145.664,68.628 143.555,69.339 142.004,70.781 C140.41,72.204 139.612,73.838 139.612,75.69 L139.742,79.353 C139.742,81.288 139.249,82.773 138.257,83.83 C137.27,84.883 135.977,85.402 134.383,85.402 C132.811,85.402 131.54,84.861 130.549,83.768 C129.558,82.668 129.064,81.183 129.064,79.284 C129.064,75.668 130.916,72.353 134.619,69.318 C138.323,66.304 143.511,64.772 150.206,64.772 C155.333,64.772 159.53,65.632 162.827,67.357 C165.303,68.668 167.133,70.716 168.316,73.497 C169.072,75.305 169.435,78.983 169.435,84.581 L169.435,104.202 C169.435,109.71 169.544,113.094 169.761,114.343 C169.976,115.566 170.321,116.409 170.793,116.819 C171.29,117.247 171.849,117.462 172.474,117.462 C173.138,117.462 173.741,117.313 174.238,117.011 C175.12,116.474 176.823,114.924 179.339,112.404 L179.339,115.937 C174.648,122.243 170.146,125.409 165.84,125.409 C163.796,125.409 162.159,124.698 160.931,123.256 C159.704,121.837 159.08,119.379 159.036,115.937 z M159.036,111.845 L159.036,89.817 C152.686,92.359 148.594,94.145 146.739,95.176 C143.406,97.028 141.035,98.966 139.612,100.992 C138.17,103.015 137.462,105.211 137.462,107.622 C137.462,110.639 138.363,113.156 140.174,115.16 C141.982,117.142 144.07,118.151 146.419,118.151 C149.625,118.151 153.826,116.042 159.036,111.845" fill="url(#Gradient_1)"/>
    <path d="M120.122,37.483 L115.089,42.515 L115.089,32.447 L120.122,37.483 z M21.623,65.375 L26.659,60.339 L16.587,60.339 L21.623,65.375 z M21.623,123.656 L26.659,118.62 L16.587,118.62 L21.623,123.656 z M127.833,133.738 L132.869,138.774 L132.869,128.706 L127.833,133.738 z M30.486,133.738 L35.521,138.774 L35.521,128.706 L30.486,133.738 z M30.486,37.483 L35.521,42.515 L35.521,32.447 L30.486,37.483 z M21.623,65.705 L26.659,70.741 L16.587,70.741 L21.623,65.705 z M21.623,37.469 L26.659,42.501 L16.587,42.501 L21.623,37.469 z M178.784,133.738 L173.748,138.774 L173.748,128.706 L178.784,133.738 z M120.122,133.738 L115.089,138.774 L115.089,128.706 L120.122,133.738" fill="#9E9CA1"/>
  </g>
</svg>
