<svg version="1.1" xmlns="http://www.w3.org/2000/svg" xmlns:xlink="http://www.w3.org/1999/xlink" viewBox="0, 0, 547.2, 412">
  <g id="cascading-media-logo">
    <path d="M130.234,31.7 L130.234,110.983" fill-opacity="0" stroke="#F9F9F9" stroke-width="2.7"/>
    <path d="M176.1,1.417 L176.1,80.7" fill-opacity="0" stroke="#F9F9F9" stroke-width="2.7"/>
    <path d="M206.1,51.417 L206.1,130.7" fill-opacity="0" stroke="#F9F9F9" stroke-width="2.7"/>
    <path d="M280.234,331.7 L280.234,410.983" fill-opacity="0" stroke="#F9F9F9" stroke-width="2.7"/>
    <path d="M311.471,279.663 L311.471,358.946" fill-opacity="0" stroke="#F9F9F9" stroke-width="2.7"/>
    <path d="M350.651,309.628 L350.651,388.911" fill-opacity="0" stroke="#F9F9F9" stroke-width="2.7"/>
    <g>
      <path d="M76.269,191.932 Q70.824,198.466 62.535,201.672 Q54.246,204.879 45.655,204.879 Q35.975,204.879 27.989,201.491 Q20.003,198.103 14.195,192.113 Q8.387,186.124 5.181,177.775 Q1.974,169.426 1.974,159.625 Q1.974,149.824 5.181,141.475 Q8.387,133.126 14.195,127.136 Q20.003,121.147 28.05,117.759 Q36.096,114.371 45.655,114.371 Q53.641,114.371 61.204,117.093 Q68.766,119.816 74.09,125.382 L72.396,127.318 Q69.855,124.656 66.649,122.659 Q63.442,120.663 59.873,119.332 Q56.303,118.001 52.673,117.396 Q49.043,116.791 45.655,116.791 Q36.459,116.791 28.897,120.118 Q21.334,123.446 15.95,129.254 Q10.565,135.062 7.601,142.866 Q4.636,150.671 4.636,159.625 Q4.636,168.579 7.54,176.383 Q10.444,184.188 15.829,189.996 Q21.213,195.804 28.776,199.131 Q36.338,202.459 45.655,202.459 Q53.641,202.459 61.446,199.373 Q69.25,196.288 74.332,190.117 z" fill="#F9F9F9"/>
      <path d="M76.269,191.932 Q70.824,198.466 62.535,201.672 Q54.246,204.879 45.655,204.879 Q35.975,204.879 27.989,201.491 Q20.003,198.103 14.195,192.113 Q8.387,186.124 5.181,177.775 Q1.974,169.426 1.974,159.625 Q1.974,149.824 5.181,141.475 Q8.387,133.126 14.195,127.136 Q20.003,121.147 28.05,117.759 Q36.096,114.371 45.655,114.371 Q53.641,114.371 61.204,117.093 Q68.766,119.816 74.09,125.382 L72.396,127.318 Q69.855,124.656 66.649,122.659 Q63.442,120.663 59.873,119.332 Q56.303,118.001 52.673,117.396 Q49.043,116.791 45.655,116.791 Q36.459,116.791 28.897,120.118 Q21.334,123.446 15.95,129.254 Q10.565,135.062 7.601,142.866 Q4.636,150.671 4.636,159.625 Q4.636,168.579 7.54,176.383 Q10.444,184.188 15.829,189.996 Q21.213,195.804 28.776,199.131 Q36.338,202.459 45.655,202.459 Q53.641,202.459 61.446,199.373 Q69.25,196.288 74.332,190.117 z" fill-opacity="0" stroke="#F9F9F9" stroke-width="1"/>
    </g>
    <g>
      <path d="M129.266,189.875 Q129.266,193.021 129.569,196.59 Q129.871,200.16 130.234,202.459 L127.693,202.459 Q127.451,201.249 127.33,199.494 Q127.209,197.74 127.028,195.864 Q126.846,193.989 126.786,192.174 Q126.725,190.359 126.725,189.149 L126.362,189.149 Q123.942,196.772 118.013,200.462 Q112.084,204.153 105.308,204.153 Q101.92,204.153 98.593,203.185 Q95.265,202.217 92.603,200.281 Q89.941,198.345 88.308,195.32 Q86.674,192.295 86.674,188.181 Q86.674,182.252 89.76,178.622 Q92.845,174.992 97.443,172.995 Q102.041,170.999 107.305,170.394 Q112.568,169.789 116.924,169.789 L126.604,169.789 L126.604,165.312 Q126.604,155.995 121.643,151.699 Q116.682,147.404 108.696,147.404 Q103.735,147.404 99.44,149.219 Q95.144,151.034 91.756,154.059 L90.304,152.002 Q94.176,148.614 99.077,146.859 Q103.977,145.105 108.696,145.105 Q118.255,145.105 123.761,150.005 Q129.266,154.906 129.266,165.433 z M126.604,172.088 L118.013,172.088 Q113.415,172.088 108.333,172.632 Q103.251,173.177 99.016,174.871 Q94.781,176.565 92.059,179.711 Q89.336,182.857 89.336,188.181 Q89.336,192.053 90.849,194.654 Q92.361,197.256 94.721,198.829 Q97.08,200.402 99.924,201.128 Q102.767,201.854 105.308,201.854 Q111.479,201.854 115.593,199.555 Q119.707,197.256 122.188,193.686 Q124.668,190.117 125.636,185.821 Q126.604,181.526 126.604,177.412 z" fill="#F9F9F9"/>
      <path d="M129.266,189.875 Q129.266,193.021 129.569,196.59 Q129.871,200.16 130.234,202.459 L127.693,202.459 Q127.451,201.249 127.33,199.494 Q127.209,197.74 127.028,195.864 Q126.846,193.989 126.786,192.174 Q126.725,190.359 126.725,189.149 L126.362,189.149 Q123.942,196.772 118.013,200.462 Q112.084,204.153 105.308,204.153 Q101.92,204.153 98.593,203.185 Q95.265,202.217 92.603,200.281 Q89.941,198.345 88.308,195.32 Q86.674,192.295 86.674,188.181 Q86.674,182.252 89.76,178.622 Q92.845,174.992 97.443,172.995 Q102.041,170.999 107.305,170.394 Q112.568,169.789 116.924,169.789 L126.604,169.789 L126.604,165.312 Q126.604,155.995 121.643,151.699 Q116.682,147.404 108.696,147.404 Q103.735,147.404 99.44,149.219 Q95.144,151.034 91.756,154.059 L90.304,152.002 Q94.176,148.614 99.077,146.859 Q103.977,145.105 108.696,145.105 Q118.255,145.105 123.761,150.005 Q129.266,154.906 129.266,165.433 z M126.604,172.088 L118.013,172.088 Q113.415,172.088 108.333,172.632 Q103.251,173.177 99.016,174.871 Q94.781,176.565 92.059,179.711 Q89.336,182.857 89.336,188.181 Q89.336,192.053 90.849,194.654 Q92.361,197.256 94.721,198.829 Q97.08,200.402 99.924,201.128 Q102.767,201.854 105.308,201.854 Q111.479,201.854 115.593,199.555 Q119.707,197.256 122.188,193.686 Q124.668,190.117 125.636,185.821 Q126.604,181.526 126.604,177.412 z" fill-opacity="0" stroke="#F9F9F9" stroke-width="1"/>
    </g>
    <g>
      <path d="M184.322,187.939 Q184.322,191.69 182.87,194.654 Q181.417,197.619 178.937,199.676 Q176.456,201.733 173.189,202.822 Q169.923,203.911 166.172,203.911 Q160.001,203.911 154.979,201.551 Q149.958,199.192 146.691,194.594 L148.868,193.142 Q154.919,201.612 166.292,201.612 Q168.954,201.612 171.677,200.765 Q174.4,199.918 176.638,198.224 Q178.876,196.53 180.268,193.989 Q181.66,191.448 181.66,188.181 Q181.66,184.309 179.905,181.889 Q178.15,179.469 175.488,178.017 Q172.827,176.565 169.62,175.657 Q166.413,174.75 163.631,174.024 Q160.605,173.177 157.943,172.148 Q155.281,171.12 153.285,169.486 Q151.288,167.853 150.139,165.433 Q148.99,163.013 148.99,159.383 Q148.99,155.753 150.441,153.091 Q151.893,150.429 154.314,148.674 Q156.734,146.92 159.819,146.012 Q162.904,145.105 166.051,145.105 Q177.424,145.105 183.111,153.212 L180.812,154.543 Q178.029,150.913 174.521,149.158 Q171.012,147.404 166.051,147.404 Q163.751,147.404 161.21,148.009 Q158.669,148.614 156.552,150.005 Q154.434,151.397 153.043,153.696 Q151.652,155.995 151.652,159.262 Q151.652,162.892 152.801,165.07 Q153.951,167.248 156.008,168.579 Q158.064,169.91 160.969,170.817 Q163.872,171.725 167.382,172.572 Q170.648,173.419 173.734,174.568 Q176.82,175.718 179.179,177.412 Q181.538,179.106 182.93,181.647 Q184.322,184.188 184.322,187.939 z" fill="#F9F9F9"/>
      <path d="M184.322,187.939 Q184.322,191.69 182.87,194.654 Q181.417,197.619 178.937,199.676 Q176.456,201.733 173.189,202.822 Q169.923,203.911 166.172,203.911 Q160.001,203.911 154.979,201.551 Q149.958,199.192 146.691,194.594 L148.868,193.142 Q154.919,201.612 166.292,201.612 Q168.954,201.612 171.677,200.765 Q174.4,199.918 176.638,198.224 Q178.876,196.53 180.268,193.989 Q181.66,191.448 181.66,188.181 Q181.66,184.309 179.905,181.889 Q178.15,179.469 175.488,178.017 Q172.827,176.565 169.62,175.657 Q166.413,174.75 163.631,174.024 Q160.605,173.177 157.943,172.148 Q155.281,171.12 153.285,169.486 Q151.288,167.853 150.139,165.433 Q148.99,163.013 148.99,159.383 Q148.99,155.753 150.441,153.091 Q151.893,150.429 154.314,148.674 Q156.734,146.92 159.819,146.012 Q162.904,145.105 166.051,145.105 Q177.424,145.105 183.111,153.212 L180.812,154.543 Q178.029,150.913 174.521,149.158 Q171.012,147.404 166.051,147.404 Q163.751,147.404 161.21,148.009 Q158.669,148.614 156.552,150.005 Q154.434,151.397 153.043,153.696 Q151.652,155.995 151.652,159.262 Q151.652,162.892 152.801,165.07 Q153.951,167.248 156.008,168.579 Q158.064,169.91 160.969,170.817 Q163.872,171.725 167.382,172.572 Q170.648,173.419 173.734,174.568 Q176.82,175.718 179.179,177.412 Q181.538,179.106 182.93,181.647 Q184.322,184.188 184.322,187.939 z" fill-opacity="0" stroke="#F9F9F9" stroke-width="1"/>
    </g>
    <g>
      <path d="M242.886,154.301 Q239.74,151.034 235.505,149.219 Q231.27,147.404 226.672,147.404 Q220.743,147.404 216.024,149.642 Q211.305,151.881 207.977,155.632 Q204.65,159.383 202.835,164.344 Q201.02,169.305 201.02,174.75 Q201.02,180.195 202.835,185.156 Q204.65,190.117 207.977,193.807 Q211.305,197.498 216.024,199.676 Q220.743,201.854 226.672,201.854 Q231.27,201.854 235.686,200.281 Q240.103,198.708 243.37,195.562 L245.185,197.256 Q241.555,200.886 236.654,202.519 Q231.754,204.153 226.672,204.153 Q220.501,204.153 215.358,201.975 Q210.216,199.797 206.404,195.925 Q202.593,192.053 200.475,186.608 Q198.358,181.163 198.358,174.75 Q198.358,168.337 200.475,162.892 Q202.593,157.447 206.404,153.514 Q210.216,149.582 215.358,147.343 Q220.501,145.105 226.672,145.105 Q231.996,145.105 236.775,147.041 Q241.555,148.977 244.943,152.486 z" fill="#F9F9F9"/>
      <path d="M242.886,154.301 Q239.74,151.034 235.505,149.219 Q231.27,147.404 226.672,147.404 Q220.743,147.404 216.024,149.642 Q211.305,151.881 207.977,155.632 Q204.65,159.383 202.835,164.344 Q201.02,169.305 201.02,174.75 Q201.02,180.195 202.835,185.156 Q204.65,190.117 207.977,193.807 Q211.305,197.498 216.024,199.676 Q220.743,201.854 226.672,201.854 Q231.27,201.854 235.686,200.281 Q240.103,198.708 243.37,195.562 L245.185,197.256 Q241.555,200.886 236.654,202.519 Q231.754,204.153 226.672,204.153 Q220.501,204.153 215.358,201.975 Q210.216,199.797 206.404,195.925 Q202.593,192.053 200.475,186.608 Q198.358,181.163 198.358,174.75 Q198.358,168.337 200.475,162.892 Q202.593,157.447 206.404,153.514 Q210.216,149.582 215.358,147.343 Q220.501,145.105 226.672,145.105 Q231.996,145.105 236.775,147.041 Q241.555,148.977 244.943,152.486 z" fill-opacity="0" stroke="#F9F9F9" stroke-width="1"/>
    </g>
    <g>
      <path d="M299.513,189.875 Q299.513,193.021 299.816,196.59 Q300.118,200.16 300.481,202.459 L297.94,202.459 Q297.698,201.249 297.577,199.494 Q297.456,197.74 297.275,195.864 Q297.093,193.989 297.033,192.174 Q296.973,190.359 296.973,189.149 L296.609,189.149 Q294.189,196.772 288.26,200.462 Q282.331,204.153 275.555,204.153 Q272.167,204.153 268.84,203.185 Q265.512,202.217 262.85,200.281 Q260.188,198.345 258.555,195.32 Q256.921,192.295 256.921,188.181 Q256.921,182.252 260.007,178.622 Q263.092,174.992 267.69,172.995 Q272.288,170.999 277.552,170.394 Q282.815,169.789 287.171,169.789 L296.852,169.789 L296.852,165.312 Q296.852,155.995 291.891,151.699 Q286.929,147.404 278.943,147.404 Q273.982,147.404 269.687,149.219 Q265.391,151.034 262.003,154.059 L260.551,152.002 Q264.423,148.614 269.324,146.859 Q274.224,145.105 278.943,145.105 Q288.503,145.105 294.008,150.005 Q299.513,154.906 299.513,165.433 z M296.852,172.088 L288.26,172.088 Q283.662,172.088 278.58,172.632 Q273.498,173.177 269.263,174.871 Q265.029,176.565 262.306,179.711 Q259.583,182.857 259.583,188.181 Q259.583,192.053 261.096,194.654 Q262.608,197.256 264.968,198.829 Q267.327,200.402 270.171,201.128 Q273.014,201.854 275.555,201.854 Q281.727,201.854 285.84,199.555 Q289.954,197.256 292.435,193.686 Q294.915,190.117 295.883,185.821 Q296.852,181.526 296.852,177.412 z" fill="#F9F9F9"/>
      <path d="M299.513,189.875 Q299.513,193.021 299.816,196.59 Q300.118,200.16 300.481,202.459 L297.94,202.459 Q297.698,201.249 297.577,199.494 Q297.456,197.74 297.275,195.864 Q297.093,193.989 297.033,192.174 Q296.973,190.359 296.973,189.149 L296.609,189.149 Q294.189,196.772 288.26,200.462 Q282.331,204.153 275.555,204.153 Q272.167,204.153 268.84,203.185 Q265.512,202.217 262.85,200.281 Q260.188,198.345 258.555,195.32 Q256.921,192.295 256.921,188.181 Q256.921,182.252 260.007,178.622 Q263.092,174.992 267.69,172.995 Q272.288,170.999 277.552,170.394 Q282.815,169.789 287.171,169.789 L296.852,169.789 L296.852,165.312 Q296.852,155.995 291.891,151.699 Q286.929,147.404 278.943,147.404 Q273.982,147.404 269.687,149.219 Q265.391,151.034 262.003,154.059 L260.551,152.002 Q264.423,148.614 269.324,146.859 Q274.224,145.105 278.943,145.105 Q288.503,145.105 294.008,150.005 Q299.513,154.906 299.513,165.433 z M296.852,172.088 L288.26,172.088 Q283.662,172.088 278.58,172.632 Q273.498,173.177 269.263,174.871 Q265.029,176.565 262.306,179.711 Q259.583,182.857 259.583,188.181 Q259.583,192.053 261.096,194.654 Q262.608,197.256 264.968,198.829 Q267.327,200.402 270.171,201.128 Q273.014,201.854 275.555,201.854 Q281.727,201.854 285.84,199.555 Q289.954,197.256 292.435,193.686 Q294.915,190.117 295.883,185.821 Q296.852,181.526 296.852,177.412 z" fill-opacity="0" stroke="#F9F9F9" stroke-width="1"/>
    </g>
    <g>
      <path d="M371.725,80.7 L374.274,80.7 L374.291,202.459 L371.629,202.459 L371.629,187.455 L371.266,187.455 Q367.636,195.683 360.921,199.918 Q354.205,204.153 346.219,204.153 Q340.169,204.153 335.027,201.914 Q329.884,199.676 326.194,195.743 Q322.503,191.811 320.446,186.426 Q318.389,181.042 318.389,174.75 Q318.389,168.458 320.446,163.013 Q322.503,157.568 326.194,153.575 Q329.884,149.582 335.027,147.343 Q340.169,145.105 346.219,145.105 Q354.205,145.105 360.921,149.34 Q367.636,153.575 371.266,161.924 L371.629,161.924 z M321.051,174.75 Q321.051,180.195 322.806,185.156 Q324.56,190.117 327.827,193.807 Q331.094,197.498 335.753,199.676 Q340.411,201.854 346.219,201.854 Q351.785,201.854 356.444,199.676 Q361.102,197.498 364.49,193.807 Q367.878,190.117 369.814,185.156 Q371.75,180.195 371.75,174.629 Q371.75,169.063 369.814,164.102 Q367.878,159.141 364.49,155.45 Q361.102,151.76 356.444,149.582 Q351.785,147.404 346.219,147.404 Q340.411,147.404 335.753,149.642 Q331.094,151.881 327.827,155.632 Q324.56,159.383 322.806,164.344 Q321.051,169.305 321.051,174.75 z" fill="#F9F9F9"/>
      <path d="M371.725,80.7 L374.274,80.7 L374.291,202.459 L371.629,202.459 L371.629,187.455 L371.266,187.455 Q367.636,195.683 360.921,199.918 Q354.205,204.153 346.219,204.153 Q340.169,204.153 335.027,201.914 Q329.884,199.676 326.194,195.743 Q322.503,191.811 320.446,186.426 Q318.389,181.042 318.389,174.75 Q318.389,168.458 320.446,163.013 Q322.503,157.568 326.194,153.575 Q329.884,149.582 335.027,147.343 Q340.169,145.105 346.219,145.105 Q354.205,145.105 360.921,149.34 Q367.636,153.575 371.266,161.924 L371.629,161.924 z M321.051,174.75 Q321.051,180.195 322.806,185.156 Q324.56,190.117 327.827,193.807 Q331.094,197.498 335.753,199.676 Q340.411,201.854 346.219,201.854 Q351.785,201.854 356.444,199.676 Q361.102,197.498 364.49,193.807 Q367.878,190.117 369.814,185.156 Q371.75,180.195 371.75,174.629 Q371.75,169.063 369.814,164.102 Q367.878,159.141 364.49,155.45 Q361.102,151.76 356.444,149.582 Q351.785,147.404 346.219,147.404 Q340.411,147.404 335.753,149.642 Q331.094,151.881 327.827,155.632 Q324.56,159.383 322.806,164.344 Q321.051,169.305 321.051,174.75 z" fill-opacity="0" stroke="#F9F9F9" stroke-width="1"/>
    </g>
    <g>
      <path d="M400.306,125.866 Q399.217,125.866 398.37,125.019 Q397.523,124.172 397.523,122.72 Q397.523,121.389 398.37,120.542 Q399.217,119.695 400.306,119.695 Q401.395,119.695 402.242,120.542 Q403.089,121.389 403.089,122.72 Q403.089,124.172 402.182,125.019 Q401.274,125.866 400.306,125.866 z M398.958,221.3 L398.975,146.799 L401.637,146.799 L401.62,221.3 z" fill="#F9F9F9"/>
      <path d="M400.306,125.866 Q399.217,125.866 398.37,125.019 Q397.523,124.172 397.523,122.72 Q397.523,121.389 398.37,120.542 Q399.217,119.695 400.306,119.695 Q401.395,119.695 402.242,120.542 Q403.089,121.389 403.089,122.72 Q403.089,124.172 402.182,125.019 Q401.274,125.866 400.306,125.866 z M398.958,221.3 L398.975,146.799 L401.637,146.799 L401.62,221.3 z" fill-opacity="0" stroke="#F9F9F9" stroke-width="1"/>
    </g>
    <g>
      <path d="M429.467,161.44 Q430.677,157.568 432.976,154.543 Q435.275,151.518 438.179,149.4 Q441.083,147.283 444.471,146.194 Q447.859,145.105 451.489,145.105 Q457.297,145.105 461.169,147.162 Q465.041,149.219 467.34,152.607 Q469.639,155.995 470.607,160.23 Q471.575,164.465 471.575,168.821 L471.575,202.459 L468.913,202.459 L468.913,169.063 Q468.913,165.675 468.187,161.803 Q467.461,157.931 465.465,154.785 Q463.468,151.639 460.08,149.521 Q456.692,147.404 451.489,147.404 Q446.891,147.404 442.838,149.279 Q438.784,151.155 435.82,154.664 Q432.855,158.173 431.101,163.194 Q429.346,168.216 429.346,174.629 L429.346,202.459 L426.684,202.459 L426.684,160.835 Q426.684,159.504 426.624,157.568 Q426.563,155.632 426.503,153.635 Q426.442,151.639 426.321,149.824 Q426.2,148.009 426.079,146.799 L428.741,146.799 Q428.862,148.009 428.923,149.824 Q428.983,151.639 429.044,153.756 Q429.104,155.874 429.165,157.87 Q429.225,159.867 429.225,161.44 z" fill="#F9F9F9"/>
      <path d="M429.467,161.44 Q430.677,157.568 432.976,154.543 Q435.275,151.518 438.179,149.4 Q441.083,147.283 444.471,146.194 Q447.859,145.105 451.489,145.105 Q457.297,145.105 461.169,147.162 Q465.041,149.219 467.34,152.607 Q469.639,155.995 470.607,160.23 Q471.575,164.465 471.575,168.821 L471.575,202.459 L468.913,202.459 L468.913,169.063 Q468.913,165.675 468.187,161.803 Q467.461,157.931 465.465,154.785 Q463.468,151.639 460.08,149.521 Q456.692,147.404 451.489,147.404 Q446.891,147.404 442.838,149.279 Q438.784,151.155 435.82,154.664 Q432.855,158.173 431.101,163.194 Q429.346,168.216 429.346,174.629 L429.346,202.459 L426.684,202.459 L426.684,160.835 Q426.684,159.504 426.624,157.568 Q426.563,155.632 426.503,153.635 Q426.442,151.639 426.321,149.824 Q426.2,148.009 426.079,146.799 L428.741,146.799 Q428.862,148.009 428.923,149.824 Q428.983,151.639 429.044,153.756 Q429.104,155.874 429.165,157.87 Q429.225,159.867 429.225,161.44 z" fill-opacity="0" stroke="#F9F9F9" stroke-width="1"/>
    </g>
    <g>
      <path d="M543.933,187.455 L543.57,187.455 Q541.997,191.569 539.335,194.654 Q536.673,197.74 533.406,199.857 Q530.139,201.975 526.328,203.064 Q522.516,204.153 518.523,204.153 Q512.473,204.153 507.331,201.914 Q502.188,199.676 498.498,195.743 Q494.807,191.811 492.75,186.426 Q490.693,181.042 490.693,174.75 Q490.693,168.458 492.75,163.013 Q494.807,157.568 498.498,153.575 Q502.188,149.582 507.331,147.343 Q512.473,145.105 518.523,145.105 Q526.509,145.105 533.225,149.34 Q539.94,153.575 543.57,161.924 L543.933,161.924 L543.933,146.799 L546.595,146.799 L546.595,199.313 Q546.595,205.968 545.204,212.018 Q543.812,218.068 540.606,222.666 Q537.399,227.264 532.136,229.986 Q526.872,232.709 519.128,232.709 Q511.263,232.709 505.092,229.986 Q498.921,227.264 494.565,222.303 L496.38,220.488 Q500.978,225.691 506.847,228.05 Q512.715,230.41 519.128,230.41 Q526.388,230.41 531.228,227.748 Q536.068,225.086 538.851,220.73 Q541.634,216.374 542.784,210.747 Q543.933,205.121 543.933,199.071 z M493.355,174.75 Q493.355,180.195 495.11,185.156 Q496.864,190.117 500.131,193.868 Q503.398,197.619 508.057,199.797 Q512.715,201.975 518.523,201.975 Q524.089,201.975 528.748,199.797 Q533.406,197.619 536.794,193.868 Q540.182,190.117 542.118,185.156 Q544.054,180.195 544.054,174.629 Q544.054,169.063 542.118,164.102 Q540.182,159.141 536.794,155.45 Q533.406,151.76 528.748,149.582 Q524.089,147.404 518.523,147.404 Q512.715,147.404 508.057,149.642 Q503.398,151.881 500.131,155.632 Q496.864,159.383 495.11,164.344 Q493.355,169.305 493.355,174.75 z" fill="#F9F9F9"/>
      <path d="M543.933,187.455 L543.57,187.455 Q541.997,191.569 539.335,194.654 Q536.673,197.74 533.406,199.857 Q530.139,201.975 526.328,203.064 Q522.516,204.153 518.523,204.153 Q512.473,204.153 507.331,201.914 Q502.188,199.676 498.498,195.743 Q494.807,191.811 492.75,186.426 Q490.693,181.042 490.693,174.75 Q490.693,168.458 492.75,163.013 Q494.807,157.568 498.498,153.575 Q502.188,149.582 507.331,147.343 Q512.473,145.105 518.523,145.105 Q526.509,145.105 533.225,149.34 Q539.94,153.575 543.57,161.924 L543.933,161.924 L543.933,146.799 L546.595,146.799 L546.595,199.313 Q546.595,205.968 545.204,212.018 Q543.812,218.068 540.606,222.666 Q537.399,227.264 532.136,229.986 Q526.872,232.709 519.128,232.709 Q511.263,232.709 505.092,229.986 Q498.921,227.264 494.565,222.303 L496.38,220.488 Q500.978,225.691 506.847,228.05 Q512.715,230.41 519.128,230.41 Q526.388,230.41 531.228,227.748 Q536.068,225.086 538.851,220.73 Q541.634,216.374 542.784,210.747 Q543.933,205.121 543.933,199.071 z M493.355,174.75 Q493.355,180.195 495.11,185.156 Q496.864,190.117 500.131,193.868 Q503.398,197.619 508.057,199.797 Q512.715,201.975 518.523,201.975 Q524.089,201.975 528.748,199.797 Q533.406,197.619 536.794,193.868 Q540.182,190.117 542.118,185.156 Q544.054,180.195 544.054,174.629 Q544.054,169.063 542.118,164.102 Q540.182,159.141 536.794,155.45 Q533.406,151.76 528.748,149.582 Q524.089,147.404 518.523,147.404 Q512.715,147.404 508.057,149.642 Q503.398,151.881 500.131,155.632 Q496.864,159.383 495.11,164.344 Q493.355,169.305 493.355,174.75 z" fill-opacity="0" stroke="#F9F9F9" stroke-width="1"/>
    </g>
    <g>
      <path d="M253.758,258.724 Q253.758,263.806 255.27,268.767 Q256.783,273.728 259.868,277.66 Q262.954,281.593 267.673,284.013 Q272.392,286.433 278.805,286.433 Q285.339,286.433 290.421,283.831 Q295.503,281.23 299.254,276.269 L301.19,277.963 Q297.076,283.287 291.57,286.07 Q286.065,288.853 278.805,288.853 Q272.634,288.853 267.552,286.614 Q262.47,284.376 258.779,280.383 Q255.089,276.39 253.092,270.824 Q251.096,265.258 251.096,258.724 Q251.096,252.432 253.153,247.108 Q255.21,241.784 258.779,237.912 Q262.349,234.04 267.189,231.922 Q272.029,229.805 277.595,229.805 Q284.129,229.805 288.969,232.104 Q293.809,234.403 297.015,238.154 Q300.222,241.905 301.795,246.684 Q303.368,251.464 303.368,256.425 L303.368,258.724 z M300.827,256.425 Q300.706,250.98 298.951,246.503 Q297.197,242.026 294.172,238.819 Q291.147,235.613 286.912,233.858 Q282.677,232.104 277.474,232.104 Q271.182,232.104 266.705,234.705 Q262.228,237.307 259.384,241.118 Q256.541,244.93 255.21,249.104 Q253.879,253.279 253.879,256.425 z" fill="#F9F9F9"/>
      <path d="M253.758,258.724 Q253.758,263.806 255.27,268.767 Q256.783,273.728 259.868,277.66 Q262.954,281.593 267.673,284.013 Q272.392,286.433 278.805,286.433 Q285.339,286.433 290.421,283.831 Q295.503,281.23 299.254,276.269 L301.19,277.963 Q297.076,283.287 291.57,286.07 Q286.065,288.853 278.805,288.853 Q272.634,288.853 267.552,286.614 Q262.47,284.376 258.779,280.383 Q255.089,276.39 253.092,270.824 Q251.096,265.258 251.096,258.724 Q251.096,252.432 253.153,247.108 Q255.21,241.784 258.779,237.912 Q262.349,234.04 267.189,231.922 Q272.029,229.805 277.595,229.805 Q284.129,229.805 288.969,232.104 Q293.809,234.403 297.015,238.154 Q300.222,241.905 301.795,246.684 Q303.368,251.464 303.368,256.425 L303.368,258.724 z M300.827,256.425 Q300.706,250.98 298.951,246.503 Q297.197,242.026 294.172,238.819 Q291.147,235.613 286.912,233.858 Q282.677,232.104 277.474,232.104 Q271.182,232.104 266.705,234.705 Q262.228,237.307 259.384,241.118 Q256.541,244.93 255.21,249.104 Q253.879,253.279 253.879,256.425 z" fill-opacity="0" stroke="#F9F9F9" stroke-width="1"/>
    </g>
    <g>
      <path d="M371.612,195.683 L374.274,195.683 L374.292,294.7 L371.538,294.7 L371.612,272.155 L371.249,272.155 Q367.619,280.383 360.903,284.618 Q354.188,288.853 346.202,288.853 Q340.152,288.853 335.009,286.614 Q329.867,284.376 326.176,280.443 Q322.486,276.511 320.429,271.126 Q318.372,265.742 318.372,259.45 Q318.372,253.158 320.429,247.713 Q322.486,242.268 326.176,238.275 Q329.867,234.282 335.009,232.043 Q340.152,229.805 346.202,229.805 Q354.188,229.805 360.903,234.04 Q367.619,238.275 371.249,246.624 L371.612,246.624 z M321.034,259.45 Q321.034,264.895 322.788,269.856 Q324.543,274.817 327.81,278.507 Q331.077,282.198 335.735,284.376 Q340.394,286.554 346.202,286.554 Q351.768,286.554 356.426,284.376 Q361.085,282.198 364.473,278.507 Q367.861,274.817 369.797,269.856 Q371.733,264.895 371.733,259.329 Q371.733,253.763 369.797,248.802 Q367.861,243.841 364.473,240.15 Q361.085,236.46 356.426,234.282 Q351.768,232.104 346.202,232.104 Q340.394,232.104 335.735,234.342 Q331.077,236.581 327.81,240.332 Q324.543,244.083 322.788,249.044 Q321.034,254.005 321.034,259.45 z" fill="#F9F9F9"/>
      <path d="M371.612,195.683 L374.274,195.683 L374.292,294.7 L371.538,294.7 L371.612,272.155 L371.249,272.155 Q367.619,280.383 360.903,284.618 Q354.188,288.853 346.202,288.853 Q340.152,288.853 335.009,286.614 Q329.867,284.376 326.176,280.443 Q322.486,276.511 320.429,271.126 Q318.372,265.742 318.372,259.45 Q318.372,253.158 320.429,247.713 Q322.486,242.268 326.176,238.275 Q329.867,234.282 335.009,232.043 Q340.152,229.805 346.202,229.805 Q354.188,229.805 360.903,234.04 Q367.619,238.275 371.249,246.624 L371.612,246.624 z M321.034,259.45 Q321.034,264.895 322.788,269.856 Q324.543,274.817 327.81,278.507 Q331.077,282.198 335.735,284.376 Q340.394,286.554 346.202,286.554 Q351.768,286.554 356.426,284.376 Q361.085,282.198 364.473,278.507 Q367.861,274.817 369.797,269.856 Q371.733,264.895 371.733,259.329 Q371.733,253.763 369.797,248.802 Q367.861,243.841 364.473,240.15 Q361.085,236.46 356.426,234.282 Q351.768,232.104 346.202,232.104 Q340.394,232.104 335.735,234.342 Q331.077,236.581 327.81,240.332 Q324.543,244.083 322.788,249.044 Q321.034,254.005 321.034,259.45 z" fill-opacity="0" stroke="#F9F9F9" stroke-width="1"/>
    </g>
    <g>
      <path d="M401.62,231.499 L401.6,314.069 L398.85,314.069 L398.958,231.499 z" fill="#F9F9F9"/>
      <path d="M401.62,231.499 L401.6,314.069 L398.85,314.069 L398.958,231.499 z" fill-opacity="0" stroke="#F9F9F9" stroke-width="1"/>
    </g>
    <g>
      <path d="M464.54,274.575 Q464.54,277.721 464.842,281.29 Q465.145,284.86 465.508,287.159 L462.967,287.159 Q462.725,285.949 462.604,284.194 Q462.483,282.44 462.301,280.564 Q462.12,278.689 462.059,276.874 Q461.999,275.059 461.999,273.849 L461.636,273.849 Q459.216,281.472 453.287,285.162 Q447.358,288.853 440.582,288.853 Q437.194,288.853 433.866,287.885 Q430.539,286.917 427.877,284.981 Q425.215,283.045 423.581,280.02 Q421.948,276.995 421.948,272.881 Q421.948,266.952 425.033,263.322 Q428.119,259.692 432.717,257.695 Q437.315,255.699 442.578,255.094 Q447.842,254.489 452.198,254.489 L461.878,254.489 L461.878,250.012 Q461.878,240.695 456.917,236.399 Q451.956,232.104 443.97,232.104 Q439.009,232.104 434.713,233.919 Q430.418,235.734 427.03,238.759 L425.578,236.702 Q429.45,233.314 434.35,231.559 Q439.251,229.805 443.97,229.805 Q453.529,229.805 459.034,234.705 Q464.54,239.606 464.54,250.133 z M461.878,256.788 L453.287,256.788 Q448.689,256.788 443.607,257.332 Q438.525,257.877 434.29,259.571 Q430.055,261.265 427.332,264.411 Q424.61,267.557 424.61,272.881 Q424.61,276.753 426.122,279.354 Q427.635,281.956 429.994,283.529 Q432.354,285.102 435.197,285.828 Q438.041,286.554 440.582,286.554 Q446.753,286.554 450.867,284.255 Q454.981,281.956 457.461,278.386 Q459.942,274.817 460.91,270.521 Q461.878,266.226 461.878,262.112 z" fill="#F9F9F9"/>
      <path d="M464.54,274.575 Q464.54,277.721 464.842,281.29 Q465.145,284.86 465.508,287.159 L462.967,287.159 Q462.725,285.949 462.604,284.194 Q462.483,282.44 462.301,280.564 Q462.12,278.689 462.059,276.874 Q461.999,275.059 461.999,273.849 L461.636,273.849 Q459.216,281.472 453.287,285.162 Q447.358,288.853 440.582,288.853 Q437.194,288.853 433.866,287.885 Q430.539,286.917 427.877,284.981 Q425.215,283.045 423.581,280.02 Q421.948,276.995 421.948,272.881 Q421.948,266.952 425.033,263.322 Q428.119,259.692 432.717,257.695 Q437.315,255.699 442.578,255.094 Q447.842,254.489 452.198,254.489 L461.878,254.489 L461.878,250.012 Q461.878,240.695 456.917,236.399 Q451.956,232.104 443.97,232.104 Q439.009,232.104 434.713,233.919 Q430.418,235.734 427.03,238.759 L425.578,236.702 Q429.45,233.314 434.35,231.559 Q439.251,229.805 443.97,229.805 Q453.529,229.805 459.034,234.705 Q464.54,239.606 464.54,250.133 z M461.878,256.788 L453.287,256.788 Q448.689,256.788 443.607,257.332 Q438.525,257.877 434.29,259.571 Q430.055,261.265 427.332,264.411 Q424.61,267.557 424.61,272.881 Q424.61,276.753 426.122,279.354 Q427.635,281.956 429.994,283.529 Q432.354,285.102 435.197,285.828 Q438.041,286.554 440.582,286.554 Q446.753,286.554 450.867,284.255 Q454.981,281.956 457.461,278.386 Q459.942,274.817 460.91,270.521 Q461.878,266.226 461.878,262.112 z" fill-opacity="0" stroke="#F9F9F9" stroke-width="1"/>
    </g>
    <g>
      <path d="M190.979,246.866 Q193.399,238.638 199.207,234.221 Q205.015,229.805 212.396,229.805 Q217.962,229.805 221.774,231.862 Q225.585,233.919 227.824,237.307 Q230.062,240.695 231.03,244.93 Q231.998,249.165 231.998,253.521 L232.038,322.7 L229.288,322.7 L229.336,253.763 Q229.336,250.375 228.55,246.503 Q227.763,242.631 225.827,239.485 Q223.891,236.339 220.624,234.221 Q217.357,232.104 212.396,232.104 Q208.04,232.104 204.229,233.979 Q200.417,235.855 197.574,239.364 Q194.73,242.873 193.036,247.894 Q191.342,252.916 191.342,259.329 L191.342,287.159 L188.68,287.159 L188.68,253.763 Q188.68,250.375 188.015,246.503 Q187.349,242.631 185.534,239.485 Q183.719,236.339 180.513,234.221 Q177.306,232.104 172.345,232.104 Q167.989,232.104 164.178,233.979 Q160.366,235.855 157.523,239.364 Q154.679,242.873 153.046,247.894 Q151.412,252.916 151.412,259.329 L151.412,287.159 L148.75,287.159 L148.75,245.535 Q148.75,244.204 148.69,242.268 Q148.629,240.332 148.569,238.335 Q148.508,236.339 148.387,234.524 Q148.266,232.709 148.145,231.499 L150.807,231.499 Q150.928,232.709 150.989,234.524 Q151.049,236.339 151.11,238.456 Q151.17,240.574 151.231,242.57 Q151.291,244.567 151.291,246.14 L151.533,246.14 Q152.743,242.268 154.921,239.243 Q157.099,236.218 159.822,234.1 Q162.544,231.983 165.751,230.894 Q168.957,229.805 172.345,229.805 Q176.701,229.805 179.908,231.136 Q183.114,232.467 185.292,234.766 Q187.47,237.065 188.801,240.15 Q190.132,243.236 190.737,246.866 z" fill="#F9F9F9"/>
      <path d="M190.979,246.866 Q193.399,238.638 199.207,234.221 Q205.015,229.805 212.396,229.805 Q217.962,229.805 221.774,231.862 Q225.585,233.919 227.824,237.307 Q230.062,240.695 231.03,244.93 Q231.998,249.165 231.998,253.521 L232.038,322.7 L229.288,322.7 L229.336,253.763 Q229.336,250.375 228.55,246.503 Q227.763,242.631 225.827,239.485 Q223.891,236.339 220.624,234.221 Q217.357,232.104 212.396,232.104 Q208.04,232.104 204.229,233.979 Q200.417,235.855 197.574,239.364 Q194.73,242.873 193.036,247.894 Q191.342,252.916 191.342,259.329 L191.342,287.159 L188.68,287.159 L188.68,253.763 Q188.68,250.375 188.015,246.503 Q187.349,242.631 185.534,239.485 Q183.719,236.339 180.513,234.221 Q177.306,232.104 172.345,232.104 Q167.989,232.104 164.178,233.979 Q160.366,235.855 157.523,239.364 Q154.679,242.873 153.046,247.894 Q151.412,252.916 151.412,259.329 L151.412,287.159 L148.75,287.159 L148.75,245.535 Q148.75,244.204 148.69,242.268 Q148.629,240.332 148.569,238.335 Q148.508,236.339 148.387,234.524 Q148.266,232.709 148.145,231.499 L150.807,231.499 Q150.928,232.709 150.989,234.524 Q151.049,236.339 151.11,238.456 Q151.17,240.574 151.231,242.57 Q151.291,244.567 151.291,246.14 L151.533,246.14 Q152.743,242.268 154.921,239.243 Q157.099,236.218 159.822,234.1 Q162.544,231.983 165.751,230.894 Q168.957,229.805 172.345,229.805 Q176.701,229.805 179.908,231.136 Q183.114,232.467 185.292,234.766 Q187.47,237.065 188.801,240.15 Q190.132,243.236 190.737,246.866 z" fill-opacity="0" stroke="#F9F9F9" stroke-width="1"/>
    </g>
    <path d="M510.1,301.319 L145.144,301.319" fill-opacity="0" stroke="#F9F9F9" stroke-width="2.7" id="hr-bottom"/>
    <path d="M373.274,218.319 L8.318,218.319" fill-opacity="0" stroke="#F9F9F9" stroke-width="2.7" id="hr-top"/>
  </g>
</svg>
