<svg version="1.1" xmlns="http://www.w3.org/2000/svg" xmlns:xlink="http://www.w3.org/1999/xlink" width="200" height="200" viewBox="0, 0, 200, 200">
  <g id="binoculars">
    <path d="M53.72,59.378 L143.776,59.378 L143.776,83.933 L53.72,83.933 z" fill="#EABB4A"/>
    <path d="M58.31,128.395 C58.31,113.553 46.265,101.524 31.429,101.524 C16.587,101.524 4.553,113.553 4.553,128.395 C4.553,143.242 16.587,155.281 31.429,155.281 C46.265,155.281 58.31,143.242 58.31,128.395" fill="#53B0B6"/>
    <path d="M193.393,128.395 C193.393,113.553 181.348,101.524 166.517,101.524 C151.664,101.524 139.636,113.553 139.636,128.395 C139.636,143.242 151.664,155.281 166.517,155.281 C181.348,155.281 193.393,143.242 193.393,128.395" fill="#53B0B6"/>
    <path d="M167.907,152.209 C155.022,152.209 144.569,141.762 144.569,128.876 C144.569,115.996 155.022,105.537 167.907,105.537 C180.798,105.537 191.241,115.996 191.241,128.876 C191.241,141.762 180.798,152.209 167.907,152.209 z M122.176,78.418 C120.68,78.429 79.052,78.429 77.556,78.418 C66.088,78.365 60.06,77.519 60.06,75.246 C60.06,73.432 64.459,65.951 68.129,63.37 C70.429,61.758 129.304,61.758 131.609,63.37 C135.268,65.951 139.667,73.432 139.667,75.246 C139.667,77.519 133.655,78.365 122.176,78.418 z M31.82,152.209 C18.94,152.209 8.486,141.762 8.486,128.876 C8.486,115.996 18.94,105.537 31.82,105.537 C44.716,105.537 55.153,115.996 55.153,128.876 C55.153,141.762 44.716,152.209 31.82,152.209 z M196.38,109.963 C189.306,92.388 152.5,38.578 136.87,38.652 C127.152,38.694 123.393,43.199 122.256,44.351 C120.019,46.614 118.882,50.881 118.512,56.359 C116.699,56.412 115.001,56.497 113.616,56.539 C112.025,56.571 87.713,56.571 86.111,56.539 C84.72,56.497 83.039,56.412 81.215,56.359 C80.85,50.881 79.708,46.614 77.477,44.351 C76.345,43.199 72.581,38.694 62.868,38.652 C47.233,38.578 10.432,92.388 3.347,109.963 C-4.827,130.267 2.485,152.336 19.685,159.263 C36.88,166.179 57.443,155.334 65.628,135.025 C67.256,130.959 69.249,124.979 71.37,117.455 C71.423,117.275 71.962,116.773 72.158,116.773 C74.188,116.784 85.122,115.578 99.869,115.568 C114.6,115.578 125.555,116.784 127.575,116.773 C127.765,116.773 128.31,117.275 128.368,117.455 C130.488,124.979 132.476,130.959 134.11,135.025 C142.29,155.334 162.842,166.179 180.053,159.263 C197.237,152.336 204.554,130.267 196.38,109.963" fill="#374C5A"/>
  </g>
</svg>
