<svg version="1.1" xmlns="http://www.w3.org/2000/svg" xmlns:xlink="http://www.w3.org/1999/xlink" width="200" height="170" viewBox="0, 0, 200, 170">
  <g id="briefcase">
    <path d="M6.716,40.56 L193.166,40.56 L193.166,127.01 L6.716,127.01 z" fill="#1C3038"/>
    <path d="M71.431,30.207 L71.431,14.99 L128.559,14.99 L128.559,30.197 C110.026,30.197 89.99,30.197 71.431,30.207 z M194.541,30.207 C187.972,30.197 167.663,30.192 142.618,30.197 L142.618,12.889 C142.618,6.377 137.336,1.09 130.819,1.09 L69.171,1.09 C62.659,1.09 57.372,6.377 57.372,12.889 L57.372,30.212 C32.677,30.212 12.538,30.223 5.583,30.223 C0.214,30.223 0.09,33.59 0.101,34.964 C0.101,38.583 0.101,46.053 0.101,55.7 C25.841,78.66 61.099,92.828 99.992,92.828 C138.896,92.828 174.129,78.66 199.869,55.705 C199.879,45.378 199.889,37.595 199.9,34.46 C199.905,33.656 199.411,30.223 194.541,30.207" fill="#374C5A"/>
    <path d="M193.49,74.187 C171.472,90.763 144.034,101.522 113.964,104.107 C113.732,111.649 107.591,117.692 99.992,117.692 C92.415,117.692 86.258,111.649 86.026,104.107 C55.951,101.522 28.507,90.758 6.489,74.181 C6.479,108.174 6.469,154.305 6.469,164.452 C6.469,168.544 10.927,168.894 11.262,168.894 C31.138,168.894 166.216,168.905 188.152,168.91 C193.645,168.915 193.526,163.839 193.526,163.401 C193.511,151.623 193.49,107.124 193.49,74.187" fill="#374C5A"/>
    <path d="M194.541,30.207 C193.238,30.207 193.526,33.42 193.526,34.135 C193.526,37.059 193.521,44.359 193.511,54.032 C169.418,75.525 136.425,88.791 99.992,88.791 C63.576,88.791 30.561,75.515 6.464,54.012 C6.464,44.992 6.453,38.001 6.453,34.604 C6.453,33.384 6.896,30.223 5.583,30.223 C0.214,30.223 0.09,33.59 0.101,34.964 C0.101,38.583 0.101,46.053 0.101,55.7 C25.841,78.66 61.099,92.828 99.992,92.828 C138.896,92.828 174.129,78.66 199.869,55.705 C199.879,45.378 199.889,37.595 199.9,34.46 C199.905,33.656 199.411,30.223 194.541,30.207" fill="#516C7C"/>
    <path d="M107.483,104.39 C107.483,100.272 104.132,96.92 99.993,96.92 C95.874,96.92 92.518,100.272 92.518,104.39 C92.518,108.529 95.874,111.88 99.993,111.88 C104.132,111.88 107.483,108.529 107.483,104.39" fill="#EABF4C"/>
    <path d="M71.457,30.207 L71.457,14.99 L128.595,14.99 L128.595,30.197 C131.879,30.46 138.978,30.336 142.644,30.197 L142.644,12.889 C142.644,6.377 137.367,1.09 130.855,1.09 L69.202,1.09 C62.68,1.09 57.413,6.377 57.413,12.889 L57.413,30.212 C62.057,30.084 67.792,30.336 71.457,30.207" fill="#1C3038"/>
  </g>
</svg>
