<svg version="1.1" xmlns="http://www.w3.org/2000/svg" xmlns:xlink="http://www.w3.org/1999/xlink" width="200" height="200" viewBox="0, 0, 200, 200">
  <g id="tools">
    <path d="M78.727,80.978 L63.668,66.156 C68.06,54.43 65.513,40.689 56.022,31.351 C45.857,21.36 30.845,19.404 18.739,25.314 C28.093,34.737 35.417,42.124 36.645,43.421 C41.011,47.929 42.862,51.15 37.046,57.731 C37.046,57.731 36.45,58.442 36.145,58.732 C35.87,59.022 35.137,59.629 35.137,59.629 C28.467,65.365 25.299,63.457 20.827,59.059 C19.567,57.836 12.439,50.597 3.275,41.317 C-2.146,53.428 0.148,68.123 10.171,77.957 C19.673,87.321 33.455,89.646 45.092,85.054 L60.162,99.865 C69.389,91.049 71.914,88.523 78.727,80.978" fill="#E4E3E0"/>
    <path d="M196.655,32.659 C196.655,32.659 196.444,32.237 196.265,32.132 C196.139,31.989 195.738,31.752 195.738,31.752 C188.43,23.996 184.138,37.383 177.157,44.459 C174.942,46.674 163.116,58.453 147.008,74.767 C150.54,78.162 151.379,78.589 154.69,82.117 C170.671,65.993 182.219,54.446 184.423,52.226 C191.33,45.097 205.761,40.484 196.655,32.659" fill="#393939"/>
    <path d="M133.067,120.365 L102.121,152.259 C106.872,156.904 123.782,174.204 124.625,174.979 C129.286,179.303 133.214,180.489 145.943,168.272 C145.943,168.272 147.314,167.017 147.862,166.4 C148.468,165.82 149.692,164.444 149.692,164.444 C161.555,151.384 160.284,147.503 155.829,142.942 C155.054,142.136 137.781,124.941 133.067,120.365" fill="#393939"/>
    <path d="M60.409,112.582 C61.063,113.262 72.763,126.154 76.227,129.523 L108.433,96.669 C104.953,93.253 92.314,81.215 91.618,80.556 C88.17,77.371 85.117,75.911 78.616,80.287 L60.051,99.174 C55.495,106.071 57.051,109.15 60.409,112.582" fill="#393939"/>
    <path d="M139.489,68.012 C139.057,68.371 135.956,71.666 132.708,75.104 C131.965,75.879 131.221,76.612 130.525,77.34 C125.005,74.419 122.242,75.979 119.168,79.001 C117.338,80.772 103.313,95.457 88.634,110.768 C73.897,126.012 59.761,140.559 58.005,142.468 C53.729,147.182 52.558,151.089 64.838,163.764 C64.838,163.764 66.109,165.114 66.721,165.678 C67.317,166.253 68.693,167.492 68.693,167.492 C81.827,179.292 85.692,177.963 90.232,173.487 C92.072,171.705 106.092,157.02 120.771,141.724 C135.513,126.486 149.628,111.913 151.379,110.015 C154.184,106.956 155.634,104.199 152.871,99.1 C153.593,98.341 154.358,97.534 155.138,96.722 C158.449,93.342 161.608,90.1 161.977,89.667 C162.794,88.66 140.443,67.174 139.489,68.012" fill="#E4E3E0"/>
  </g>
</svg>
