<svg version="1.1" xmlns="http://www.w3.org/2000/svg" xmlns:xlink="http://www.w3.org/1999/xlink" width="200" height="200" viewBox="0, 0, 200, 200">
  <g id="dns">
    <path d="M167.799,153.313 C160.584,149.642 153.01,146.54 145.169,144.07 C148.923,132.219 151.244,119.767 151.932,106.878 L185.966,106.878 C184.606,124.316 178.017,140.307 167.799,153.313 z M126.925,181.956 C132.106,174.182 136.599,165.92 140.291,157.226 C146.34,159.09 152.163,161.355 157.812,164.02 C148.974,171.984 138.499,178.156 126.925,181.956 z M106.375,185.987 C106.226,186.007 106.108,186.018 105.949,186.048 L106.319,151.285 C113.22,151.609 119.967,152.41 126.555,153.734 C121.343,165.432 114.524,176.292 106.375,185.987 z M106.801,106.878 L137.909,106.878 C137.21,118.509 135.064,129.78 131.598,140.476 C123.438,138.71 115.063,137.6 106.462,137.236 L106.801,106.878 z M107.284,61.172 C115.7,60.772 123.942,59.637 131.926,57.912 C135.439,69.08 137.544,80.88 138.037,93.117 L106.935,93.117 L107.284,61.172 z M107.777,14.095 C108.085,14.116 108.388,14.152 108.686,14.183 C116.044,23.436 122.206,33.654 126.981,44.658 C120.619,45.937 114.098,46.795 107.407,47.149 L107.777,14.095 z M156.646,34.974 C151.49,37.336 146.165,39.369 140.702,41.095 C137.457,33.326 133.611,25.87 129.169,18.819 C139.346,22.481 148.615,28.006 156.646,34.974 z M185.966,93.117 L152.081,93.117 C151.557,79.637 149.298,66.631 145.472,54.312 C152.887,51.95 160.055,49.028 166.931,45.578 C177.648,58.769 184.57,75.186 185.966,93.117 z M93.692,47.185 C86.518,46.851 79.499,45.937 72.669,44.525 C77.958,33.49 84.659,23.246 92.608,14.106 C93.081,14.065 93.553,14.008 94.036,13.962 L93.692,47.185 z M93.199,93.117 L59.76,93.117 C60.659,80.803 63.195,68.926 67.185,57.696 C75.73,59.591 84.516,60.828 93.533,61.208 L93.199,93.117 z M92.716,137.287 C83.165,137.739 73.861,139.126 64.849,141.303 C61.65,130.345 59.786,118.817 59.452,106.878 L93.055,106.878 L92.716,137.287 z M92.203,185.915 C90.482,185.756 88.778,185.52 87.063,185.273 C79.976,175.912 74.015,165.637 69.506,154.597 C76.983,152.872 84.685,151.742 92.577,151.306 L92.203,185.915 z M42.183,164.02 C46.656,161.919 51.226,160.091 55.935,158.469 C58.831,165.74 62.302,172.708 66.225,179.358 C57.347,175.594 49.228,170.382 42.183,164.02 z M14.034,106.878 L45.403,106.878 C45.752,120.183 47.837,133.03 51.39,145.226 C44.792,147.495 38.363,150.166 32.206,153.313 C21.983,140.307 15.394,124.316 14.034,106.878 z M33.069,45.578 C39.652,48.9 46.517,51.683 53.624,53.994 C49.306,66.379 46.62,79.53 45.726,93.117 L14.034,93.117 C15.425,75.186 22.357,58.769 33.069,45.578 z M71.488,18.594 C66.682,25.644 62.42,33.1 58.831,40.93 C53.547,39.241 48.35,37.274 43.354,34.974 C51.524,27.847 61.059,22.27 71.488,18.594 z M179.06,38.81 C176.133,35.041 172.96,31.487 169.565,28.175 C155.244,14.332 136.851,4.729 116.28,1.361 C113.091,0.842 109.815,0.457 106.503,0.226 C104.357,0.087 102.195,0 99.997,0 C95.099,0 90.267,0.37 85.537,1.053 C64.248,4.128 45.172,13.926 30.44,28.175 C27.035,31.487 23.852,35.041 20.93,38.81 C7.826,55.719 0,76.947 0,99.992 C0,122.576 7.497,143.423 20.119,160.163 C22.974,163.948 26.085,167.532 29.449,170.859 C42.815,184.174 59.96,193.72 79.114,197.802 C85.84,199.225 92.839,200 99.997,200 C100.033,200 100.044,200 100.064,200 C104.639,200 109.148,199.656 113.6,199.055 C135.685,196.046 155.516,185.848 170.546,170.859 C173.915,167.532 177.026,163.948 179.876,160.163 C192.518,143.423 200,122.576 200,99.992 C200,76.947 192.174,55.719 179.06,38.81" fill="#53B0B6"/>
  </g>
</svg>
