<svg version="1.1" xmlns="http://www.w3.org/2000/svg" xmlns:xlink="http://www.w3.org/1999/xlink" viewBox="0, 0, 200, 170">
  <g id="erd">
    <g>
      <path d="M142.323,-0 L36.171,-0 L36.171,170 L163.829,170 L163.829,21.502 L142.323,-0" fill="#363B43"/>
      <path d="M142.323,21.506 L163.829,21.506 L142.323,0 L142.323,21.506" fill="#20262F"/>
      <path d="M100,10.532 L121.276,21.17 L101.33,31.143 L101.33,42.446 L121.276,42.446 L121.276,74.36 L101.33,74.36 L101.33,85.663 L121.276,95.636 L101.33,105.613 L101.33,116.916 L121.276,116.916 L121.276,120.905 L131.914,120.905 L131.914,116.916 L153.19,116.916 L153.19,127.554 L131.914,127.554 L131.914,123.565 L121.276,123.565 L121.276,127.554 L101.33,127.554 L101.33,138.192 L121.276,138.192 L121.276,159.465 L78.724,159.465 L78.724,138.192 L98.67,138.192 L98.67,127.554 L78.724,127.554 L78.724,116.916 L98.67,116.916 L98.67,105.613 L78.724,95.636 L98.67,85.663 L98.67,74.36 L78.724,74.36 L78.724,59.733 L68.086,59.733 L68.086,69.041 L46.81,69.041 L46.81,47.765 L68.086,47.765 L68.086,57.073 L78.724,57.073 L78.724,42.446 L98.67,42.446 L98.67,31.143 L78.724,21.17 L100,10.532 z" fill="#EABF4C"/>
      <path d="M113.298,150.16 L113.298,152.82 L86.702,152.82 L86.702,150.16 L113.298,150.16 z" fill="#20262F"/>
      <path d="M97.34,144.841 L97.34,147.5 L86.702,147.5 L86.702,144.841 L97.34,144.841 z" fill="#20262F"/>
      <path d="M107.979,144.841 L107.979,147.5 L102.66,147.5 L102.66,144.841 L107.979,144.841 z" fill="#20262F"/>
      <path d="M115.625,120.905 L115.625,123.565 L104.987,123.565 L104.987,120.905 L115.625,120.905 z" fill="#20262F"/>
      <path d="M99.668,120.905 L99.668,123.565 L83.71,123.565 L83.71,120.905 L99.668,120.905 z" fill="#20262F"/>
      <path d="M147.539,120.905 L147.539,123.565 L136.901,123.565 L136.901,120.905 L147.539,120.905 z" fill="#20262F"/>
      <path d="M110.638,94.307 L110.638,96.966 L89.362,96.966 L89.362,94.307 L110.638,94.307 z" fill="#20262F"/>
      <path d="M94.349,65.052 L94.349,67.711 L83.71,67.711 L83.71,65.052 L94.349,65.052 z" fill="#20262F"/>
      <path d="M104.987,65.052 L104.987,67.711 L99.668,67.711 L99.668,65.052 L104.987,65.052 z" fill="#20262F"/>
      <path d="M57.448,59.733 L57.448,62.392 L52.128,62.392 L52.128,59.733 L57.448,59.733 z" fill="#20262F"/>
      <path d="M115.625,59.733 L115.625,62.392 L83.71,62.392 L83.71,59.733 L115.625,59.733 z" fill="#20262F"/>
      <path d="M99.668,54.414 L99.668,57.073 L83.71,57.073 L83.71,54.414 L99.668,54.414 z" fill="#20262F"/>
      <path d="M115.625,54.414 L115.625,57.073 L104.987,57.073 L104.987,54.414 L115.625,54.414 z" fill="#20262F"/>
      <path d="M62.767,54.414 L62.767,57.073 L52.128,57.073 L52.128,54.414 L62.767,54.414 z" fill="#20262F"/>
      <path d="M110.306,49.095 L110.306,51.754 L83.71,51.754 L83.71,49.095 L110.306,49.095 z" fill="#20262F"/>
      <path d="M106.316,19.84 L106.316,22.5 L93.019,22.5 L93.019,19.84 L106.316,19.84 z" fill="#20262F"/>
      <path d="M142.323,0 L163.829,21.506 L163.829,21.502 L142.323,0" fill="#20262F"/>
    </g>
  </g>
</svg>
