<?xml version="1.0" encoding="UTF-8"?>
<!DOCTYPE svg PUBLIC "-//W3C//DTD SVG 1.1//EN" "http://www.w3.org/Graphics/SVG/1.1/DTD/svg11.dtd">
<svg version="1.1" xmlns="http://www.w3.org/2000/svg" xmlns:xlink="http://www.w3.org/1999/xlink" x="0" y="0" width="200" height="200" viewBox="0, 0, 200, 200">
  <g id="eye">
    <path d="M99.218,6.778 C154.398,6.778 199.288,51.67 199.288,106.848 C199.288,143.855 179.082,176.211 149.137,193.524 L140.15,187.274 C169.462,172.269 189.758,141.977 189.758,106.848 C189.758,56.925 149.143,16.308 99.218,16.308 C52.439,16.308 13.991,52.105 9.313,97.67 L0.444,91.564 L0.444,90.843 C8.224,42.204 50.78,7.89 99.218,6.778 z" fill="url(#Gradient_1)"/>
    <path d="M190.673,105.893 C190.673,55.791 149.913,15.029 99.809,15.029 C49.707,15.029 8.946,55.791 8.946,105.893 C8.946,108.554 9.085,111.181 9.31,113.782 L18.764,119.607 C18.013,115.143 17.599,110.567 17.599,105.893 C17.599,60.564 54.478,23.683 99.809,23.683 C145.14,23.683 182.019,60.564 182.019,105.893 C182.019,142.797 157.577,174.093 124.034,184.458 L133.467,190.268 C166.949,176.863 190.673,144.108 190.673,105.893" fill="url(#Gradient_2)"/>
    <path d="M171.377,88.473 C172.769,94.121 173.522,100.017 173.522,106.089 C173.522,146.405 140.981,179.249 100.789,179.777 L116.198,186.845 C153.807,179.224 182.208,145.913 182.208,106.089 C182.208,101.505 181.663,96.95 180.94,92.568 L171.377,88.473" fill="url(#Gradient_3)"/>
    <path d="M26.099,106.089 C26.099,78.762 41.058,54.878 63.206,42.147 L53.487,37.986 C31.729,52.833 17.412,77.818 17.412,106.089 C17.412,120.719 21.261,134.458 27.974,146.378 L43.379,153.444 C32.606,140.626 26.099,124.106 26.099,106.089" fill="url(#Gradient_4)"/>
    <path d="M99.655,41.027 C135.571,41.027 164.79,70.245 164.79,106.162 C164.79,120.273 160.265,133.339 152.61,144.015 L158.023,151.275 C167.697,138.79 173.474,123.141 173.474,106.162 C173.474,65.457 140.359,32.341 99.655,32.341 C90.277,32.341 81.309,34.117 73.046,37.323 L78.463,44.585 C85.111,42.29 92.236,41.027 99.655,41.027" fill="url(#Gradient_5)"/>
    <path d="M99.723,49.713 C130.907,49.713 156.279,75.085 156.279,106.27 C156.279,121.733 150.037,135.76 139.948,145.98 L148.209,149.869 C158.618,138.304 164.965,123.015 164.965,106.27 C164.965,70.297 135.697,41.029 99.723,41.029 C67.005,41.029 39.843,65.238 35.191,96.683 L43.452,100.569 C46.318,72.05 70.461,49.713 99.723,49.713" fill="url(#Gradient_6)"/>
    <path d="M49.767,106.112 C49.767,78.83 71.961,56.636 99.243,56.636 C126.525,56.636 148.72,78.83 148.72,106.112 C148.72,110.511 148.134,114.774 147.052,118.837 L155.204,117.328 C155.93,113.698 156.317,109.951 156.317,106.112 C156.317,74.641 130.715,49.038 99.243,49.038 C67.771,49.038 42.169,74.641 42.169,106.112 C42.169,117.32 45.43,127.777 51.034,136.606 L59.183,135.098 C53.268,126.944 49.767,116.931 49.767,106.112" fill="url(#Gradient_7)"/>
    <path d="M141.32,97.895 C141.808,100.491 142.075,103.165 142.075,105.901 C142.075,129.765 122.659,149.18 98.795,149.18 C81.587,149.18 67.455,138.914 60.485,124.336 L54.128,126.408 C62.006,143.643 78.64,155.829 98.795,155.829 C126.325,155.829 148.723,133.43 148.723,105.901 C148.723,102.447 148.369,99.073 147.698,95.816 L141.32,97.895" fill="url(#Gradient_8)"/>
    <path d="M98.261,67.912 C119.198,67.912 136.231,84.945 136.231,105.882 C136.231,107.896 136.027,109.858 135.724,111.789 L141.505,112.839 C141.867,110.572 142.063,108.251 142.063,105.882 C142.063,81.731 122.414,62.08 98.261,62.08 C77.092,62.08 59.383,77.178 55.332,97.173 L61.072,98.215 C64.626,80.94 79.951,67.912 98.261,67.912" fill="url(#Gradient_9)"/>
    <path d="M128.719,107.161 C128.719,124.005 115.064,137.658 98.221,137.658 C81.379,137.658 67.724,124.005 67.724,107.161 C67.724,90.318 81.379,76.663 98.221,76.663 C115.064,76.663 128.719,90.318 128.719,107.161" fill="#393939"/>
    <path d="M122.324,85.235 C122.324,88.832 119.408,91.748 115.811,91.748 C112.214,91.748 109.298,88.832 109.298,85.235 C109.298,81.638 112.214,78.722 115.811,78.722 C119.408,78.722 122.324,81.638 122.324,85.235" fill="#FFFFFE"/>
    <path d="M125.694,100.152 C125.694,102.879 123.481,105.092 120.751,105.092 C118.024,105.092 115.811,102.879 115.811,100.152 C115.811,97.422 118.024,95.209 120.751,95.209 C123.481,95.209 125.694,97.422 125.694,100.152" fill="#FFFFFE"/>
  </g>
  <defs>
    <linearGradient id="Gradient_1" gradientUnits="userSpaceOnUse" x1="0.33" y1="100.151" x2="199.288" y2="100.151">
      <stop offset="0" stop-color="#465D9A"/>
      <stop offset="1" stop-color="#3F4F90"/>
    </linearGradient>
    <linearGradient id="Gradient_2" gradientUnits="userSpaceOnUse" x1="8.946" y1="102.65" x2="190.673" y2="102.65">
      <stop offset="0" stop-color="#51BADE"/>
      <stop offset="1" stop-color="#219EC2"/>
    </linearGradient>
    <linearGradient id="Gradient_3" gradientUnits="userSpaceOnUse" x1="100.788" y1="137.659" x2="182.207" y2="137.659">
      <stop offset="0" stop-color="#33AA48"/>
      <stop offset="1" stop-color="#87C057"/>
    </linearGradient>
    <linearGradient id="Gradient_4" gradientUnits="userSpaceOnUse" x1="17.412" y1="95.715" x2="63.207" y2="95.715">
      <stop offset="0" stop-color="#33AA48"/>
      <stop offset="1" stop-color="#87C057"/>
    </linearGradient>
    <linearGradient id="Gradient_5" gradientUnits="userSpaceOnUse" x1="73.046" y1="91.808" x2="173.475" y2="91.808">
      <stop offset="0" stop-color="#F9EB3A"/>
      <stop offset="1" stop-color="#F7C02D"/>
    </linearGradient>
    <linearGradient id="Gradient_6" gradientUnits="userSpaceOnUse" x1="35.19" y1="95.448" x2="164.964" y2="95.448">
      <stop offset="0" stop-color="#EB8D2D"/>
      <stop offset="1" stop-color="#EC962F"/>
    </linearGradient>
    <linearGradient id="Gradient_7" gradientUnits="userSpaceOnUse" x1="42.168" y1="92.822" x2="156.317" y2="92.822">
      <stop offset="0" stop-color="#DA302A"/>
      <stop offset="1" stop-color="#E16044"/>
    </linearGradient>
    <linearGradient id="Gradient_8" gradientUnits="userSpaceOnUse" x1="54.128" y1="125.821" x2="148.722" y2="125.821">
      <stop offset="0" stop-color="#AE2444"/>
      <stop offset="1" stop-color="#C01F60"/>
    </linearGradient>
    <linearGradient id="Gradient_9" gradientUnits="userSpaceOnUse" x1="55.333" y1="87.46" x2="142.063" y2="87.46">
      <stop offset="0" stop-color="#AE4288"/>
      <stop offset="1" stop-color="#A32F80"/>
    </linearGradient>
  </defs>
</svg>
