<svg version="1.1" xmlns="http://www.w3.org/2000/svg" xmlns:xlink="http://www.w3.org/1999/xlink" width="200" height="200" viewBox="0, 0, 200, 200">
  <g id="chart">
    <path d="M41.556,98.137 L7.796,98.137 C7.796,98.137 4.772,97.96 4.72,100.989 C4.652,104.023 4.72,189.978 4.72,189.978 L44.449,189.978 C44.449,189.978 44.449,104.712 44.449,101.401 C44.449,98.106 41.556,98.137 41.556,98.137" fill="#E4E3E0"/>
    <path d="M92.257,70.706 C92.383,67.687 89.349,67.854 89.349,67.854 L55.583,67.854 C55.583,67.854 52.533,67.881 52.528,70.706 C52.512,72.043 52.528,189.978 52.528,189.978 L92.257,189.978 C92.257,189.978 92.221,71.849 92.257,70.706" fill="#E4E3E0"/>
    <path d="M138.896,40.459 C138.807,37.488 135.856,37.681 135.856,37.681 L102.211,37.681 C102.211,37.681 99.177,37.431 99.161,40.256 C99.14,42.057 99.161,189.978 99.161,189.978 L138.896,189.978 C138.896,189.978 138.943,42.365 138.896,40.459" fill="#E4E3E0"/>
    <path d="M199.503,52.711 C199.503,52.711 177.08,4.945 175.978,2.507 C175.048,0.48 173.309,1.33 172.803,2.425 C172.301,3.527 150.624,52.893 150.624,52.893 C150.624,52.893 149.141,55.336 152.061,55.336 C152.969,55.336 157.283,55.336 162.949,55.348 C162.949,55.348 162.949,167.884 162.949,172.484 C162.933,177.078 159.58,176.808 159.58,176.808 L3.827,176.808 C3.827,176.808 0.385,176.351 0.317,179.65 C0.224,182.972 0.317,196.496 0.317,196.496 C0.317,196.496 -0.194,200.018 3.733,200 C6.213,199.988 178.301,200 182.584,200 C187.257,200 187.012,195.594 187.012,195.594 L187.028,55.383 C192.312,55.377 196.386,55.36 197.467,55.336 C200.715,55.242 199.503,52.711 199.503,52.711" fill="#393939"/>
  </g>
</svg>
