<svg version="1.1" xmlns="http://www.w3.org/2000/svg" xmlns:xlink="http://www.w3.org/1999/xlink" width="200" height="200" viewBox="0, 0, 200, 200">
  <g id="irs-rep">
    <g>
      <path d="M69.239,32.566 L130.478,32.566 L130.478,61.876 L69.239,61.876 z" fill="#393939"/>
      <path d="M128.966,57.486 C128.966,59.89 127.02,59.89 127.02,59.89 L104.88,59.89 C104.88,59.89 103.062,59.635 102.991,57.746 C102.976,56.941 102.965,54.827 102.976,52.632 L102.955,52.632 C102.247,51.828 101.239,51.308 100.103,51.308 C99.018,51.308 98.076,51.797 97.389,52.525 C97.389,54.512 97.414,56.447 97.414,57.486 C97.414,59.89 95.463,59.89 95.463,59.89 L73.319,59.89 C73.319,59.89 71.495,59.635 71.439,57.746 C71.373,55.846 71.439,46.607 71.439,46.607 C71.439,46.607 71.439,44.514 73.619,44.463 C75.799,44.397 94.572,44.397 95.575,44.463 C96.584,44.514 97.46,44.463 97.414,46.164 C97.414,46.251 97.389,46.378 97.389,46.505 L103.006,46.505 C103.052,46.088 103.276,44.504 105.186,44.463 C107.361,44.397 126.159,44.397 127.147,44.463 C128.151,44.514 129.037,44.463 128.966,46.164 C128.92,47.88 128.966,55.082 128.966,57.486 z M137.909,29.449 C137.094,27.671 135.979,26.041 134.894,24.681 C134.69,24.294 134.497,23.912 134.278,23.546 C133.855,22.817 133.412,22.125 132.948,21.427 L137.293,23.449 C137.293,23.449 138.204,15.331 130.6,9.85 C128.823,8.516 125.579,8.287 123.684,7.925 C122.767,5.756 120.475,2.567 114.878,0.8 C107.967,-1.471 103.322,1.64 101.427,3.362 C101.076,3.362 100.76,3.336 100.424,3.336 C100.2,3.336 99.996,3.352 99.782,3.362 C99.375,2.888 98.754,2.359 97.806,1.997 C88.022,0.362 81.162,6.148 77.51,10.507 C76.482,10.441 72.275,10.696 65.17,18.173 C61.218,22.323 65.338,22.115 65.338,22.115 C65.338,22.115 61.88,25.685 61.518,30.106 C61.294,32.998 62.272,33.992 62.985,34.333 C62.751,40.068 63.678,46.327 64.146,52.337 C66.275,79.35 78.468,101.505 100.424,101.505 C122.38,101.505 134.919,79.361 136.845,52.337 C137.201,47.58 137.619,43.123 137.649,38.957 C138.108,38.076 140.033,34.002 137.909,29.449" fill="#53B0B6"/>
      <path d="M80.485,103.782 C80.485,103.782 103.694,99.509 122.503,104.51 C141.311,109.517 144.489,118.068 144.489,118.068 L124.086,171.565 L104.789,186.228 L71.694,175.227 L57.775,146.049 L58.376,124.913 L65.094,116 L80.485,103.782" fill="#FFFFFE"/>
      <path d="M111.242,108.844 L101.346,108.778 L100.959,108.778 L91.058,108.844 L94.699,127.327 L96.711,127.327 L94.75,192.972 L107.544,192.972 L105.599,127.327 L107.59,127.327 L111.242,108.844" fill="#E4695D"/>
      <path d="M181.791,189.788 C179.886,166.946 178.913,144.078 178.17,126.191 C178.047,123.37 175.399,113.897 171.651,112.292 C163.517,108.804 152.709,108.06 139.967,105.895 C139.299,105.783 128.085,104.408 117.949,103.405 C117.949,103.395 117.949,103.395 117.949,103.395 C117.919,103.395 117.893,103.395 117.878,103.395 L135.938,125.056 L126.888,130.602 L136.279,135.125 L100.195,184.395 L100.2,184.476 L100.19,184.512 L100.159,184.476 L100.18,184.395 L64.1,135.125 L73.492,130.602 L64.442,125.056 L82.507,103.395 C72.346,104.398 61.075,105.783 60.408,105.895 C47.66,108.06 36.858,108.804 28.709,112.292 C24.97,113.897 22.322,123.37 22.205,126.191 C21.456,144.236 19.322,167.746 18.171,190.782 C17.774,198.788 27.181,199.801 27.181,199.801 L173.586,200 C173.586,200 182.59,199.399 181.791,189.788" fill="#393939"/>
    </g>
  </g>
</svg>
