<svg version="1.1" xmlns="http://www.w3.org/2000/svg" xmlns:xlink="http://www.w3.org/1999/xlink" width="460" height="320" viewBox="0, 0, 460, 320">
  <g id="HTML5">
    <g id="badge">
      <path d="M117.436,284.864 L92.39,3.935 L367.61,3.935 L342.537,284.82 L229.832,316.065 z" fill="#D54343"/>
      <path d="M230,292.182 L321.072,266.934 L342.498,26.905 L230,26.905 z" fill="#E46A5D"/>
      <path d="M230,131.097 L184.407,131.097 L181.259,95.815 L230,95.815 L230,61.36 L229.881,61.36 L143.604,61.36 L144.429,70.604 L152.897,165.552 L230,165.552 z" fill="#EBEBEB"/>
      <path d="M230,220.58 L229.849,220.62 L191.477,210.259 L189.023,182.78 L170.377,182.78 L154.436,182.78 L159.263,236.879 L229.841,256.472 L230,256.428 z" fill="#EBEBEB"/>
      <path d="M229.881,131.097 L229.881,165.552 L272.308,165.552 L268.309,210.237 L229.881,220.609 L229.881,256.455 L300.515,236.879 L301.033,231.058 L309.13,140.349 L309.97,131.097 L300.686,131.097 z" fill="#FFFFFF"/>
      <path d="M229.881,61.36 L229.881,82.76 L229.881,95.731 L229.881,95.815 L312.995,95.815 L312.995,95.815 L313.106,95.815 L313.797,88.071 L315.367,70.604 L316.191,61.36 z" fill="#FFFFFF"/>
    </g>
  </g>
  <g id="tech">
    <g id="semantics">
      <path d="M47.832,16.404 L10.323,35.36 L10.323,47.826 L47.832,28.87 L85.323,47.826 L85.323,35.36 z" fill="#393939" id="chevron"/>
      <path d="M47.832,38.163 L10.323,57.119 L10.323,69.585 L47.832,50.629 L85.323,69.585 L85.323,57.119 z" fill="#393939" id="chevron"/>
      <path d="M47.832,59.928 L10.323,78.884 L10.323,91.35 L47.832,72.394 L85.323,91.35 L85.323,78.884 z" fill="#393939" id="chevron"/>
    </g>
    <path d="M21.485,126.056 L18.967,138.647 L70.214,138.647 L68.615,146.78 L17.333,146.78 L14.849,159.37 L66.097,159.37 L63.238,173.731 L42.583,180.571 L24.683,173.731 L25.908,167.503 L13.318,167.503 L10.323,182.612 L39.928,193.944 L74.06,182.612 L78.585,159.881 L79.504,155.321 L85.323,126.056 z" fill="#393939" id="css3"/>
    <path d="M450.216,126.056 L433.676,126.056 L421.972,137.73 L438.512,137.73 z M412.824,137.73 L424.497,126.056 L407.957,126.056 L396.253,137.73 z M438.543,171.826 L386.921,171.826 L386.921,137.853 L398.748,126.056 L382.177,126.056 L375.247,132.986 L375.247,183.53 L450.247,183.53 L450.247,137.73 L438.543,137.73 z" fill="#393939" id="multimedia"/>
    <path d="M431.626,58.78 L440.936,58.78 L440.936,36.425 L430.447,25.935 L423.863,32.519 L431.626,40.282 L431.626,58.78 z M440.961,63.447 L427.401,63.447 L408.485,63.447 L400.722,55.685 L404.014,52.393 L410.426,58.804 L423.617,58.804 L410.622,45.784 L413.938,42.468 L426.934,55.463 L426.934,42.272 L420.547,35.884 L423.814,32.617 L407.674,16.404 L391.755,16.404 L391.755,16.404 L375.247,16.404 L384.533,25.69 L384.533,25.714 L384.582,25.714 L403.793,25.714 L410.597,32.519 L400.648,42.468 L393.843,35.663 L393.843,30.382 L384.533,30.382 L384.533,39.52 L400.648,55.635 L394.089,62.195 L404.579,72.684 L420.498,72.684 L450.247,72.684 L450.247,72.684 L440.961,63.447 z" fill="#393939" id="connectivity"/>
    <path d="M50.977,227.544 L31.712,233.757 L73.458,247.277 L73.458,273.911 L45.637,282.904 L22.157,275.317 L22.157,249.213 L44.857,256.551 L64.122,250.337 L22.313,236.786 L10.323,240.689 L10.323,283.934 L45.637,295.362 L85.323,282.529 L85.323,238.628 z" fill="#393939" id="graphics"/>
    <path d="M450.247,247.69 L438.057,247.69 C433.059,235.679 421.15,227.544 407.914,227.544 C389.91,227.544 375.247,242.182 375.247,260.211 C375.247,278.241 389.91,292.904 407.914,292.904 C421.15,292.904 433.033,284.795 438.057,272.758 L450.221,272.758 L450.221,247.69 z M440.556,263.042 L407.914,263.042 C406.359,263.042 405.084,261.792 405.084,260.211 C405.084,258.656 406.333,257.381 407.914,257.381 L440.531,257.381 L440.531,263.042 z M407.914,283.214 C395.24,283.214 384.938,272.911 384.938,260.237 C384.938,247.563 395.24,237.26 407.914,237.26 C415.769,237.26 422.986,241.34 427.168,247.716 L407.914,247.716 C401.029,247.716 395.393,253.326 395.393,260.237 C395.393,267.122 401.004,272.758 407.914,272.758 L427.168,272.758 C423.011,279.133 415.794,283.214 407.914,283.214 z" fill="#393939" id="offline"/>
  </g>
</svg>
