<svg version="1.1" xmlns="http://www.w3.org/2000/svg" xmlns:xlink="http://www.w3.org/1999/xlink" width="200" height="200" viewBox="0, 0, 200, 200">
  <g id="computer">
    <g id="notebook">
      <path d="M26.175,130.189 L178.51,129.157 L193.589,173.348 L195.149,190.515 L6.93,192.065 L4.857,176.986 L26.175,130.189" fill="#393939"/>
      <path d="M190.372,187.647 C189.531,187.729 188.9,187.709 188.9,187.709 C188.9,187.709 16.262,187.93 9.88,187.709 C9.844,187.709 9.829,187.699 9.808,187.699 L8.777,181.578 C34.128,181.639 171.143,181.573 191.383,181.557 L190.372,187.647 z M25.677,134.206 L174.667,134.206 L184.39,159.906 L15.596,159.731 L25.677,134.206 z M199.341,175.58 C196.534,168.848 183.656,136.263 181.655,131.071 C179.87,126.454 173.544,126.895 173.544,126.895 L25.703,126.895 C25.703,126.895 20.295,125.971 18.043,131.102 C15.79,136.222 0.414,175.431 0.414,175.431 C0.414,175.431 -0.089,177.258 0.291,179.048 L1.968,189.043 C2.384,191.013 1.876,194.122 6.648,194.189 C13.261,194.292 192.086,194.189 192.086,194.189 C192.086,194.189 196.965,194.8 197.838,189.464 L199.526,179.602 C199.859,178.279 200.121,177.437 199.341,175.58" fill="#DFDED8"/>
      <path d="M21.388,15.805 L174.247,15.805 L174.247,113.555 L21.388,113.555 z" fill="#FFFFFE"/>
      <path d="M29.515,24.917 C29.566,19.961 34.379,20.099 34.379,20.099 L165.406,20.099 C165.406,20.099 170.44,19.545 170.486,24.64 C170.522,29.735 170.44,97.327 170.486,102.97 C170.522,108.609 164.339,108.204 164.339,108.204 L34.24,108.204 C34.24,108.204 29.474,108.342 29.515,102.693 C29.566,97.044 29.474,29.873 29.515,24.917 z M16.211,115.417 C16.288,123.113 17.309,127.192 27.935,127.28 C30.28,127.29 169.716,127.29 172.061,127.28 C182.682,127.192 183.713,123.113 183.8,115.417 C183.826,112.56 183.81,90.056 183.769,66.532 C183.81,43.008 183.826,20.5 183.8,17.652 C183.713,9.956 182.682,5.846 172.061,5.769 C169.716,5.769 162.785,5.769 153.514,5.769 C153.493,5.769 153.473,5.769 153.462,5.769 C151.487,5.769 146.32,5.769 139.276,5.769 C136.331,5.769 129.923,5.769 121.616,5.769 C121.601,5.769 121.58,5.769 121.56,5.769 C118.958,5.759 110.765,5.769 100,5.79 C89.226,5.769 81.037,5.759 78.436,5.769 C78.416,5.769 78.405,5.769 78.38,5.769 C70.083,5.769 63.665,5.769 60.72,5.769 C53.675,5.769 48.504,5.769 46.539,5.769 C46.518,5.769 46.503,5.769 46.477,5.769 C37.211,5.769 30.29,5.769 27.935,5.769 C17.309,5.846 16.288,9.956 16.211,17.652 C16.175,20.5 16.201,43.008 16.227,66.532 C16.201,90.056 16.175,112.56 16.211,115.417" fill="#393939"/>
      <path d="M37.467,25.349 L163.857,25.349 L163.857,66.12 L37.467,66.12 z" fill="#00ADC4" id="ui-blue"/>
      <path d="M41.091,74.274 L68.272,74.274 L68.272,101.455 L41.091,101.455 z" fill="#E4695D" id="ui-ruby"/>
      <path d="M87.072,74.274 L114.253,74.274 L114.253,101.455 L87.072,101.455 z" fill="#FFD600" id="ui-amber"/>
      <path d="M132.306,74.274 L159.487,74.274 L159.487,101.455 L132.306,101.455 z" fill="#5CC39C" id="ui-green"/>
    </g>
  </g>
</svg>
