<svg version="1.1" xmlns="http://www.w3.org/2000/svg" xmlns:xlink="http://www.w3.org/1999/xlink" width="200" height="200" viewBox="0, 0, 200, 200">
  <g id="pen">
    <g id="pen">
      <path d="M169.7,9.484 C165.736,13.424 166.162,20.273 170.628,24.704 L175.333,29.421 C179.8,33.887 186.642,34.284 190.571,30.308 L194.739,26.14 C198.691,22.187 198.265,15.363 193.793,10.914 L189.076,6.197 C184.593,1.737 177.791,1.381 173.839,5.321 L169.7,9.484" fill="#223A42"/>
      <path d="M4.553,193.674 C3.9,194.328 3.911,195.425 4.571,196.073 C5.219,196.721 6.293,196.721 6.947,196.067 L15.856,187.123 C16.527,186.464 16.527,185.39 15.862,184.736 C15.22,184.082 14.128,184.064 13.462,184.73 L4.553,193.674" fill="#223A42"/>
      <path d="M137.614,87.643 C135.798,89.459 136.014,92.559 138.058,94.602 C140.078,96.622 143.189,96.792 145.017,95.023 L192.054,47.81 C193.84,46.024 193.647,42.901 191.616,40.869 C189.567,38.832 186.449,38.645 184.645,40.449 L137.614,87.643" fill="#00838C"/>
      <path d="M18.039,153.893 L8.716,188.764 L11.915,191.963 L46.803,182.564 L18.039,153.893" fill="#DFDED8"/>
      <path d="M183.349,18.369 L174.446,9.49 C170.494,5.537 161.719,7.948 157.778,11.889 L20.322,149.778 C16.352,153.759 18.144,158.377 22.126,162.3 L30.755,170.905 L183.349,18.369" fill="#00A8B5"/>
      <path d="M30.755,170.905 L38.245,178.384 C42.174,182.313 46.821,184.111 50.761,180.159 L188.195,42.235 C192.159,38.295 194.517,29.502 190.582,25.568 L183.349,18.369 L30.755,170.905" fill="#85CCD1"/>
      <path d="M69.706,100.265 L100.163,130.582 L116.206,114.469 L85.778,84.123 L69.706,100.265" fill="#223A42"/>
      <path d="M96.847,101.777 L87.448,92.425 L78.194,101.725 L87.594,110.867 L96.847,101.777" fill="#85CCD1"/>
    </g>
  </g>
</svg>
