<svg version="1.1" xmlns="http://www.w3.org/2000/svg" xmlns:xlink="http://www.w3.org/1999/xlink" viewBox="0, 0, 200, 200">
  <g id="design">
    <g id="display">
      <path d="M17.081,-0 L182.972,-0 C192.365,-0 200.053,7.684 200.053,17.078 L200.053,153.886 C200.053,163.283 192.365,170.967 182.972,170.967 L17.081,170.967 C7.684,170.967 -0,163.283 -0,153.886 L-0,17.078 C-0,7.684 7.684,-0 17.081,-0" fill="#393939"/>
      <path d="M16.194,22.151 L183.859,22.151 C185.605,22.151 187.03,23.584 187.03,25.322 L187.03,152.562 C187.03,154.296 185.597,155.729 183.859,155.729 L16.194,155.729 C14.456,155.729 13.023,154.307 13.023,152.562 L13.023,25.322 C13.023,23.577 14.448,22.151 16.194,22.151" fill="#E4E3E0"/>
      <path d="M53.052,17.081 C56.245,17.081 58.852,14.478 58.852,11.281 C58.852,8.084 56.245,5.48 53.052,5.48 C49.855,5.48 47.248,8.084 47.248,11.281 C47.248,14.478 49.855,17.081 53.052,17.081" fill="#E4E3E0"/>
      <path d="M36.12,17.081 C39.313,17.081 41.92,14.478 41.92,11.281 C41.92,8.084 39.313,5.48 36.12,5.48 C32.923,5.48 30.315,8.084 30.315,11.281 C30.315,14.478 32.923,17.081 36.12,17.081" fill="#E4E3E0"/>
      <path d="M19.187,17.081 C22.384,17.081 24.988,14.478 24.988,11.281 C24.988,8.084 22.384,5.48 19.187,5.48 C15.991,5.48 13.387,8.084 13.387,11.281 C13.387,14.478 15.991,17.081 19.187,17.081" fill="#E4E3E0"/>
      <path d="M50.062,140.273 L57.459,140.273 L57.459,132.88 L50.062,132.88 z M133.571,132.567 C131.356,132.567 129.56,134.364 129.56,136.586 C129.56,138.797 131.356,140.593 133.571,140.593 C135.789,140.593 137.586,138.797 137.586,136.586 C137.586,134.364 135.789,132.567 133.571,132.567 z M36.014,35.123 C33.799,35.123 32.003,36.923 32.003,39.138 C32.003,41.352 33.799,43.149 36.014,43.149 C38.232,43.149 40.029,41.352 40.029,39.138 C40.029,36.923 38.232,35.123 36.014,35.123 z M32.323,122.072 L39.72,122.072 L39.72,114.679 L32.323,114.679 z M34.599,65.347 L35.159,65.347 C33.399,58.736 32.286,51.87 31.908,44.811 C30.246,43.564 29.173,41.574 29.173,39.338 C29.173,35.559 32.235,32.494 36.014,32.494 C39.796,32.494 42.862,35.559 42.862,39.338 C42.862,41.44 41.913,43.316 40.425,44.571 C41.749,68.067 51.899,89.309 67.595,105.005 C83.291,120.701 104.532,130.854 128.029,132.175 C129.283,130.687 131.16,129.738 133.262,129.738 C137.044,129.738 140.106,132.804 140.106,136.586 C140.106,140.364 137.044,143.43 133.262,143.43 C131.025,143.43 129.04,142.354 127.789,140.692 C120.734,140.31 113.864,139.201 107.253,137.437 L107.253,137.997 L104.412,137.997 L104.412,136.637 C103.46,136.353 102.514,136.051 101.576,135.742 L101.576,137.997 L98.735,137.997 L98.735,135.16 L99.863,135.16 C85.323,130.054 72.268,121.723 61.572,111.024 C50.881,100.332 42.542,87.276 37.439,72.737 L37.439,73.868 L34.599,73.868 L34.599,71.024 L36.858,71.024 C36.545,70.086 36.247,69.14 35.963,68.187 L34.599,68.187 L34.599,65.347 z M34.599,79.541 L37.439,79.541 L37.439,76.704 L34.599,76.704 z M34.599,85.222 L37.439,85.222 L37.439,82.385 L34.599,82.385 z M34.599,90.898 L37.439,90.898 L37.439,88.062 L34.599,88.062 z M34.599,96.579 L37.439,96.579 L37.439,93.742 L34.599,93.742 z M34.599,102.256 L37.439,102.256 L37.439,99.415 L34.599,99.415 z M34.599,107.936 L37.439,107.936 L37.439,105.096 L34.599,105.096 z M34.599,113.609 L37.439,113.609 L37.439,110.773 L34.599,110.773 z M93.055,137.997 L95.895,137.997 L95.895,135.16 L93.055,135.16 z M87.378,137.997 L90.215,137.997 L90.215,135.16 L87.378,135.16 z M81.698,137.997 L84.538,137.997 L84.538,135.16 L81.698,135.16 z M76.021,137.997 L78.861,137.997 L78.861,135.16 L76.021,135.16 z M70.344,137.997 L73.184,137.997 L73.184,135.16 L70.344,135.16 z M64.667,137.997 L67.504,137.997 L67.504,135.16 L64.667,135.16 z M58.987,137.997 L61.827,137.997 L61.827,135.16 L58.987,135.16 z" fill="#E4695D"/>
    </g>
    <g id="pen">
      <path d="M154.939,156.524 L143.076,163.373 C133.364,147.673 121.838,135.253 109.628,124.072 C108.993,123.491 108.774,122.672 109.025,121.812 C112.699,109.203 112.077,94.34 107.809,77.559 C106.147,77.881 104.393,77.139 103.5,75.593 C102.375,73.644 103.044,71.148 104.993,70.02 C106.945,68.896 109.441,69.565 110.566,71.513 C111.459,73.06 111.225,74.946 110.119,76.225 C122.514,88.311 135.074,96.288 147.831,99.407 C148.701,99.62 149.301,100.219 149.488,101.057 C153.064,117.225 158.058,133.416 166.798,149.677 L154.939,156.524" fill="#B98909"/>
      <path d="M166.677,135.742 L178.145,155.6 C180.409,159.521 179.052,164.584 175.135,166.849 L153.78,179.175 C149.863,181.436 144.799,180.083 142.536,176.162 L131.069,156.301 C128.805,152.38 130.157,147.323 134.082,145.057 L155.433,132.729 C159.358,130.463 164.417,131.822 166.677,135.742" fill="#BFB9BA"/>
      <path d="M130.755,111.546 C132.732,111.148 134.826,112.029 135.891,113.869 C137.224,116.182 136.432,119.138 134.122,120.472 C131.812,121.806 128.856,121.014 127.519,118.703 C126.458,116.86 126.746,114.604 128.078,113.093 L113.525,87.882 C113.101,87.147 113.355,86.2 114.09,85.775 C114.828,85.352 115.775,85.606 116.2,86.341 L130.755,111.546" fill="#2B2B2B"/>
      <path d="M177.319,146.744 L190.86,170.196 C193.529,174.82 191.927,180.799 187.304,183.468 L162.091,198.028 C157.464,200.696 151.487,199.098 148.815,194.471 L135.275,171.018 C132.606,166.391 134.207,160.419 138.835,157.744 L164.047,143.187 C168.674,140.519 174.65,142.12 177.319,146.744" fill="#5C5B5B"/>
    </g>
  </g>
</svg>
