<svg version="1.1" xmlns="http://www.w3.org/2000/svg" xmlns:xlink="http://www.w3.org/1999/xlink" viewBox="0, 0, 200, 200">
  <g id="rocket">
    <path d="M20.07,148.114 L55.489,132.961 L55.489,97.599 L27.459,116.093 L20.07,148.114" fill="#EB8B35"/>
    <path d="M179.93,148.114 L144.516,132.961 L144.516,97.599 L172.546,116.093 L179.93,148.114" fill="#EB8B35"/>
    <path d="M130.931,90.828 C130.931,74.778 117.931,61.768 101.887,61.768 C85.837,61.768 72.827,74.778 72.827,90.828 C72.827,106.873 85.837,119.877 101.887,119.877 C117.931,119.877 130.931,106.873 130.931,90.828" fill="#FFFFFE"/>
    <path d="M100.33,110.646 C88.924,110.646 79.683,101.405 79.683,90.005 C79.683,78.605 88.924,69.363 100.33,69.363 C111.73,69.363 120.971,78.605 120.971,90.005 C120.971,101.405 111.73,110.646 100.33,110.646 z M145.26,59.99 C145.16,26.101 120.259,0.588 100.72,0.012 C78.042,-0.663 55.352,26.454 55.352,61.05 C55.352,83.756 55.352,150.942 55.352,150.942 L145.26,150.942 C145.26,150.942 145.366,93.879 145.26,59.99" fill="#53B0B6"/>
    <path d="M123.769,161.625 L76.886,161.625 C72.864,165.657 69.47,170.307 69.47,175.859 C69.47,182.847 72.648,183.818 78.86,189.439 C79.145,189.687 84.982,174.577 85.351,174.809 C88.645,176.962 97.686,200 100.256,200 C100.282,200 100.309,200 100.33,200 C100.351,200 100.367,200 100.388,200 C102.979,200 112.01,176.962 115.308,174.809 C115.667,174.577 121.51,189.687 121.789,189.439 C128.007,183.818 131.179,182.847 131.179,175.859 C131.179,170.307 127.79,165.657 123.769,161.625" fill="#EABB4A"/>
  </g>
</svg>
