<?xml version="1.0" encoding="UTF-8"?>
<!DOCTYPE svg PUBLIC "-//W3C//DTD SVG 1.1//EN" "http://www.w3.org/Graphics/SVG/1.1/DTD/svg11.dtd">
<svg version="1.1" xmlns="http://www.w3.org/2000/svg" xmlns:xlink="http://www.w3.org/1999/xlink" x="0" y="0" width="200" height="200" viewBox="0, 0, 200, 200">
  <g id="thumbs-up">
    <path d="M66.812,172.819 C66.812,172.819 47.503,172.819 47.503,172.819 C21.509,172.819 0.437,151.769 0.437,125.803 C0.437,99.837 21.509,78.787 47.503,78.787 C47.503,78.787 66.812,78.787 66.812,78.787 C66.812,78.787 66.812,172.819 66.812,172.819 z" fill="#393939"/>
    <path d="M61.281,73.256 C61.281,73.256 94.469,73.256 94.469,73.256 C94.469,73.256 94.469,178.35 94.469,178.35 C94.469,178.35 61.281,178.35 61.281,178.35 C61.281,178.35 61.281,73.256 61.281,73.256 z" fill="#E4695D"/>
    <path d="M77.875,145.163 C82.457,145.163 86.172,148.877 86.172,153.46 C86.172,158.042 82.457,161.757 77.875,161.757 C73.292,161.757 69.578,158.042 69.578,153.46 C69.578,148.877 73.292,145.163 77.875,145.163 z" fill="#FFFFFF"/>
    <path d="M188.501,100.912 C188.501,100.912 196.798,103.678 196.798,111.975 C196.798,120.272 185.735,125.803 185.735,125.803 C185.735,125.803 191.266,128.021 191.266,136.866 C191.267,145.71 177.438,147.928 177.438,147.928 C177.438,147.928 185.735,150.694 185.735,158.991 C185.735,167.288 172.539,170.054 172.539,170.054 C172.539,170.054 94.469,170.054 94.469,170.054 C94.469,170.054 94.469,78.787 94.469,78.787 C94.469,78.787 108.297,78.787 108.297,78.787 C126.313,78.787 127.657,51.131 127.657,51.131 C127.657,51.131 127.657,34.548 127.657,31.771 C127.657,26.24 130.423,17.942 141.485,23.474 C152.547,29.005 152.547,39.338 152.547,51.131 C152.547,59.975 149.782,78.787 149.782,78.787 C149.782,78.787 176.49,78.787 188.501,78.787 C194.032,78.787 199.563,81.553 199.563,89.85 C199.563,98.147 188.501,100.912 188.501,100.912 z" fill="#53B0B6"/>
  </g>
</svg>
