<svg version="1.1" xmlns="http://www.w3.org/2000/svg" xmlns:xlink="http://www.w3.org/1999/xlink" width="500" height="500" viewBox="0, 0, 500, 500">
  <g id="background">
    <path d="M0,0 L500,0 L500,500 L0,500 L0,0 z" fill="#E4695D"/>
  </g>
  <g id="people">
    <path d="M72.013,232.456 L74.948,214.077 L72.013,232.456" fill="#FFFFFE"/>
    <path d="M75.949,214.238 L76.193,214.278 L73.276,232.647 L73.015,232.607 C72.138,232.07 72.421,232.456 72.186,231.433 L73.744,221.615 L74.79,215.062 C75.334,214.202 74.95,214.479 75.949,214.238 z" fill="#FFFFFE"/>
    <path d="M74.514,232.848 L77.442,214.472 L76.193,214.278 L73.276,232.647 L74.514,232.848" fill="#FFFFFE"/>
    <path d="M75.759,233.053 L78.694,214.669 L77.442,214.472 L74.514,232.848 L75.759,233.053" fill="#FFFFFE"/>
    <path d="M77.008,233.247 L79.933,214.87 L78.694,214.669 L75.759,233.053 L77.008,233.247" fill="#FFFFFE"/>
    <path d="M78.246,233.441 L81.164,215.068 L79.933,214.87 L77.008,233.247 L78.246,233.441" fill="#FDFDFD"/>
    <path d="M79.492,233.645 L82.42,215.262 L81.164,215.068 L78.246,233.441 L79.492,233.645" fill="#FBFBFA"/>
    <path d="M80.737,233.846 L83.668,215.463 L82.42,215.262 L79.492,233.645 L80.737,233.846" fill="#FAF9F9"/>
    <path d="M81.993,234.037 L84.914,215.661 L83.668,215.463 L80.737,233.846 L81.993,234.037" fill="#FAF9F8"/>
    <path d="M83.235,234.234 L86.152,215.855 L84.914,215.661 L81.993,234.037 L83.235,234.234" fill="#F8F7F7"/>
    <path d="M84.473,234.432 L87.401,216.063 L86.152,215.855 L83.235,234.234 L84.473,234.432" fill="#F7F7F5"/>
    <path d="M85.725,234.636 L88.653,216.253 L87.401,216.063 L84.473,234.432 L85.725,234.636" fill="#F5F6F5"/>
    <path d="M86.974,234.831 L89.895,216.451 L88.653,216.253 L85.725,234.637 L86.974,234.831" fill="#F5F4F3"/>
    <path d="M88.216,235.032 L91.144,216.648 L89.895,216.451 L86.974,234.831 L88.216,235.032" fill="#F5F4F3"/>
    <path d="M89.461,235.236 L92.389,216.853 L91.144,216.648 L88.216,235.032 L89.461,235.236" fill="#F4F3F2"/>
    <path d="M90.703,235.43 L93.631,217.054 L92.389,216.853 L89.461,235.236 L90.703,235.43" fill="#F3F1EF"/>
    <path d="M91.557,235.568 L94.485,217.188 L93.631,217.054 L90.703,235.43 L91.557,235.568" fill="#F3F1EF"/>
    <path d="M92.403,235.705 L95.338,217.322 L94.485,217.188 L91.557,235.568 L92.403,235.705" fill="#F4F3F2"/>
    <path d="M93.257,235.836 L96.192,217.46 L95.338,217.322 L92.403,235.705 L93.257,235.836" fill="#F5F4F3"/>
    <path d="M94.118,235.984 L97.042,217.597 L96.192,217.46 L93.257,235.836 L94.118,235.984" fill="#F5F4F3"/>
    <path d="M94.964,236.101 L97.896,217.728 L97.042,217.597 L94.118,235.984 L94.964,236.101" fill="#F5F6F5"/>
    <path d="M95.822,236.245 L98.75,217.869 L97.896,217.728 L94.964,236.101 L95.822,236.245" fill="#F7F7F5"/>
    <path d="M96.675,236.383 L99.611,218.003 L98.75,217.869 L95.822,236.245 L96.675,236.383" fill="#F8F7F7"/>
    <path d="M97.533,236.527 L100.457,218.137 L99.611,218.003 L96.675,236.383 L97.533,236.527" fill="#FAF9F8"/>
    <path d="M98.393,236.651 L101.311,218.282 L100.457,218.136 L97.533,236.526 L98.393,236.651" fill="#FAF9F9"/>
    <path d="M99.244,236.796 L102.168,218.412 L101.311,218.282 L98.393,236.651 L99.244,236.796" fill="#FBFBFA"/>
    <path d="M100.101,236.926 L103.022,218.543 L102.168,218.412 L99.244,236.796 L100.101,236.926" fill="#FDFDFD"/>
    <path d="M100.955,237.064 L103.883,218.68 L103.022,218.543 L100.101,236.926 L100.955,237.064" fill="#FFFFFE"/>
    <path d="M101.801,237.194 L104.722,218.825 L103.883,218.68 L100.955,237.064 L101.801,237.194" fill="#FFFFFE"/>
    <path d="M104.722,218.825 L105.424,218.926 L105.569,219.014 L102.664,237.274 L102.519,237.31 L101.801,237.194 L104.722,218.825 z" fill="#FFFFFE"/>
    <path d="M105.569,219.014 C106.311,219.467 106.045,219.136 106.277,220.073 L104.286,232.618 L103.675,236.457 C103.155,237.303 103.518,237.065 102.664,237.274 L105.569,219.014 z" fill="#FFFFFE"/>
    <path d="M106.433,219.09 L103.516,237.469 L106.433,219.09" fill="#FFFFFE"/>
    <path d="M106.207,220.084 C106.282,219.555 105.922,219.075 105.41,218.991 L75.953,214.299 C75.428,214.218 74.948,214.574 74.856,215.089 L72.253,231.454 C72.171,231.984 72.528,232.481 73.039,232.559 L102.503,237.251 C103.022,237.332 103.509,236.972 103.593,236.443 L106.207,220.084 M75.967,214.172 L105.431,218.867 C106.042,218.955 106.447,219.527 106.349,220.109 L103.745,236.471 C103.653,237.064 103.096,237.455 102.479,237.367 L73.018,232.668 C72.425,232.576 72.006,232.019 72.104,231.426 L74.708,215.068 C74.796,214.489 75.361,214.08 75.967,214.172" fill="#A8ABA8"/>
    <path d="M76.013,214.246 C75.463,214.154 74.941,214.539 74.849,215.089 L72.249,231.454 C72.157,232.012 72.542,232.537 73.089,232.619 L102.285,237.268 C102.842,237.367 103.375,236.99 103.449,236.422 L106.063,220.06 C106.151,219.506 105.763,218.984 105.213,218.896 L76.013,214.246" fill="#0B0C0A"/>
    <path d="M77.544,216.221 L75.188,231.095 L101.099,235.229 L103.47,220.345 L77.544,216.221" fill="#2EB7DE"/>
    <path d="M105.742,223.263 L104.154,233.268 L104.214,233.275 L105.812,223.263 L105.742,223.263" fill="#4A4B4B"/>
    <path d="M75.1,216.207 L84.677,216.207 L84.677,232.068 L75.1,232.068 L75.1,216.207 z" fill="#5F5E5B"/>
    <path d="M82.691,232.291 L81.273,232.068 L75.188,231.095 L77.544,216.221 L84.677,217.357 L93.797,218.811 C93.797,218.811 91.673,227.542 82.691,232.291" fill="#A2D7EA"/>
    <path d="M103.696,227.57 L103.124,227.983 L103.544,228.562 L104.119,228.142 L103.696,227.57" fill="#BCBEBB"/>
    <path d="M103.639,227.874 L103.421,228.029 L103.579,228.258 L103.802,228.092 L103.639,227.874" fill="#FFFFFE"/>
    <path d="M74.768,222.589 L74.493,222.787 L74.306,224.025 L74.5,224.311 L75.163,224.413 L75.438,224.215 L75.629,222.967 L75.438,222.684 L74.768,222.589" fill="#797A7A"/>
    <path d="M68.492,206.457 L82.254,207.787 L93.582,211.081 L97.021,215.371 L100.775,216.839 L101.202,218.472 L99.776,219.936 L84.625,215.643 L76.193,214.278 C76.193,214.278 74.768,214.08 74.63,215.364 L72.316,230.269 C72.316,230.269 71.473,236.312 70.863,235.914 L58.716,222.871 L57.051,218.37 L37.098,205.952 L47.145,190.927 L68.492,206.457" fill="#F7CFA2"/>
    <path d="M88.442,214.754 L92.209,217.791 L84.625,215.643 L76.486,214.285 L88.442,214.754" fill="#F2B38C"/>
    <path d="M92.036,237.815 L92.742,233.977 L91.239,232.04 L89.655,231.895 L88.572,233.437 L88.449,237.215 L89.443,238.076 L91.331,238.387 L92.036,237.815" fill="#F7CFA2"/>
    <path d="M72.514,229.003 L59.08,215.442 L39.846,201.839 L37.098,205.952 L57.178,218.754 L58.716,222.871 L70.863,235.914 L72.514,229.003" fill="#F2B38C"/>
    <path d="M91.775,234.506 L89.401,234.107 L89.641,232.587 L91.493,232.735 L91.775,234.506" fill="#FDF6D5"/>
    <path d="M101.202,218.472 L96.644,216.444 L97.021,215.371 L100.775,216.839 L101.202,218.472" fill="#FDF6D5"/>
    <path d="M78.973,207.257 L67.85,208.436 L61.807,214.003 L68.492,206.457 L78.973,207.257" fill="#F2B38C"/>
    <path d="M77.587,237.903 L73.276,232.647 L75.967,233.162 L77.587,237.903" fill="#F2B38C"/>
    <path d="M84.667,237.734 L80.518,233.793 L83.252,234.224 L84.667,237.734" fill="#F2B38C"/>
    <path d="M74.68,235.363 L74.694,230.788 L72.902,228.745 L71.014,229.073 L70.111,231.324 L70.863,235.914 L71.935,236.362 L74.031,236.203 L74.68,235.363" fill="#F7CFA2"/>
    <path d="M73.755,231.648 L71.131,231.85 L71.088,230.054 L73.113,229.719 L73.755,231.648" fill="#FDF6D5"/>
    <path d="M88.339,236.203 L86.911,231.846 L84.459,230.774 L82.896,231.588 L82.73,233.804 L84.667,237.734 L86.06,238.006 L87.994,237.201 L88.339,236.203" fill="#F7CFA2"/>
    <path d="M86.293,232.95 L83.866,233.977 L83.27,232.287 L85.08,231.338 L86.293,232.95" fill="#FDF6D5"/>
    <path d="M81.453,235.162 L80.024,230.812 L77.58,229.74 L76.013,230.551 L75.844,232.77 L77.587,237.903 L79.389,238.76 L81.435,237.649 L81.453,235.162" fill="#F7CFA2"/>
    <path d="M79.4,231.924 L76.98,232.95 L76.38,231.253 L78.197,230.297 L79.4,231.924" fill="#FDF6D5"/>
    <path d="M71.261,266.855 L85.877,262.607 L88.791,256.202 L89.077,255.398 L90.047,252.494 L91.13,251.411 L92.431,246.515 L84.632,250.085 L71.261,266.855" fill="#F2B38C"/>
    <path d="M46.415,287.324 L71.261,266.855 L85.877,262.607 L88.791,256.202 L86.304,255.962 L89.077,255.397 L90.22,252.16 L88.357,251.979 L91.13,251.412 L92.431,246.516 L90.357,246.318 L85.115,248.745 L96.661,241.055 L98.288,237.915 L97.55,235.851 L94.118,235.788 L81.696,242.984 L85.775,239.605 L85.739,235.639 L82.861,235.149 L81.118,238.126 L75.124,241.728 L65.208,247.055 L60.346,256.369 L37.066,275.295 L46.415,287.324" fill="#F7CFA2"/>
    <path d="M81.696,242.983 L67.913,245.834 L81.118,238.126 L82.861,235.148 L85.739,235.638 L85.775,239.604 L81.696,242.983" fill="#F2B38C"/>
    <path d="M88.791,256.202 L81.531,256.925 L89.077,255.399 L88.791,256.202" fill="#F2B38C"/>
    <path d="M90.047,252.494 L82.303,253.027 L90.653,251.45 L90.047,252.494" fill="#F2B38C"/>
    <path d="M94.717,241.357 L92.837,237.579 L96.443,237.018 L97.226,238.351 L94.717,241.357" fill="#FDF6D5"/>
    <path d="M38.827,277.7 L62.622,258.29 L71.131,244.035 L65.208,247.054 L60.346,256.368 L37.066,275.294 L38.827,277.7" fill="#F2B38C"/>
    <path d="M81.146,238.125 L82.187,238.683 L83.834,235.988 L82.797,235.039 L81.146,238.125" fill="#FDF6D5"/>
    <path d="M54.861,282.486 L61.031,278.726 L49.682,260.806 L44.26,262.851 L54.861,282.486" fill="#FFFFFE"/>
    <path d="M44.26,262.852 L54.861,282.487 L-0,312.245 L-0,280.726 L44.26,262.852 z" fill="#5D6E74"/>
    <path d="M53.065,191.887 L59.306,195.513 L48.338,213.671 L42.873,211.745 L53.065,191.887" fill="#FFFFFE"/>
    <path d="M0,163.93 L53.065,191.887 L42.873,211.744 L0,197.201 L0,163.93 z" fill="#5D6E74"/>
    <path d="M394.579,201.549 C394.579,199.863 396.357,198.491 398.576,198.491 L463.515,198.491 C465.719,198.491 467.504,199.863 467.504,201.549 L467.504,290.936 C467.504,292.637 465.719,294.016 463.515,294.016 L398.576,294.016 C396.357,294.016 394.579,292.63 394.579,290.936 L394.579,201.549" fill="#646566"/>
    <path d="M394.579,202.241 C394.579,200.537 396.357,199.161 398.576,199.161 L463.515,199.161 C465.719,199.161 467.504,200.537 467.504,202.241 L467.504,291.603 C467.504,293.299 465.719,294.675 463.515,294.675 L398.576,294.675 C396.357,294.675 394.579,293.299 394.579,291.603 L394.579,202.241" fill="#FFFFFE"/>
    <path d="M467.114,291.604 L467.114,202.249 C467.114,200.827 465.576,199.554 463.515,199.561 L398.576,199.554 C396.509,199.554 394.973,200.827 394.953,202.249 L394.953,291.604 C394.974,293.011 396.509,294.285 398.576,294.285 L463.515,294.285 C465.576,294.284 467.121,293.011 467.114,291.604 z M463.516,198.773 C465.859,198.773 467.883,200.234 467.905,202.248 L467.905,291.603 C467.884,293.603 465.859,295.07 463.516,295.07 L398.577,295.078 C396.227,295.07 394.203,293.603 394.188,291.603 L394.188,202.241 C394.203,200.234 396.22,198.773 398.577,198.773 L463.516,198.773" fill="#A8ABA8"/>
    <path d="M401.271,207.861 L460.312,207.861 L460.319,286.477 L401.271,286.477 L401.271,207.861" fill="#3EB9C5"/>
    <path d="M429.451,290.577 C429.451,289.744 430.125,289.081 430.961,289.081 C431.78,289.081 432.461,289.744 432.468,290.577 C432.468,291.416 431.78,292.086 430.961,292.086 C430.125,292.086 429.451,291.416 429.451,290.577" fill="#BCBEBB"/>
    <path d="M430.333,290.541 C430.333,290.234 430.601,289.956 430.926,289.956 C431.258,289.956 431.527,290.234 431.527,290.541 C431.527,290.873 431.258,291.141 430.926,291.141 C430.601,291.141 430.333,290.88 430.333,290.541" fill="#FFFFFE"/>
    <path d="M428.382,202.647 C428.382,202.266 428.714,201.945 429.084,201.945 L432.884,201.945 C433.268,201.945 433.6,202.266 433.6,202.654 L433.6,204.686 C433.6,205.07 433.268,205.388 432.884,205.388 L429.084,205.388 C428.714,205.395 428.382,205.07 428.382,204.686 L428.382,202.647" fill="#B4B5B4"/>
    <path d="M411.132,294.596 L450.851,294.596 L450.851,294.789 L411.132,294.789 L411.132,294.596 z" fill="#4A4B4B"/>
    <path d="M401.324,227.493 L460.312,227.493 L460.312,286.476 L401.324,286.476 L401.324,227.493 z" fill="#FFFFFE"/>
    <path d="M401.324,227.493 L406.658,227.493 L406.658,286.476 L401.324,286.476 L401.324,227.493 z" fill="#418FC1"/>
    <path d="M403.938,268.434 C404.584,268.434 405.095,268.949 405.095,269.59 L405.095,282.524 C405.095,283.166 404.584,283.673 403.938,283.673 C403.303,283.673 402.779,283.165 402.779,282.524 L402.779,269.59 C402.785,268.948 403.303,268.434 403.938,268.434" fill="#215897"/>
    <path d="M403.998,243.724 C404.344,243.724 404.633,244.01 404.633,244.366 L404.633,266.415 C404.633,266.764 404.351,267.046 403.998,267.046 C403.644,267.046 403.363,266.764 403.363,266.415 L403.363,244.359 C403.363,244.01 403.645,243.724 403.998,243.724" fill="#FFFFFE"/>
    <path d="M409.375,230.297 L432.009,230.297 L432.009,283.567 L409.375,283.567 L409.375,230.297 z" fill="#F2F1F0"/>
    <path d="M418.145,275.248 L418.145,281.835 L411.574,281.828 L411.574,275.248 L418.145,275.248" fill="#E3722B"/>
    <path d="M413.072,260.114 L413.072,273.633 L412.024,273.633 L412.024,260.121 L413.072,260.114" fill="#E4E4E3"/>
    <path d="M419.302,245.566 L420.459,245.566 L420.459,281.828 L419.302,281.828 L419.302,245.566 z" fill="#8A8B8A"/>
    <path d="M423.271,245.566 L423.271,281.835 L422.114,281.828 L422.114,245.566 L423.271,245.566" fill="#E4E4E3"/>
    <path d="M426.082,245.566 L426.082,281.828 L424.925,281.835 L424.925,245.566 L426.082,245.566" fill="#E4E4E3"/>
    <path d="M428.88,245.566 L428.88,281.835 L427.731,281.828 L427.731,245.566 L428.88,245.566" fill="#E4E4E3"/>
    <path d="M457.067,230.307 L457.067,283.454 L434.432,283.454 L434.432,230.297 L457.067,230.307" fill="#F2F1F0"/>
    <path d="M443.21,275.128 L443.21,281.711 L436.623,281.715 L436.623,275.128 L443.21,275.128" fill="#D9256F"/>
    <path d="M437.085,259.998 L438.119,259.998 L438.119,273.516 L437.085,273.516 L437.085,259.998 z" fill="#E4E4E3"/>
    <path d="M444.293,264.132 L455.635,264.132 L455.635,281.538 L444.293,281.538 L444.293,264.132 z" fill="#CBCCCB"/>
    <path d="M455.635,245.777 L455.635,263.184 L444.293,263.184 L444.293,245.774 L455.635,245.777" fill="#CBCCCB"/>
    <path d="M460.333,255.561 C460.333,255.561 460.326,255.561 460.316,255.557 L460.316,240.412 L460.323,240.412 L460.323,207.645 L401.331,207.645 L401.331,207.861 L401.271,207.861 L401.271,223.393 C401.123,223.252 400.974,223.108 400.83,222.967 L400.788,207.585 L460.333,207.585 L460.333,255.561" fill="#ECECEB"/>
    <path d="M460.312,240.412 L460.316,240.412 L460.316,255.557 L460.312,255.557 L460.312,240.412 z M401.331,223.453 C401.31,223.432 401.293,223.415 401.271,223.393 L401.271,207.861 L401.331,207.861 L401.331,223.453" fill="#56B4BD"/>
    <path d="M496.575,168.766 L499.788,175.305 L499.788,185.489 L477.435,198.195 L472.321,204.209 L465.908,206.552 L454.622,207.663 L448.089,208.877 L441.393,208.393 L440.592,206.001 L446.222,201.454 L457.892,198.41 L456.316,198.505 L455.056,198.561 L438.176,198.505 L446.311,187.011 L450.859,184.856 L471.705,184.327 L496.575,168.766 z" fill="#F7CFA2"/>
    <path d="M447.02,207.649 L445.256,203.26 L442.102,205.857 L442.631,207.511 L447.02,207.649" fill="#FDF6D5"/>
    <path d="M498.49,172.756 L471.219,189.121 L449.968,191.4 L439.855,196.575 L449.633,189.728 L471.703,184.327 L496.573,168.766 L498.49,172.756" fill="#F2B38C"/>
    <path d="M453.945,199.457 L466.126,198.258 L457.233,198.244 L453.945,199.457" fill="#F2B38C"/>
    <path d="M478.883,175.659 L472.762,180.252 L486.538,198.008 L492.055,195.309 L478.883,175.659" fill="#FFFFFE"/>
    <path d="M499.788,160.823 L499.788,191.903 L492.055,195.309 L478.883,175.659 L499.788,160.823 z" fill="#5D6E74"/>
    <path d="M461.519,304.508 L443.968,302.098 L439.537,295.223 L439.075,294.341 L437.463,291.169 L436.038,290.107 L433.709,284.691 L443.287,287.482 L461.519,304.508" fill="#F2B38C"/>
    <path d="M442.804,269.995 L445.313,273.117 L452.817,276.253 L465.129,280.695 L472.294,290.591 L499.789,306.954 L499.789,312.868 L493.566,323.857 L461.519,304.507 L443.968,302.097 L439.537,295.222 L442.356,294.523 L439.075,294.34 L437.209,290.812 L439.319,290.287 L436.038,290.107 L433.709,284.691 L436.066,284.114 L442.501,286.015 L427.927,279.131 L425.518,275.777 L426.012,273.29 L429.95,272.641 L445.471,278.809 L440.208,275.626 L439.573,271.036 L442.804,269.995 z" fill="#F7CFA2"/>
    <path d="M445.471,278.809 L461.808,279.76 L445.313,273.118 L442.804,269.995 L439.574,271.036 L440.209,275.626 L445.471,278.809" fill="#F2B38C"/>
    <path d="M439.537,295.223 L448.007,294.813 L439.075,294.341 L439.537,295.223" fill="#F2B38C"/>
    <path d="M437.463,291.169 L446.462,290.475 L436.595,290.069 L437.463,291.169" fill="#F2B38C"/>
    <path d="M430.21,279.146 L431.731,274.482 L427.494,274.439 L426.821,276.116 L430.21,279.146" fill="#FDF6D5"/>
    <path d="M457.804,278.236 L465.128,280.695 L472.293,290.591 L499.788,306.954 L499.788,310.978 L470.007,293.207 L457.804,278.236 z" fill="#F2B38C"/>
    <path d="M445.27,273.125 L444.176,273.943 L441.834,271.131 L442.853,269.858 L445.27,273.125" fill="#FDF6D5"/>
    <path d="M478.392,318.139 L472.268,313.542 L486.04,295.787 L491.558,298.493 L478.392,318.139" fill="#FFFFFE"/>
    <path d="M491.558,298.493 L499.788,301.665 L499.788,332.102 L478.392,318.139 L491.558,298.493 z" fill="#5D6E74"/>
    <path d="M180.743,8.47 C180.743,7.186 181.787,6.131 183.106,6.131 L319.794,6.131 C321.102,6.131 322.157,7.186 322.157,8.47 L322.157,84.427 C322.157,85.725 321.101,86.769 319.794,86.769 L183.106,86.769 C181.787,86.769 180.743,85.725 180.743,84.427 L180.743,8.47" fill="#9E9F9E"/>
    <path d="M156.99,133.989 L346.093,133.989 L341.106,139.647 L162.283,139.393 L156.99,133.989" fill="#FFFFFE"/>
    <path d="M181.871,89.511 C182.517,88.375 184.852,87.475 187.103,87.475 L316.894,87.475 C319.16,87.475 321.469,88.375 322.081,89.511 L345.879,133.428 C346.5,134.564 344.468,135.481 341.321,135.481 L161.417,135.481 C158.309,135.481 156.302,134.564 156.941,133.428 L181.871,89.511" fill="#1A1919"/>
    <path d="M188.521,94.199 L315.306,94.199 L332.913,131.586 L169.969,131.586 L188.521,94.199" fill="#369ECC"/>
    <path d="M196.953,97.9 L307.866,97.9 L319.945,127.917 L184.313,127.917 L196.953,97.9" fill="#FFFFFE"/>
    <path d="M196.953,97.9 L201.772,97.9 L190.229,127.917 L184.313,127.917 L196.953,97.9" fill="#E4E4E3"/>
    <path d="M185.459,125.215 L318.855,125.215 L319.945,127.918 L184.313,127.918 L185.459,125.215" fill="#EBAE2B"/>
    <path d="M190.278,123.783 L188.606,124.665 L187.66,123.783 L190.278,123.783" fill="#8A8B8A"/>
    <path d="M197.736,99.219 L199.2,98.348 L199.955,99.219 L197.736,99.219" fill="#8A8B8A"/>
    <path d="M195.019,106.176 L197.08,106.176 L190.585,122.573 L188.31,122.573 L195.019,106.176" fill="#8A8B8A"/>
    <path d="M274.994,113.764 C274.924,113.288 275.82,112.871 277.019,112.871 L308.768,112.871 C309.948,112.871 311.054,113.288 311.242,113.764 L314.893,123.307 C315.087,123.801 314.199,124.189 312.939,124.189 L278.769,124.189 C277.502,124.189 276.426,123.801 276.355,123.307 L274.994,113.764" fill="#379ECC"/>
    <path d="M236.376,113.764 C236.429,113.288 237.43,112.871 238.616,112.871 L270.369,112.871 C271.548,112.871 272.566,113.288 272.631,113.764 L273.823,123.307 C273.89,123.801 272.92,124.189 271.646,124.189 L237.482,124.189 C236.219,124.189 235.225,123.801 235.288,123.307 L236.376,113.764" fill="#676A68"/>
    <path d="M198.226,113.764 C198.406,113.288 199.521,112.871 200.685,112.871 L232.449,112.871 C233.631,112.871 234.538,113.288 234.485,113.764 L233.275,123.307 C233.204,123.801 232.132,124.189 230.855,124.189 L196.692,124.189 C195.418,124.189 194.536,123.801 194.716,123.307 L198.226,113.764" fill="#EBAE2B"/>
    <path d="M236.873,110.54 L309.789,110.54 L310.078,111.284 L236.785,111.284 L236.873,110.54" fill="#636463"/>
    <path d="M237.113,108.338 L308.949,108.338 L309.231,109.083 L237.027,109.083 L237.113,108.338" fill="#CBCCCB"/>
    <path d="M237.374,106.13 L308.106,106.13 L308.391,106.864 L237.288,106.864 L237.374,106.13" fill="#CBCCCB"/>
    <path d="M237.61,103.929 L307.275,103.929 L307.556,104.666 L237.526,104.666 L237.61,103.929" fill="#CBCCCB"/>
    <path d="M237.871,101.72 L306.427,101.72 L306.709,102.465 L237.783,102.465 L237.871,101.72" fill="#CBCCCB"/>
    <path d="M238.122,99.515 L305.587,99.515 L305.869,100.263 L238.037,100.263 L238.122,99.515" fill="#CBCCCB"/>
    <path d="M221.432,101.681 L221.457,99.723 L217.188,99.723 L216.274,101.681 C216.274,101.681 219.629,101.798 221.432,101.681" fill="#B4B5B4"/>
    <path d="M216.274,101.681 L218.698,101.703 L219.005,101.703 L221.432,101.681 C221.361,102.069 221.524,102.764 222.889,104.017 C222.921,104.034 223.517,104.391 224.088,104.99 C224.66,105.576 225.178,106.363 225.016,107.171 C224.914,107.721 224.519,108.268 223.602,108.779 C223.587,108.797 223.115,109.09 222.025,109.432 C220.928,109.749 219.252,110.085 216.895,110.085 L216.744,110.099 L216.606,110.085 C214.235,110.085 212.729,109.749 211.815,109.432 C210.859,109.09 210.563,108.779 210.542,108.797 C209.903,108.268 209.759,107.721 209.928,107.171 C210.394,105.548 213.618,104.034 213.611,104.034 C215.653,102.764 216.165,102.069 216.274,101.681" fill="#F1CE28"/>
    <path d="M217.611,105.784 L217.308,105.029 L217.908,104.486 L218.162,104.384 C218.402,104.486 218.783,104.673 218.691,105.029 C218.652,105.223 218.458,105.467 217.996,105.784 L217.767,105.911 L217.611,105.784 z M214.962,105.851 C214.987,105.872 215.491,106.38 216.606,106.394 C216.962,106.394 217.329,106.331 217.703,106.204 C218.006,106.331 218.342,106.394 218.708,106.394 C219.834,106.38 220.571,105.872 220.599,105.872 C221.023,105.587 221.249,105.336 221.301,105.093 C221.524,104.066 219.516,103.286 219.516,103.272 L219.199,103.364 C219.199,103.364 219.665,103.562 220.113,103.876 C220.571,104.186 220.995,104.616 220.878,105.093 C220.829,105.322 220.631,105.562 220.232,105.805 L219.749,106.042 L218.74,106.25 L217.996,106.063 L218.363,105.834 C218.828,105.523 219.051,105.251 219.107,105.029 C219.252,104.437 218.229,104.193 218.201,104.193 L218.193,104.193 C218.084,104.228 217.019,104.465 216.871,105.029 L217.213,105.841 L217.488,106.063 C217.132,106.211 216.842,106.25 216.627,106.25 C216.303,106.25 215.957,106.158 215.724,106.042 L215.368,105.795 L215.093,105.068 C215.205,104.616 215.844,104.186 216.454,103.876 C217.054,103.562 217.622,103.364 217.622,103.364 L217.357,103.272 L217.35,103.272 C217.343,103.286 214.955,104.066 214.662,105.068 L214.962,105.851" fill="#FFFFFE"/>
    <path d="M227.027,106.433 L230.131,106.433 L230.103,106.645 L226.985,106.645 L227.027,106.433" fill="#EBAE2B"/>
    <path d="M224.462,109.231 L226.537,110.176 L226.17,110.328 L224.11,109.375 L224.462,109.231" fill="#EBAE2B"/>
    <path d="M216.856,110.741 L216.514,112.078 L216.034,112.078 L216.377,110.741 L216.856,110.741" fill="#EBAE2B"/>
    <path d="M226.085,103.89 L228.424,102.941 L228.121,102.807 L225.785,103.749 L226.085,103.89" fill="#EBAE2B"/>
    <path d="M208.616,106.433 L205.486,106.433 L205.423,106.645 L208.548,106.645 L208.616,106.433" fill="#EBAE2B"/>
    <path d="M209.759,109.231 L207.219,110.176 L207.522,110.328 L210.065,109.375 L209.759,109.231" fill="#EBAE2B"/>
    <path d="M210.827,103.89 L208.961,102.941 L209.325,102.807 L211.177,103.749 L210.827,103.89" fill="#EBAE2B"/>
    <path d="M216.221,101.226 L216.691,100.99 L221.287,100.99 L221.651,101.226 L221.178,101.463 L216.578,101.463 L216.221,101.226" fill="#8A8B8A"/>
    <path d="M216.384,100.651 L216.856,100.418 L221.432,100.418 L221.785,100.651 L221.316,100.866 L216.74,100.866 L216.384,100.651" fill="#8A8B8A"/>
    <path d="M216.535,100.076 L216.994,99.865 L221.552,99.865 L221.922,100.076 L221.443,100.288 L216.881,100.288 L216.535,100.076" fill="#8A8B8A"/>
    <path d="M221.457,99.723 C221.464,99.455 220.575,99.261 219.432,99.261 C218.282,99.261 217.308,99.455 217.188,99.723 L221.457,99.723" fill="#8A8B8A"/>
    <path d="M180.743,9.239 C180.743,7.945 181.787,6.893 183.106,6.893 L319.794,6.893 C321.102,6.893 322.157,7.945 322.157,9.239 L322.157,85.196 C322.157,86.473 321.101,87.542 319.794,87.542 L183.106,87.542 C181.787,87.542 180.743,86.473 180.743,85.196 L180.743,9.239" fill="#E4E4E3"/>
    <path d="M232.269,12.58 C232.269,11.31 233.321,10.252 234.598,10.252 L268.308,10.252 C269.597,10.252 270.652,11.31 270.652,12.58 L270.652,29.566 C270.652,30.843 269.597,31.895 268.308,31.895 L234.598,31.895 C233.321,31.895 232.269,30.843 232.269,29.566 L232.269,12.58" fill="#9E9F9E"/>
    <path d="M308.984,80.86 C308.984,80.204 309.513,79.696 310.159,79.696 L316.749,79.696 C317.381,79.696 317.92,80.204 317.92,80.86 L317.92,82.127 C317.92,82.762 317.381,83.28 316.749,83.28 L310.159,83.28 C309.513,83.28 308.984,82.762 308.984,82.127 L308.984,80.86" fill="#9E9F9E"/>
    <path d="M297.738,80.86 C297.738,80.204 298.249,79.696 298.909,79.696 L305.488,79.696 C306.137,79.696 306.646,80.204 306.646,80.86 L306.646,82.127 C306.646,82.762 306.137,83.28 305.488,83.28 L298.909,83.28 C298.249,83.28 297.738,82.762 297.738,82.127 L297.738,80.86" fill="#9E9F9E"/>
    <path d="M286.467,80.86 C286.467,80.204 286.989,79.696 287.653,79.696 L294.231,79.696 C294.884,79.696 295.411,80.204 295.411,80.86 L295.411,82.127 C295.411,82.762 294.885,83.28 294.231,83.28 L287.653,83.28 C286.99,83.28 286.467,82.762 286.467,82.127 L286.467,80.86" fill="#9E9F9E"/>
    <path d="M275.227,80.86 C275.227,80.204 275.747,79.696 276.391,79.696 L282.985,79.696 C283.628,79.696 284.145,80.204 284.145,80.86 L284.145,82.127 C284.145,82.762 283.627,83.28 282.985,83.28 L276.391,83.28 C275.746,83.28 275.227,82.762 275.227,82.127 L275.227,80.86" fill="#9E9F9E"/>
    <path d="M263.963,80.86 C263.963,80.204 264.479,79.696 265.141,79.696 L271.714,79.696 C272.363,79.696 272.885,80.204 272.885,80.86 L272.885,82.127 C272.885,82.762 272.364,83.28 271.714,83.28 L265.141,83.28 C264.479,83.28 263.963,82.762 263.963,82.127 L263.963,80.86" fill="#9E9F9E"/>
    <path d="M252.706,80.86 C252.706,80.204 253.234,79.696 253.881,79.696 L260.463,79.696 C261.109,79.696 261.628,80.204 261.628,80.86 L261.628,82.127 C261.628,82.762 261.109,83.28 260.463,83.28 L253.881,83.28 C253.235,83.28 252.706,82.762 252.706,82.127 L252.706,80.86" fill="#9E9F9E"/>
    <path d="M241.459,80.86 C241.459,80.204 241.978,79.696 242.613,79.696 L249.22,79.696 C249.848,79.696 250.377,80.204 250.377,80.86 L250.377,82.127 C250.377,82.762 249.848,83.28 249.22,83.28 L242.613,83.28 C241.978,83.28 241.459,82.762 241.459,82.127 L241.459,80.86" fill="#9E9F9E"/>
    <path d="M230.202,80.86 C230.202,80.204 230.717,79.696 231.37,79.696 L237.96,79.696 C238.609,79.696 239.127,80.204 239.127,80.86 L239.127,82.127 C239.127,82.762 238.609,83.28 237.96,83.28 L231.37,83.28 C230.717,83.28 230.202,82.762 230.202,82.127 L230.202,80.86" fill="#9E9F9E"/>
    <path d="M218.938,80.86 C218.938,80.204 219.463,79.696 220.113,79.696 L226.699,79.696 C227.337,79.696 227.863,80.204 227.863,80.86 L227.863,82.127 C227.863,82.762 227.337,83.28 226.699,83.28 L220.113,83.28 C219.463,83.28 218.938,82.762 218.938,82.127 L218.938,80.86" fill="#9E9F9E"/>
    <path d="M207.691,80.86 C207.691,80.204 208.206,79.696 208.852,79.696 L215.445,79.696 C216.077,79.696 216.613,80.204 216.613,80.86 L216.613,82.127 C216.613,82.762 216.077,83.28 215.445,83.28 L208.852,83.28 C208.206,83.28 207.691,82.762 207.691,82.127 L207.691,80.86" fill="#9E9F9E"/>
    <path d="M196.434,80.86 C196.434,80.204 196.953,79.696 197.598,79.696 L204.188,79.696 C204.834,79.696 205.356,80.204 205.356,80.86 L205.356,82.127 C205.356,82.762 204.834,83.28 204.188,83.28 L197.598,83.28 C196.953,83.28 196.434,82.762 196.434,82.127 L196.434,80.86" fill="#9E9F9E"/>
    <path d="M185.163,80.86 C185.163,80.204 185.688,79.696 186.334,79.696 L192.931,79.696 C193.562,79.696 194.092,80.204 194.092,80.86 L194.092,82.127 C194.092,82.762 193.562,83.28 192.931,83.28 L186.334,83.28 C185.688,83.28 185.163,82.762 185.163,82.127 L185.163,80.86" fill="#9E9F9E"/>
    <path d="M309.81,68.855 C309.81,68.21 310.332,67.684 310.974,67.684 L316.749,67.684 C317.381,67.684 317.92,68.21 317.92,68.855 L317.92,74.613 C317.92,75.272 317.381,75.794 316.749,75.794 L310.974,75.794 C310.332,75.794 309.81,75.272 309.81,74.613 L309.81,68.855" fill="#9E9F9E"/>
    <path d="M299.414,68.855 C299.414,68.21 299.957,67.684 300.6,67.684 L306.357,67.684 C307.005,67.684 307.536,68.21 307.536,68.855 L307.536,74.613 C307.536,75.272 307.006,75.794 306.357,75.794 L300.6,75.794 C299.957,75.794 299.414,75.272 299.414,74.613 L299.414,68.855" fill="#9E9F9E"/>
    <path d="M289.035,68.855 C289.035,68.21 289.553,67.684 290.191,67.684 L295.974,67.684 C296.629,67.684 297.144,68.21 297.144,68.855 L297.144,74.613 C297.144,75.272 296.629,75.794 295.974,75.794 L290.191,75.794 C289.552,75.794 289.035,75.272 289.035,74.613 L289.035,68.855" fill="#9E9F9E"/>
    <path d="M278.631,68.855 C278.631,68.21 279.168,67.684 279.817,67.684 L285.586,67.684 C286.232,67.684 286.757,68.21 286.757,68.855 L286.757,74.613 C286.757,75.272 286.232,75.794 285.586,75.794 L279.817,75.794 C279.169,75.794 278.631,75.272 278.631,74.613 L278.631,68.855" fill="#9E9F9E"/>
    <path d="M268.264,68.855 C268.264,68.21 268.793,67.684 269.428,67.684 L275.199,67.684 C275.847,67.684 276.37,68.21 276.37,68.855 L276.37,74.613 C276.37,75.272 275.848,75.794 275.199,75.794 L269.428,75.794 C268.793,75.794 268.264,75.272 268.264,74.613 L268.264,68.855" fill="#9E9F9E"/>
    <path d="M257.878,68.855 C257.878,68.21 258.397,67.684 259.042,67.684 L264.816,67.684 C265.459,67.684 265.988,68.21 265.988,68.855 L265.988,74.613 C265.988,75.272 265.459,75.794 264.816,75.794 L259.042,75.794 C258.396,75.794 257.878,75.272 257.878,74.613 L257.878,68.855" fill="#9E9F9E"/>
    <path d="M247.495,68.855 C247.495,68.21 248.014,67.684 248.663,67.684 L254.413,67.684 C255.073,67.684 255.592,68.21 255.592,68.855 L255.592,74.613 C255.592,75.272 255.073,75.794 254.413,75.794 L248.663,75.794 C248.014,75.794 247.495,75.272 247.495,74.613 L247.495,68.855" fill="#9E9F9E"/>
    <path d="M237.109,68.855 C237.109,68.21 237.632,67.684 238.27,67.684 L244.038,67.684 C244.68,67.684 245.202,68.21 245.202,68.855 L245.202,74.613 C245.202,75.272 244.68,75.794 244.038,75.794 L238.27,75.794 C237.632,75.794 237.109,75.272 237.109,74.613 L237.109,68.855" fill="#9E9F9E"/>
    <path d="M226.71,68.855 C226.71,68.21 227.239,67.684 227.888,67.684 L233.656,67.684 C234.294,67.684 234.823,68.21 234.823,68.855 L234.823,74.613 C234.823,75.272 234.294,75.794 233.656,75.794 L227.888,75.794 C227.239,75.794 226.71,75.272 226.71,74.613 L226.71,68.855" fill="#9E9F9E"/>
    <path d="M216.324,68.855 C216.324,68.21 216.856,67.684 217.495,67.684 L223.266,67.684 C223.905,67.684 224.448,68.21 224.448,68.855 L224.448,74.613 C224.448,75.272 223.905,75.794 223.266,75.794 L217.495,75.794 C216.856,75.794 216.324,75.272 216.324,74.613 L216.324,68.855" fill="#9E9F9E"/>
    <path d="M205.927,68.855 C205.927,68.21 206.467,67.684 207.109,67.684 L212.888,67.684 C213.526,67.684 214.045,68.21 214.045,68.855 L214.045,74.613 C214.045,75.272 213.526,75.794 212.888,75.794 L207.109,75.794 C206.467,75.794 205.927,75.272 205.927,74.613 L205.927,68.855" fill="#9E9F9E"/>
    <path d="M195.552,68.855 C195.552,68.21 196.081,67.684 196.72,67.684 L202.488,67.684 C203.144,67.684 203.67,68.21 203.67,68.855 L203.67,74.613 C203.67,75.272 203.144,75.794 202.488,75.794 L196.72,75.794 C196.081,75.794 195.552,75.272 195.552,74.613 L195.552,68.855" fill="#9E9F9E"/>
    <path d="M185.163,68.855 C185.163,68.21 185.688,67.684 186.334,67.684 L192.105,67.684 C192.751,67.684 193.259,68.21 193.259,68.855 L193.259,74.613 C193.259,75.272 192.751,75.794 192.105,75.794 L186.334,75.794 C185.688,75.794 185.163,75.272 185.163,74.613 L185.163,68.855" fill="#9E9F9E"/>
    <path d="M309.81,58.127 C309.81,57.471 310.332,56.963 310.974,56.963 L316.749,56.963 C317.381,56.963 317.92,57.471 317.92,58.127 L317.92,63.888 C317.92,64.548 317.381,65.063 316.749,65.063 L310.974,65.063 C310.332,65.063 309.81,64.548 309.81,63.888 L309.81,58.127" fill="#9E9F9E"/>
    <path d="M299.414,58.127 C299.414,57.471 299.957,56.963 300.6,56.963 L306.357,56.963 C307.005,56.963 307.536,57.471 307.536,58.127 L307.536,63.888 C307.536,64.548 307.006,65.063 306.357,65.063 L300.6,65.063 C299.957,65.063 299.414,64.548 299.414,63.888 L299.414,58.127" fill="#9E9F9E"/>
    <path d="M289.035,58.127 C289.035,57.471 289.553,56.963 290.191,56.963 L295.974,56.963 C296.629,56.963 297.144,57.471 297.144,58.127 L297.144,63.888 C297.144,64.548 296.629,65.063 295.974,65.063 L290.191,65.063 C289.552,65.063 289.035,64.548 289.035,63.888 L289.035,58.127" fill="#9E9F9E"/>
    <path d="M278.631,58.127 C278.631,57.471 279.168,56.963 279.817,56.963 L285.586,56.963 C286.232,56.963 286.757,57.471 286.757,58.127 L286.757,63.888 C286.757,64.548 286.232,65.063 285.586,65.063 L279.817,65.063 C279.169,65.063 278.631,64.548 278.631,63.888 L278.631,58.127" fill="#9E9F9E"/>
    <path d="M268.264,58.127 C268.264,57.471 268.793,56.963 269.428,56.963 L275.199,56.963 C275.847,56.963 276.37,57.471 276.37,58.127 L276.37,63.888 C276.37,64.548 275.848,65.063 275.199,65.063 L269.428,65.063 C268.793,65.063 268.264,64.548 268.264,63.888 L268.264,58.127" fill="#9E9F9E"/>
    <path d="M257.878,58.127 C257.878,57.471 258.397,56.963 259.042,56.963 L264.816,56.963 C265.459,56.963 265.988,57.471 265.988,58.127 L265.988,63.888 C265.988,64.548 265.459,65.063 264.816,65.063 L259.042,65.063 C258.396,65.063 257.878,64.548 257.878,63.888 L257.878,58.127" fill="#9E9F9E"/>
    <path d="M247.495,58.127 C247.495,57.471 248.014,56.963 248.663,56.963 L254.413,56.963 C255.073,56.963 255.592,57.471 255.592,58.127 L255.592,63.888 C255.592,64.548 255.073,65.063 254.413,65.063 L248.663,65.063 C248.014,65.063 247.495,64.548 247.495,63.888 L247.495,58.127" fill="#9E9F9E"/>
    <path d="M237.109,58.127 C237.109,57.471 237.632,56.963 238.27,56.963 L244.038,56.963 C244.68,56.963 245.202,57.471 245.202,58.127 L245.202,63.888 C245.202,64.548 244.68,65.063 244.038,65.063 L238.27,65.063 C237.632,65.063 237.109,64.548 237.109,63.888 L237.109,58.127" fill="#9E9F9E"/>
    <path d="M226.71,58.127 C226.71,57.471 227.239,56.963 227.888,56.963 L233.656,56.963 C234.294,56.963 234.823,57.471 234.823,58.127 L234.823,63.888 C234.823,64.548 234.294,65.063 233.656,65.063 L227.888,65.063 C227.239,65.063 226.71,64.548 226.71,63.888 L226.71,58.127" fill="#9E9F9E"/>
    <path d="M216.324,58.127 C216.324,57.471 216.856,56.963 217.495,56.963 L223.266,56.963 C223.905,56.963 224.448,57.471 224.448,58.127 L224.448,63.888 C224.448,64.548 223.905,65.063 223.266,65.063 L217.495,65.063 C216.856,65.063 216.324,64.548 216.324,63.888 L216.324,58.127" fill="#9E9F9E"/>
    <path d="M205.927,58.127 C205.927,57.471 206.467,56.963 207.109,56.963 L212.888,56.963 C213.526,56.963 214.045,57.471 214.045,58.127 L214.045,63.888 C214.045,64.548 213.526,65.063 212.888,65.063 L207.109,65.063 C206.467,65.063 205.927,64.548 205.927,63.888 L205.927,58.127" fill="#9E9F9E"/>
    <path d="M195.552,58.127 C195.552,57.471 196.081,56.963 196.72,56.963 L202.488,56.963 C203.144,56.963 203.67,57.471 203.67,58.127 L203.67,63.888 C203.67,64.548 203.144,65.063 202.488,65.063 L196.72,65.063 C196.081,65.063 195.552,64.548 195.552,63.888 L195.552,58.127" fill="#9E9F9E"/>
    <path d="M185.163,58.127 C185.163,57.471 185.688,56.963 186.334,56.963 L192.105,56.963 C192.751,56.963 193.259,57.471 193.259,58.127 L193.259,63.888 C193.259,64.548 192.751,65.063 192.105,65.063 L186.334,65.063 C185.688,65.063 185.163,64.548 185.163,63.888 L185.163,58.127" fill="#9E9F9E"/>
    <path d="M309.81,47.403 C309.81,46.761 310.332,46.235 310.974,46.235 L316.749,46.235 C317.381,46.235 317.92,46.761 317.92,47.403 L317.92,53.164 C317.92,53.806 317.381,54.338 316.749,54.338 L310.974,54.338 C310.332,54.338 309.81,53.806 309.81,53.164 L309.81,47.403" fill="#9E9F9E"/>
    <path d="M299.414,47.403 C299.414,46.761 299.957,46.235 300.6,46.235 L306.357,46.235 C307.005,46.235 307.536,46.761 307.536,47.403 L307.536,53.164 C307.536,53.806 307.006,54.338 306.357,54.338 L300.6,54.338 C299.957,54.338 299.414,53.806 299.414,53.164 L299.414,47.403" fill="#9E9F9E"/>
    <path d="M289.035,47.403 C289.035,46.761 289.553,46.235 290.191,46.235 L295.974,46.235 C296.629,46.235 297.144,46.761 297.144,47.403 L297.144,53.164 C297.144,53.806 296.629,54.338 295.974,54.338 L290.191,54.338 C289.552,54.338 289.035,53.806 289.035,53.164 L289.035,47.403" fill="#9E9F9E"/>
    <path d="M278.631,47.403 C278.631,46.761 279.168,46.235 279.817,46.235 L285.586,46.235 C286.232,46.235 286.757,46.761 286.757,47.403 L286.757,53.164 C286.757,53.806 286.232,54.338 285.586,54.338 L279.817,54.338 C279.169,54.338 278.631,53.806 278.631,53.164 L278.631,47.403" fill="#9E9F9E"/>
    <path d="M268.264,47.403 C268.264,46.761 268.793,46.235 269.428,46.235 L275.199,46.235 C275.847,46.235 276.37,46.761 276.37,47.403 L276.37,53.164 C276.37,53.806 275.848,54.338 275.199,54.338 L269.428,54.338 C268.793,54.338 268.264,53.806 268.264,53.164 L268.264,47.403" fill="#9E9F9E"/>
    <path d="M257.878,47.403 C257.878,46.761 258.397,46.235 259.042,46.235 L264.816,46.235 C265.459,46.235 265.988,46.761 265.988,47.403 L265.988,53.164 C265.988,53.806 265.459,54.338 264.816,54.338 L259.042,54.338 C258.396,54.338 257.878,53.806 257.878,53.164 L257.878,47.403" fill="#9E9F9E"/>
    <path d="M247.495,47.403 C247.495,46.761 248.014,46.235 248.663,46.235 L254.413,46.235 C255.073,46.235 255.592,46.761 255.592,47.403 L255.592,53.164 C255.592,53.806 255.073,54.338 254.413,54.338 L248.663,54.338 C248.014,54.338 247.495,53.806 247.495,53.164 L247.495,47.403" fill="#9E9F9E"/>
    <path d="M237.109,47.403 C237.109,46.761 237.632,46.235 238.27,46.235 L244.038,46.235 C244.68,46.235 245.202,46.761 245.202,47.403 L245.202,53.164 C245.202,53.806 244.68,54.338 244.038,54.338 L238.27,54.338 C237.632,54.338 237.109,53.806 237.109,53.164 L237.109,47.403" fill="#9E9F9E"/>
    <path d="M226.71,47.403 C226.71,46.761 227.239,46.235 227.888,46.235 L233.656,46.235 C234.294,46.235 234.823,46.761 234.823,47.403 L234.823,53.164 C234.823,53.806 234.294,54.338 233.656,54.338 L227.888,54.338 C227.239,54.338 226.71,53.806 226.71,53.164 L226.71,47.403" fill="#9E9F9E"/>
    <path d="M216.324,47.403 C216.324,46.761 216.856,46.235 217.495,46.235 L223.266,46.235 C223.905,46.235 224.448,46.761 224.448,47.403 L224.448,53.164 C224.448,53.806 223.905,54.338 223.266,54.338 L217.495,54.338 C216.856,54.338 216.324,53.806 216.324,53.164 L216.324,47.403" fill="#9E9F9E"/>
    <path d="M205.927,47.403 C205.927,46.761 206.467,46.235 207.109,46.235 L212.888,46.235 C213.526,46.235 214.045,46.761 214.045,47.403 L214.045,53.164 C214.045,53.806 213.526,54.338 212.888,54.338 L207.109,54.338 C206.467,54.338 205.927,53.806 205.927,53.164 L205.927,47.403" fill="#9E9F9E"/>
    <path d="M195.552,47.403 C195.552,46.761 196.081,46.235 196.72,46.235 L202.488,46.235 C203.144,46.235 203.67,46.761 203.67,47.403 L203.67,53.164 C203.67,53.806 203.144,54.338 202.488,54.338 L196.72,54.338 C196.081,54.338 195.552,53.806 195.552,53.164 L195.552,47.403" fill="#9E9F9E"/>
    <path d="M185.163,47.403 C185.163,46.761 185.688,46.235 186.334,46.235 L192.105,46.235 C192.751,46.235 193.259,46.761 193.259,47.403 L193.259,53.164 C193.259,53.806 192.751,54.338 192.105,54.338 L186.334,54.338 C185.688,54.338 185.163,53.806 185.163,53.164 L185.163,47.403" fill="#9E9F9E"/>
    <path d="M309.63,36.682 C309.63,36.05 310.159,35.518 310.801,35.518 L316.57,35.518 C317.218,35.518 317.749,36.05 317.749,36.682 L317.749,42.446 C317.749,43.103 317.219,43.625 316.57,43.625 L310.801,43.625 C310.159,43.625 309.63,43.103 309.63,42.446 L309.63,36.682" fill="#9E9F9E"/>
    <path d="M299.248,36.682 C299.248,36.05 299.764,35.518 300.426,35.518 L306.198,35.518 C306.84,35.518 307.365,36.05 307.365,36.682 L307.365,42.446 C307.365,43.103 306.84,43.625 306.198,43.625 L300.426,43.625 C299.764,43.625 299.248,43.103 299.248,42.446 L299.248,36.682" fill="#9E9F9E"/>
    <path d="M288.855,36.682 C288.855,36.05 289.38,35.518 290.033,35.518 L295.801,35.518 C296.45,35.518 296.973,36.05 296.973,36.682 L296.973,42.446 C296.973,43.103 296.451,43.625 295.801,43.625 L290.033,43.625 C289.381,43.625 288.855,43.103 288.855,42.446 L288.855,36.682" fill="#9E9F9E"/>
    <path d="M278.466,36.682 C278.466,36.05 278.998,35.518 279.651,35.518 L285.42,35.518 C286.058,35.518 286.584,36.05 286.584,36.682 L286.584,42.446 C286.584,43.103 286.058,43.625 285.42,43.625 L279.651,43.625 C278.999,43.625 278.466,43.103 278.466,42.446 L278.466,36.682" fill="#9E9F9E"/>
    <path d="M268.09,36.682 C268.09,36.05 268.606,35.518 269.262,35.518 L275.022,35.518 C275.668,35.518 276.205,36.05 276.205,36.682 L276.205,42.446 C276.205,43.103 275.669,43.625 275.022,43.625 L269.262,43.625 C268.606,43.625 268.09,43.103 268.09,42.446 L268.09,36.682" fill="#9E9F9E"/>
    <path d="M226.551,36.682 C226.551,36.05 227.059,35.518 227.722,35.518 L233.479,35.518 C234.128,35.518 234.654,36.05 234.654,36.682 L234.654,42.446 C234.654,43.103 234.128,43.625 233.479,43.625 L227.722,43.625 C227.059,43.625 226.551,43.103 226.551,42.446 L226.551,36.682" fill="#9E9F9E"/>
    <path d="M216.151,36.682 C216.151,36.05 216.68,35.518 217.329,35.518 L223.09,35.518 C223.743,35.518 224.265,36.05 224.265,36.682 L224.265,42.446 C224.265,43.103 223.743,43.625 223.09,43.625 L217.329,43.625 C216.68,43.625 216.151,43.103 216.151,42.446 L216.151,36.682" fill="#9E9F9E"/>
    <path d="M205.758,36.682 C205.758,36.05 206.291,35.518 206.933,35.518 L212.711,35.518 C213.36,35.518 213.883,36.05 213.883,36.682 L213.883,42.446 C213.883,43.103 213.36,43.625 212.711,43.625 L206.933,43.625 C206.291,43.625 205.758,43.103 205.758,42.446 L205.758,36.682" fill="#9E9F9E"/>
    <path d="M195.372,36.682 C195.372,36.05 195.898,35.518 196.547,35.518 L202.311,35.518 C202.953,35.518 203.49,36.05 203.49,36.682 L203.49,42.446 C203.49,43.103 202.953,43.625 202.311,43.625 L196.547,43.625 C195.898,43.625 195.372,43.103 195.372,42.446 L195.372,36.682" fill="#9E9F9E"/>
    <path d="M184.993,36.682 C184.993,36.05 185.519,35.518 186.158,35.518 L191.933,35.518 C192.585,35.518 193.097,36.05 193.097,36.682 L193.097,42.446 C193.097,43.103 192.585,43.625 191.933,43.625 L186.158,43.625 C185.519,43.625 184.993,43.103 184.993,42.446 L184.993,36.682" fill="#9E9F9E"/>
    <path d="M237.028,36.671 C237.028,36.022 237.561,35.504 238.203,35.504 L264.542,35.504 C265.188,35.504 265.713,36.022 265.713,36.671 L265.713,42.231 C265.713,42.877 265.188,43.406 264.542,43.406 L238.203,43.406 C237.561,43.406 237.028,42.877 237.028,42.231 L237.028,36.671" fill="#9E9F9E"/>
    <path d="M213.38,0 L226.854,23.682 L233.165,29.054 L235.614,35.775 L236.785,47.6 L238.055,54.462 L237.55,61.471 L235.035,62.311 L230.273,56.409 L227.076,44.178 L228.872,56.356 L233.07,60.512 L234.164,65.582 L229.25,66.255 L215.128,56.307 L212.863,51.555 L212.309,29.711 L196,3.623 L203.375,0 L213.38,0 z" fill="#F7CFA1"/>
    <path d="M236.764,55.577 L232.171,57.422 L234.89,60.745 L236.619,60.173 L236.764,55.577" fill="#FCF5D5"/>
    <path d="M200.177,1.626 L217.343,30.205 L219.732,52.479 L225.154,63.094 L217.978,52.843 L212.309,29.711 L196,3.623 L200.177,1.626" fill="#F2B28B"/>
    <path d="M228.188,48.324 L226.918,35.553 L226.904,44.866 L228.188,48.324" fill="#F2B28B"/>
    <path d="M301.352,0 L308.713,3.623 L292.404,29.711 L291.861,51.552 L289.591,56.307 L275.463,66.266 L270.562,65.589 L271.664,60.519 L275.834,56.345 L277.654,44.178 L274.448,56.409 L269.681,62.311 L267.187,61.475 L266.675,54.451 L267.952,47.607 L269.108,35.775 L271.561,29.054 L277.872,23.682 L291.333,0 L301.352,0 z" fill="#F7CFA1"/>
    <path d="M267.96,55.577 L272.561,57.422 L269.84,60.724 L268.111,60.17 L267.96,55.577" fill="#FCF5D5"/>
    <path d="M304.54,1.619 L287.387,30.205 L284.999,52.479 L279.562,63.098 L286.749,52.843 L292.404,29.711 L308.713,3.623 L304.54,1.619" fill="#F2B28B"/>
    <path d="M276.543,48.324 L277.807,35.542 L277.821,44.873 L276.543,48.324" fill="#F2B28B"/>
    <path d="M198.519,15.025 L203.08,21.093 L220.712,7.412 L218.031,1.944 L198.519,15.025" fill="#FFFFFE"/>
    <path d="M217.162,0 L218.031,1.944 L198.519,15.025 L188.246,0 L217.162,0 z" fill="#636463"/>
    <path d="M305.869,14.711 L301.301,20.789 L283.662,7.116 L286.343,1.637 L305.869,14.711" fill="#FFFFFE"/>
    <path d="M316.542,-0 L305.869,14.711 L286.343,1.637 L287.154,-0 L316.542,-0 z" fill="#636463"/>
    <path d="M270.562,65.589 L274.871,64.749 L277.396,64.904 L275.463,66.266 L270.562,65.589" fill="#FCF5D5"/>
    <path d="M234.164,65.582 L229.853,64.714 L227.186,64.841 L229.25,66.255 L234.164,65.582" fill="#FCF5D5"/>
    <path d="M336.847,471.951 C336.847,472.656 336.328,473.235 335.694,473.235 L172.157,473.238 C171.518,473.235 170.993,472.656 170.996,471.954 L170.996,434.538 C170.996,433.829 171.518,433.258 172.157,433.258 L335.694,433.258 C336.329,433.258 336.847,433.829 336.847,434.538 L336.847,471.951" fill="#CBCCCB"/>
    <path d="M186.687,441.989 C186.687,442.631 186.168,443.146 185.53,443.15 L177.134,443.146 C176.495,443.146 175.966,442.63 175.966,441.989 L175.966,439.202 C175.966,438.559 176.492,438.045 177.134,438.041 L185.53,438.041 C186.168,438.041 186.687,438.56 186.687,439.202 L186.687,441.989" fill="#FFFFFE"/>
    <path d="M201.211,441.989 C201.211,442.631 200.685,443.142 200.047,443.146 L191.654,443.146 C191.005,443.146 190.49,442.63 190.493,441.989 L190.49,439.202 C190.493,438.559 191.005,438.045 191.65,438.045 L200.047,438.041 C200.689,438.041 201.211,438.56 201.211,439.202 L201.211,441.989" fill="#FFFFFE"/>
    <path d="M215.728,441.989 C215.721,442.631 215.205,443.142 214.57,443.146 L206.164,443.15 C205.525,443.146 205.01,442.63 205.01,441.989 L205.01,439.202 C205.01,438.559 205.525,438.041 206.164,438.045 L214.567,438.041 C215.205,438.041 215.728,438.56 215.721,439.202 L215.728,441.989" fill="#FFFFFE"/>
    <path d="M230.244,441.989 C230.244,442.631 229.729,443.15 229.087,443.146 L220.684,443.146 C220.046,443.146 219.527,442.63 219.531,441.989 L219.531,439.202 C219.531,438.559 220.053,438.041 220.684,438.041 L229.087,438.045 C229.722,438.041 230.248,438.56 230.244,439.202 L230.244,441.989" fill="#FFFFFE"/>
    <path d="M244.761,441.989 C244.761,442.635 244.246,443.146 243.604,443.146 L235.201,443.146 C234.562,443.146 234.051,442.63 234.047,441.989 L234.054,439.202 C234.051,438.559 234.559,438.041 235.201,438.041 L243.604,438.045 C244.246,438.041 244.761,438.56 244.761,439.202 L244.761,441.989" fill="#FFFFFE"/>
    <path d="M259.277,441.989 C259.282,442.631 258.763,443.146 258.117,443.146 L249.725,443.146 C249.079,443.146 248.568,442.63 248.568,441.989 L248.568,439.202 C248.571,438.559 249.079,438.041 249.725,438.041 L258.117,438.041 C258.763,438.041 259.282,438.56 259.282,439.202 L259.277,441.989" fill="#FFFFFE"/>
    <path d="M273.802,441.989 C273.802,442.631 273.28,443.146 272.641,443.146 L264.243,443.146 C263.597,443.15 263.082,442.634 263.082,441.989 L263.082,439.202 C263.082,438.559 263.597,438.045 264.243,438.041 L272.639,438.041 C273.28,438.041 273.802,438.556 273.802,439.202 L273.802,441.989" fill="#FFFFFE"/>
    <path d="M288.322,441.989 C288.314,442.631 287.8,443.146 287.162,443.146 L278.755,443.146 C278.116,443.146 277.602,442.634 277.602,441.989 L277.602,439.202 C277.602,438.559 278.117,438.041 278.755,438.045 L287.162,438.041 C287.8,438.041 288.314,438.56 288.314,439.202 L288.322,441.989" fill="#FFFFFE"/>
    <path d="M302.836,441.989 C302.832,442.631 302.313,443.146 301.682,443.146 L293.28,443.146 C292.641,443.146 292.119,442.63 292.119,441.989 L292.123,439.202 C292.119,438.559 292.642,438.041 293.28,438.045 L301.678,438.045 C302.321,438.045 302.836,438.56 302.832,439.202 L302.836,441.989" fill="#FFFFFE"/>
    <path d="M317.359,441.989 C317.356,442.631 316.834,443.146 316.195,443.15 L307.799,443.142 C307.161,443.146 306.642,442.63 306.642,441.989 L306.642,439.202 C306.642,438.559 307.162,438.041 307.799,438.041 L316.195,438.045 C316.834,438.041 317.356,438.56 317.359,439.202 L317.359,441.989" fill="#FFFFFE"/>
    <path d="M331.876,441.989 C331.876,442.631 331.354,443.142 330.716,443.15 L322.32,443.142 C321.677,443.146 321.163,442.63 321.163,441.989 L321.163,439.202 C321.163,438.559 321.678,438.041 322.316,438.041 L330.715,438.041 C331.353,438.041 331.875,438.56 331.875,439.202 L331.875,441.989" fill="#FFFFFE"/>
    <path d="M186.687,450.251 C186.69,450.897 186.172,451.412 185.526,451.412 L177.13,451.412 C176.492,451.412 175.966,450.892 175.966,450.255 L175.966,447.464 C175.966,446.829 176.495,446.311 177.134,446.311 L185.53,446.307 C186.168,446.311 186.687,446.829 186.687,447.468 L186.687,450.251" fill="#FFFFFE"/>
    <path d="M201.211,450.255 C201.211,450.893 200.685,451.412 200.047,451.412 L191.654,451.412 C191.005,451.412 190.493,450.897 190.493,450.251 L190.493,447.468 C190.493,446.829 191.005,446.311 191.654,446.311 L200.047,446.307 C200.685,446.307 201.211,446.829 201.211,447.464 L201.211,450.255" fill="#FFFFFE"/>
    <path d="M215.728,450.255 C215.728,450.893 215.205,451.412 214.57,451.412 L206.164,451.412 C205.525,451.412 205.01,450.892 205.01,450.255 L205.01,447.468 C205.01,446.829 205.525,446.311 206.164,446.315 L214.567,446.311 C215.205,446.307 215.728,446.83 215.728,447.468 L215.728,450.255" fill="#FFFFFE"/>
    <path d="M230.244,450.255 C230.244,450.893 229.729,451.412 229.087,451.412 L220.684,451.412 C220.049,451.412 219.531,450.892 219.531,450.255 L219.531,447.468 C219.531,446.829 220.049,446.307 220.684,446.311 L229.087,446.315 C229.729,446.315 230.244,446.83 230.244,447.468 L230.244,450.255" fill="#FFFFFE"/>
    <path d="M244.761,450.255 C244.761,450.893 244.246,451.412 243.604,451.412 L235.201,451.412 C234.562,451.412 234.047,450.892 234.051,450.255 L234.054,447.468 C234.051,446.829 234.562,446.307 235.204,446.307 L243.604,446.311 C244.246,446.311 244.761,446.83 244.761,447.468 L244.761,450.255" fill="#FFFFFE"/>
    <path d="M259.282,450.255 C259.277,450.893 258.763,451.412 258.124,451.412 L249.728,451.412 C249.079,451.412 248.568,450.892 248.568,450.255 L248.568,447.468 C248.568,446.829 249.079,446.311 249.725,446.311 L258.124,446.307 C258.764,446.311 259.282,446.829 259.282,447.468 L259.282,450.255" fill="#FFFFFE"/>
    <path d="M273.802,450.255 C273.802,450.893 273.28,451.412 272.639,451.412 L264.243,451.412 C263.597,451.412 263.082,450.892 263.082,450.255 L263.082,447.468 C263.082,446.829 263.597,446.315 264.243,446.311 L272.639,446.307 C273.28,446.311 273.802,446.829 273.802,447.468 L273.802,450.255" fill="#FFFFFE"/>
    <path d="M288.314,450.255 C288.314,450.898 287.799,451.412 287.162,451.412 L278.755,451.412 C278.116,451.412 277.602,450.892 277.602,450.255 L277.602,447.468 C277.602,446.829 278.117,446.311 278.755,446.311 L287.162,446.311 C287.8,446.311 288.314,446.83 288.314,447.464 L288.314,450.255" fill="#FFFFFE"/>
    <path d="M302.836,450.255 C302.836,450.893 302.313,451.412 301.682,451.412 L293.28,451.412 C292.641,451.412 292.119,450.892 292.123,450.255 L292.123,447.468 C292.123,446.829 292.642,446.307 293.28,446.311 L301.682,446.311 C302.313,446.311 302.836,446.83 302.836,447.468 L302.836,450.255" fill="#FFFFFE"/>
    <path d="M317.359,450.255 C317.359,450.893 316.834,451.412 316.195,451.412 L307.799,451.412 C307.154,451.412 306.642,450.892 306.642,450.255 L306.642,447.468 C306.642,446.829 307.155,446.307 307.799,446.311 L316.195,446.315 C316.834,446.311 317.356,446.83 317.356,447.468 L317.359,450.255" fill="#FFFFFE"/>
    <path d="M331.876,450.255 C331.876,450.89 331.354,451.412 330.719,451.412 L322.321,451.412 C321.678,451.412 321.164,450.892 321.164,450.255 L321.164,447.468 C321.164,446.829 321.679,446.311 322.321,446.307 L330.717,446.311 C331.355,446.311 331.877,446.83 331.877,447.468 L331.877,450.255" fill="#FFFFFE"/>
    <path d="M186.687,458.517 C186.687,459.156 186.168,459.677 185.53,459.681 L177.13,459.677 C176.492,459.681 175.966,459.159 175.966,458.52 L175.966,455.731 C175.966,455.091 176.492,454.57 177.134,454.57 L185.526,454.57 C186.168,454.57 186.687,455.091 186.687,455.734 L186.687,458.517" fill="#FFFFFE"/>
    <path d="M201.211,458.52 C201.211,459.163 200.685,459.681 200.047,459.681 L191.654,459.677 C191.005,459.677 190.493,459.156 190.49,458.517 L190.493,455.734 C190.493,455.088 191.005,454.57 191.654,454.57 L200.047,454.57 C200.689,454.57 201.211,455.089 201.211,455.731 L201.211,458.52" fill="#FFFFFE"/>
    <path d="M215.721,458.52 C215.728,459.16 215.205,459.681 214.567,459.677 L206.164,459.677 C205.525,459.677 205.01,459.156 205.01,458.52 L205.01,455.734 C205.01,455.088 205.522,454.57 206.164,454.57 L214.57,454.57 C215.209,454.57 215.728,455.089 215.728,455.731 L215.721,458.52" fill="#FFFFFE"/>
    <path d="M230.241,458.52 C230.244,459.16 229.729,459.677 229.087,459.677 L220.684,459.677 C220.049,459.681 219.531,459.159 219.531,458.52 L219.527,455.734 C219.527,455.088 220.046,454.57 220.684,454.57 L229.087,454.57 C229.729,454.57 230.248,455.089 230.248,455.734 L230.241,458.52" fill="#FFFFFE"/>
    <path d="M244.761,458.517 C244.761,459.16 244.246,459.677 243.604,459.677 L235.204,459.681 C234.562,459.681 234.051,459.162 234.051,458.52 L234.051,455.734 C234.051,455.088 234.562,454.57 235.201,454.57 L243.604,454.57 C244.246,454.57 244.765,455.089 244.761,455.731 L244.761,458.517" fill="#FFFFFE"/>
    <path d="M259.282,458.52 C259.282,459.163 258.763,459.677 258.124,459.681 L249.725,459.677 C249.079,459.677 248.568,459.159 248.561,458.52 L248.571,455.734 C248.571,455.088 249.086,454.57 249.728,454.57 L258.117,454.57 C258.763,454.57 259.282,455.089 259.282,455.734 L259.282,458.52" fill="#FFFFFE"/>
    <path d="M273.802,458.52 C273.802,459.16 273.28,459.677 272.639,459.681 L264.243,459.677 C263.597,459.677 263.082,459.159 263.082,458.517 L263.082,455.731 C263.085,455.088 263.597,454.57 264.243,454.57 L272.641,454.57 C273.28,454.57 273.802,455.091 273.802,455.731 L273.802,458.52" fill="#FFFFFE"/>
    <path d="M288.314,458.52 C288.314,459.163 287.799,459.677 287.162,459.677 L278.755,459.677 C278.116,459.677 277.602,459.159 277.602,458.52 L277.598,455.734 C277.598,455.088 278.117,454.57 278.755,454.57 L287.162,454.57 C287.805,454.57 288.322,455.091 288.322,455.731 L288.314,458.52" fill="#FFFFFE"/>
    <path d="M302.832,458.52 C302.836,459.16 302.312,459.677 301.678,459.677 L293.28,459.677 C292.641,459.681 292.119,459.156 292.119,458.52 L292.119,455.734 C292.119,455.088 292.641,454.57 293.28,454.57 L301.682,454.57 C302.313,454.57 302.832,455.089 302.836,455.731 L302.832,458.52" fill="#FFFFFE"/>
    <path d="M317.359,458.517 C317.356,459.156 316.834,459.677 316.195,459.677 L307.799,459.677 C307.154,459.681 306.642,459.162 306.642,458.52 L306.642,455.731 C306.642,455.091 307.162,454.57 307.799,454.57 L316.195,454.57 C316.834,454.57 317.356,455.089 317.356,455.734 L317.359,458.517" fill="#FFFFFE"/>
    <path d="M331.876,458.517 C331.876,459.16 331.354,459.677 330.716,459.677 L322.32,459.681 C321.677,459.677 321.163,459.16 321.163,458.52 L321.163,455.731 C321.163,455.088 321.678,454.57 322.32,454.57 L330.716,454.57 C331.354,454.57 331.876,455.089 331.876,455.734 L331.876,458.517" fill="#FFFFFE"/>
    <path d="M186.687,466.782 C186.687,467.417 186.172,467.943 185.53,467.943 L177.134,467.943 C176.492,467.943 175.966,467.423 175.966,466.786 L175.966,463.988 C175.966,463.352 176.492,462.835 177.134,462.835 L185.53,462.835 C186.168,462.835 186.687,463.353 186.687,463.988 L186.687,466.782" fill="#FFFFFE"/>
    <path d="M201.211,466.786 C201.211,467.424 200.685,467.943 200.047,467.943 L191.65,467.943 C191.005,467.943 190.49,467.417 190.49,466.782 L190.493,463.988 C190.493,463.352 191.005,462.835 191.654,462.835 L200.047,462.835 C200.685,462.835 201.211,463.357 201.211,463.988 L201.211,466.786" fill="#FFFFFE"/>
    <path d="M215.728,466.782 C215.721,467.424 215.205,467.943 214.567,467.943 L206.167,467.943 C205.525,467.943 205.01,467.423 205.01,466.782 L205.01,463.988 C205.01,463.352 205.522,462.835 206.164,462.835 L214.57,462.835 C215.205,462.835 215.728,463.353 215.728,463.988 L215.728,466.782" fill="#FFFFFE"/>
    <path d="M230.244,466.782 C230.244,467.417 229.722,467.943 229.087,467.943 L220.688,467.943 C220.049,467.943 219.53,467.423 219.53,466.782 L219.527,463.988 C219.53,463.352 220.049,462.835 220.684,462.835 L229.087,462.835 C229.729,462.835 230.244,463.353 230.248,463.988 L230.244,466.782" fill="#FFFFFE"/>
    <path d="M288.322,466.782 C288.314,467.424 287.8,467.943 287.158,467.943 L278.755,467.943 C278.12,467.943 277.602,467.423 277.602,466.782 L277.598,463.988 C277.602,463.352 278.117,462.835 278.755,462.835 L287.162,462.835 C287.805,462.835 288.322,463.353 288.322,463.992 L288.322,466.782" fill="#FFFFFE"/>
    <path d="M302.832,466.782 C302.832,467.424 302.312,467.943 301.678,467.943 L293.28,467.943 C292.641,467.943 292.123,467.417 292.123,466.782 L292.119,463.988 C292.123,463.352 292.641,462.835 293.28,462.835 L301.678,462.835 C302.313,462.835 302.832,463.353 302.832,463.988 L302.832,466.782" fill="#FFFFFE"/>
    <path d="M317.359,466.782 C317.359,467.417 316.837,467.943 316.199,467.943 L307.799,467.943 C307.154,467.943 306.642,467.423 306.642,466.782 L306.642,463.992 C306.642,463.352 307.155,462.835 307.799,462.835 L316.195,462.835 C316.834,462.835 317.356,463.353 317.356,463.988 L317.359,466.782" fill="#FFFFFE"/>
    <path d="M331.876,466.782 C331.876,467.417 331.354,467.943 330.716,467.943 L322.32,467.943 C321.674,467.943 321.163,467.423 321.163,466.786 L321.163,463.988 C321.163,463.352 321.678,462.835 322.32,462.835 L330.716,462.835 C331.354,462.835 331.876,463.353 331.876,463.988 L331.876,466.782" fill="#FFFFFE"/>
    <path d="M274.148,466.959 C274.148,467.59 273.626,468.112 272.991,468.112 L235.162,468.112 C234.517,468.112 234.009,467.59 234.005,466.959 L234.009,463.83 C234.009,463.184 234.524,462.665 235.162,462.676 L272.991,462.662 C273.626,462.662 274.148,463.183 274.148,463.826 L274.148,466.959" fill="#FFFFFE"/>
    <path d="M254.029,434.775 L253.136,434.775 L253.136,423.92 L254.032,423.916 L254.029,434.775" fill="#CBCCCB"/>
    <path d="M281.391,422.653 C281.391,423.705 280.432,424.562 279.235,424.562 L227.413,424.565 C226.224,424.562 225.257,423.705 225.254,422.65 L225.254,406.21 C225.257,405.159 226.22,404.302 227.413,404.302 L279.235,404.302 C280.432,404.302 281.391,405.159 281.391,406.21 L281.391,422.653" fill="#FFFFFE"/>
    <path d="M374.199,348.542 L132.447,348.542 L138.822,340.018 L367.444,340.414 L374.199,348.542" fill="#FFFFFE"/>
    <path d="M312.936,405.97 C311.376,407.404 308.554,408.563 306.624,408.563 L195.319,408.563 C193.386,408.563 190.656,407.404 189.213,405.963 L133.001,349.924 C131.565,348.499 133.654,347.332 137.675,347.332 L369.106,347.332 C373.124,347.332 375.124,348.492 373.572,349.924 L312.936,405.97" fill="#1A1919"/>
    <path d="M310.688,399.98 L191.947,399.984 L150.488,352.295 L355.911,352.292 L310.688,399.98" fill="#3EB9C5"/>
    <path d="M278.607,397.486 L193.64,397.493 L159.001,354.846 L297.389,354.846 L278.607,397.486" fill="#FFFFFE"/>
    <path d="M278.607,397.486 L274.871,397.49 L291.314,354.845 L297.388,354.845 L278.607,397.486" fill="#CBCCCB"/>
    <path d="M295.706,358.659 L162.098,358.659 L159.001,354.846 L297.389,354.846 L295.706,358.659" fill="#D9256F"/>
    <path d="M277.34,385.02 L186.105,385.02 L170.551,365.069 L284.438,365.067 L277.34,385.02" fill="#EC9632"/>
    <path d="M270.863,373.257 L277.086,375.049 L270.01,376.834 L270.863,373.257" fill="#FFFFFE"/>
    <path d="M187.601,373.257 L182.14,375.046 L189.975,376.834 L187.601,373.257" fill="#FFFFFE"/>
    <path d="M290.375,360.303 L292.693,359.051 L293.98,360.303 L290.375,360.303" fill="#FFFFFE"/>
    <path d="M278.864,395.38 L277.15,396.629 L276.468,395.38 L278.864,395.38" fill="#FFFFFE"/>
    <path d="M282.975,385.453 L280.573,385.453 L289.907,362.021 L293.028,362.021 L282.975,385.453" fill="#FFFFFE"/>
    <path d="M203.493,363.746 L169.514,363.746 L166.825,360.296 L201.959,360.3 L203.493,363.746" fill="#3EB9C5"/>
    <path d="M233.959,363.746 L210.503,363.746 L209.617,361.383 L233.61,361.386 L233.959,363.746" fill="#3EB9C5"/>
    <path d="M259.384,363.746 L235.935,363.746 L235.635,361.383 L259.627,361.383 L259.384,363.746" fill="#3EB9C5"/>
    <path d="M284.805,363.746 L261.352,363.746 L261.653,361.386 L285.641,361.386 L284.805,363.746" fill="#3EB9C5"/>
    <path d="M231.899,387.996 L188.853,387.996 L188.01,386.906 L231.659,386.906 L231.899,387.996" fill="#1A1919"/>
    <path d="M232.375,390.18 L190.536,390.18 L189.692,389.09 L232.135,389.09 L232.375,390.18" fill="#CBCCCB"/>
    <path d="M232.848,392.359 L192.232,392.359 L191.389,391.267 L232.615,391.267 L232.848,392.359" fill="#CBCCCB"/>
    <path d="M233.321,394.537 L193.919,394.537 L193.072,393.447 L233.088,393.443 L233.321,394.537" fill="#CBCCCB"/>
    <path d="M273.7,394.809 L238.404,394.809 L237.229,386.815 L276.529,386.815 L273.7,394.809" fill="#CBCCCB"/>
    <path d="M331.354,367.376 C328.43,370.841 319.95,373.645 312.415,373.648 C304.879,373.644 300.3,370.84 302.19,367.376 C304.082,363.919 312.555,361.111 321.125,361.111 C329.689,361.111 334.272,363.919 331.354,367.376" fill="#CBCCCB"/>
    <path d="M329.305,367.376 C326.861,370.354 319.569,372.764 313.028,372.764 C306.476,372.764 302.544,370.35 304.229,367.376 C305.916,364.402 313.201,361.99 320.51,361.99 C327.816,361.99 331.76,364.402 329.305,367.376" fill="#FFFFFE"/>
    <path d="M316.897,367.874 L315.79,367.874 L319.003,363.203 L320.164,363.203 L316.897,367.874" fill="#E3722B"/>
    <path d="M315.768,367.906 L316.096,367.422 L326.973,367.422 L326.588,367.906 L315.768,367.906" fill="#E3722B"/>
    <path d="M316.157,390.18 L285.966,390.18 L291.864,378.278 L326.821,378.278 L316.157,390.18" fill="#FFFFFE"/>
    <path d="M318.305,385.661 L289.938,385.661 L292.955,379.84 L323.393,379.84 L318.305,385.661" fill="#BFD338"/>
    <path d="M291.102,387.372 L289.018,387.372 L289.533,386.37 L291.643,386.37 L291.102,387.372" fill="#CBCCCB"/>
    <path d="M293.956,387.372 L291.868,387.372 L292.422,386.37 L294.538,386.37 L293.956,387.372" fill="#CBCCCB"/>
    <path d="M296.807,387.372 L294.718,387.375 L295.307,386.367 L297.417,386.37 L296.807,387.372" fill="#CBCCCB"/>
    <path d="M299.657,387.372 L297.568,387.372 L298.2,386.366 L300.312,386.37 L299.657,387.372" fill="#CBCCCB"/>
    <path d="M302.516,387.372 L300.419,387.372 L301.093,386.37 L303.202,386.366 L302.516,387.372" fill="#CBCCCB"/>
    <path d="M305.361,387.375 L303.273,387.372 L303.974,386.37 L306.084,386.37 L305.361,387.375" fill="#CBCCCB"/>
    <path d="M308.208,387.375 L306.127,387.372 L306.861,386.367 L308.981,386.37 L308.208,387.375" fill="#CBCCCB"/>
    <path d="M311.062,387.372 L308.976,387.372 L309.746,386.366 L311.863,386.37 L311.062,387.372" fill="#CBCCCB"/>
    <path d="M313.913,387.372 L311.835,387.372 L312.643,386.37 L314.756,386.37 L313.913,387.372" fill="#CBCCCB"/>
    <path d="M316.77,387.372 L314.678,387.372 L315.532,386.37 L317.649,386.37 L316.77,387.372" fill="#CBCCCB"/>
    <path d="M290.266,388.917 L288.213,388.917 L288.734,387.912 L290.801,387.912 L290.266,388.917" fill="#CBCCCB"/>
    <path d="M293.061,388.917 L291.014,388.917 L291.569,387.912 L293.643,387.912 L293.061,388.917" fill="#CBCCCB"/>
    <path d="M295.857,388.917 L293.81,388.917 L294.396,387.912 L296.47,387.912 L295.857,388.917" fill="#CBCCCB"/>
    <path d="M298.648,388.917 L296.601,388.917 L297.226,387.912 L299.296,387.912 L298.648,388.917" fill="#CBCCCB"/>
    <path d="M301.441,388.917 L299.398,388.917 L300.062,387.912 L302.129,387.915 L301.441,388.917" fill="#CBCCCB"/>
    <path d="M304.24,388.917 L302.193,388.917 L302.896,387.915 L304.97,387.912 L304.24,388.917" fill="#CBCCCB"/>
    <path d="M307.034,388.917 L304.991,388.917 L305.724,387.912 L307.798,387.912 L307.034,388.917" fill="#CBCCCB"/>
    <path d="M309.831,388.917 L307.789,388.917 L308.554,387.912 L310.625,387.912 L309.831,388.917" fill="#CBCCCB"/>
    <path d="M312.625,388.917 L310.583,388.917 L311.394,387.912 L313.461,387.912 L312.625,388.917" fill="#CBCCCB"/>
    <path d="M315.419,388.917 L313.373,388.917 L314.223,387.912 L316.301,387.912 L315.419,388.917" fill="#CBCCCB"/>
    <path d="M313.44,383.721 C312.769,384.571 310.904,385.262 309.281,385.262 C307.662,385.262 306.836,384.571 307.45,383.721 C308.059,382.867 309.929,382.175 311.623,382.175 C313.299,382.175 314.121,382.867 313.44,383.721" fill="#EFE727"/>
    <path d="M313.688,383.59 C313.634,383.59 313.585,383.59 313.536,383.59 C314.015,382.825 313.267,382.218 311.787,382.18 C311.815,382.137 311.843,382.094 311.875,382.052 C312.527,381.196 314.443,380.503 316.161,380.503 C317.883,380.503 318.705,381.198 317.992,382.052 C317.283,382.899 315.36,383.59 313.699,383.59 C313.694,383.59 313.691,383.59 313.688,383.59" fill="#8AC140"/>
    <path d="M313.535,383.59 C312.075,383.551 311.327,382.942 311.786,382.18 C313.267,382.218 314.015,382.825 313.535,383.59" fill="#AFCD39"/>
    <path d="M310.657,400.054 L191.89,400.054 L166.444,370.852 C166.444,370.852 166.508,370.856 166.628,370.862 L191.947,399.985 L310.688,399.981 L315.973,394.407 L310.657,400.054" fill="#222121"/>
    <path d="M191.947,399.984 L166.628,370.861 C167.213,370.894 169.182,371.007 172.286,371.204 L193.64,397.493 L274.871,397.486 L274.871,397.49 L278.607,397.486 L284.847,383.318 C286.243,383.554 287.633,383.795 289.006,384.038 L285.965,390.18 L316.155,390.18 L316.424,389.877 C317.457,390.148 318.47,390.42 319.465,390.695 L315.972,394.406 L310.687,399.98 L191.947,399.984" fill="#56B4BD"/>
    <path d="M193.64,397.493 L172.286,371.204 C173.249,371.264 174.322,371.331 175.497,371.409 L186.105,385.019 L277.34,385.019 L278.325,382.252 C279.087,382.372 279.846,382.492 280.603,382.615 L274.871,397.485 L193.64,397.493 M237.229,386.814 L238.404,394.808 L273.7,394.808 L276.529,386.814 L237.229,386.814 M233.321,394.537 L233.321,394.537 L233.088,393.443 L193.072,393.447 L193.919,394.537 L233.321,394.537 M232.848,392.359 L232.848,392.359 L232.615,391.267 L191.389,391.267 L192.232,392.359 L232.848,392.359 M232.375,390.18 L232.375,390.18 L232.135,389.09 L189.692,389.09 L190.536,390.18 L232.375,390.18 M231.899,387.996 L231.899,387.996 L231.659,386.906 L188.01,386.906 L188.853,387.996 L231.899,387.996" fill="#ECECEB"/>
    <path d="M274.871,397.49 L274.871,397.486 L280.603,382.617 C280.945,382.673 281.291,382.728 281.633,382.786 L280.571,385.453 L282.973,385.453 L283.953,383.167 C284.253,383.221 284.545,383.27 284.846,383.318 L278.606,397.486 L274.871,397.49 M276.469,395.38 L277.151,396.629 L278.865,395.38 L276.469,395.38" fill="#BFC0BF"/>
    <path d="M277.34,385.02 L186.105,385.02 L175.497,371.41 C194.261,372.651 238.954,376.03 278.325,382.254 L277.34,385.02 M187.601,373.257 L182.14,375.046 L189.975,376.834 L187.601,373.257" fill="#DE953F"/>
    <path d="M189.975,376.834 L182.14,375.046 L187.601,373.257 L189.975,376.834" fill="#ECECEB"/>
    <path d="M277.15,396.629 L276.468,395.38 L278.864,395.38 L277.15,396.629" fill="#ECECEB"/>
    <path d="M282.975,385.453 L280.573,385.453 L281.635,382.786 C282.411,382.913 283.183,383.04 283.956,383.167 L282.975,385.453" fill="#ECECEB"/>
    <path d="M231.899,387.996 L188.853,387.996 L188.01,386.906 L231.659,386.906 L231.899,387.996" fill="#222121"/>
    <path d="M232.375,390.18 L190.536,390.18 L189.692,389.09 L232.135,389.09 L232.375,390.18" fill="#BFC0BF"/>
    <path d="M232.848,392.359 L192.232,392.359 L191.389,391.267 L232.615,391.267 L232.848,392.359" fill="#BFC0BF"/>
    <path d="M233.321,394.537 L193.919,394.537 L193.072,393.447 L233.088,393.443 L233.321,394.537" fill="#BFC0BF"/>
    <path d="M273.7,394.809 L238.404,394.809 L237.229,386.815 L276.529,386.815 L273.7,394.809" fill="#BFC0BF"/>
    <path d="M316.157,390.18 L285.966,390.18 L289.007,384.038 C289.55,384.133 290.09,384.232 290.629,384.327 L289.938,385.661 L297.717,385.661 C298.906,385.896 300.077,386.13 301.245,386.37 L301.093,386.37 L300.419,387.372 L302.516,387.372 L302.956,386.726 C303.178,386.775 303.404,386.822 303.626,386.871 L303.273,387.372 L305.361,387.375 L305.443,387.264 C306.487,387.489 307.509,387.718 308.526,387.951 L307.789,388.918 L309.831,388.918 L310.276,388.356 C310.491,388.407 310.699,388.456 310.914,388.504 L310.583,388.917 L312.622,388.917 C313.913,389.23 315.183,389.552 316.425,389.877 L316.157,390.18 M305.725,387.912 L304.992,388.917 L307.035,388.917 L307.8,387.912 L305.725,387.912 M304.971,387.912 L302.897,387.915 L302.194,388.917 L304.241,388.917 L304.971,387.912 M300.062,387.912 L299.4,388.917 L301.441,388.917 L302.129,387.915 L300.062,387.912 M297.227,387.912 L296.602,388.917 L298.649,388.917 L299.297,387.912 L297.227,387.912 M294.396,387.912 L293.812,388.917 L295.857,388.917 L296.47,387.912 L294.396,387.912 M291.568,387.912 L291.013,388.917 L293.06,388.917 L293.642,387.912 L291.568,387.912 M288.734,387.912 L288.213,388.917 L290.266,388.917 L290.802,387.912 L288.734,387.912 M295.307,386.366 L294.718,387.375 L296.807,387.372 L297.417,386.37 L295.307,386.366 M298.2,386.366 L297.568,387.372 L299.657,387.372 L300.312,386.37 L298.2,386.366 M292.422,386.37 L291.868,387.372 L293.956,387.372 L294.538,386.37 L292.422,386.37 M289.532,386.37 L289.017,387.372 L291.101,387.372 L291.642,386.37 L289.532,386.37" fill="#ECECEB"/>
    <path d="M297.717,385.661 L289.938,385.661 L290.629,384.327 C293.025,384.761 295.395,385.206 297.717,385.661" fill="#B7C849"/>
    <path d="M291.102,387.372 L289.018,387.372 L289.533,386.37 L291.643,386.37 L291.102,387.372" fill="#BFC0BF"/>
    <path d="M293.956,387.372 L291.868,387.372 L292.422,386.37 L294.538,386.37 L293.956,387.372" fill="#BFC0BF"/>
    <path d="M294.718,387.375 L295.307,386.367 L297.417,386.37 L296.807,387.372 L294.718,387.375" fill="#BFC0BF"/>
    <path d="M299.657,387.372 L297.568,387.372 L298.2,386.366 L300.312,386.37 L299.657,387.372" fill="#BFC0BF"/>
    <path d="M302.516,387.372 L300.419,387.372 L301.093,386.37 L301.245,386.37 C301.816,386.49 302.391,386.609 302.956,386.726 L302.516,387.372" fill="#BFC0BF"/>
    <path d="M305.361,387.375 L303.273,387.372 L303.626,386.871 C304.236,386.998 304.843,387.129 305.443,387.264 L305.361,387.375" fill="#BFC0BF"/>
    <path d="M290.266,388.917 L288.213,388.917 L288.734,387.912 L290.801,387.912 L290.266,388.917" fill="#BFC0BF"/>
    <path d="M293.061,388.917 L291.014,388.917 L291.569,387.912 L293.643,387.912 L293.061,388.917" fill="#BFC0BF"/>
    <path d="M295.857,388.917 L293.81,388.917 L294.396,387.912 L296.47,387.912 L295.857,388.917" fill="#BFC0BF"/>
    <path d="M298.648,388.917 L296.601,388.917 L297.226,387.912 L299.296,387.912 L298.648,388.917" fill="#BFC0BF"/>
    <path d="M301.441,388.917 L299.398,388.917 L300.062,387.912 L302.129,387.915 L301.441,388.917" fill="#BFC0BF"/>
    <path d="M304.24,388.917 L302.193,388.917 L302.896,387.915 L304.97,387.912 L304.24,388.917" fill="#BFC0BF"/>
    <path d="M307.034,388.917 L304.991,388.917 L305.724,387.912 L307.798,387.912 L307.034,388.917" fill="#BFC0BF"/>
    <path d="M309.831,388.917 L307.789,388.917 L308.526,387.95 C309.112,388.085 309.697,388.219 310.276,388.355 L309.831,388.917" fill="#BFC0BF"/>
    <path d="M312.622,388.917 L310.583,388.917 L310.914,388.504 C311.486,388.643 312.057,388.779 312.622,388.917" fill="#BFC0BF"/>
    <path d="M276.762,444.518 L290.887,454.477 L293.145,459.226 L293.703,481.074 L305.533,500 L286.492,500 L279.15,487.095 L272.835,481.734 L270.395,475.016 L269.227,463.184 L267.954,456.323 L268.458,449.313 L270.981,448.473 L275.743,454.372 L278.929,466.606 L277.13,454.427 L272.942,450.268 L271.844,445.196 L276.762,444.518 z" fill="#F7CFA1"/>
    <path d="M269.248,455.204 L273.852,453.363 L271.122,450.036 L269.383,450.599 L269.248,455.204" fill="#FCF5D5"/>
    <path d="M280.857,447.694 L288.036,457.945 L293.702,481.073 L305.533,500 L300.323,500 L288.668,480.583 L286.279,458.305 L280.857,447.694 z" fill="#F2B28B"/>
    <path d="M277.824,462.464 L279.097,475.232 L279.107,465.915 L277.824,462.464" fill="#F2B28B"/>
    <path d="M230.541,444.511 L235.448,445.19 L234.34,450.265 L230.163,454.435 L228.353,466.602 L231.55,454.373 L236.333,448.474 L238.817,449.31 L239.332,456.338 L238.058,463.178 L236.901,475.017 L234.446,481.735 L228.124,487.096 L220.794,500 L201.766,500 L213.597,481.073 L214.147,459.228 L216.408,454.476 L230.541,444.511 z" fill="#F7CFA1"/>
    <path d="M238.051,455.204 L233.444,453.363 L236.171,450.056 L237.9,450.618 L238.051,455.204" fill="#FCF5D5"/>
    <path d="M226.441,447.686 L221.005,458.305 L218.61,480.583 L206.967,500 L201.766,500 L213.597,481.073 L219.255,457.945 L226.441,447.686 z" fill="#F2B28B"/>
    <path d="M229.461,462.464 L228.202,475.245 L228.184,465.907 L229.461,462.464" fill="#F2B28B"/>
    <path d="M302.938,489.692 L307.49,495.766 L301.174,500 L289.65,500 L302.938,489.692 z" fill="#FFFFFE"/>
    <path d="M307.489,495.767 L310.328,500 L301.174,500 L307.489,495.767 z" fill="#636463"/>
    <path d="M204.696,489.999 L217.603,500 L205.994,500 L200.128,496.073 L204.696,489.999 z" fill="#FFFFFE"/>
    <path d="M200.128,496.074 L205.994,500 L197.212,500 L200.128,496.074 z" fill="#636463"/>
    <path d="M235.448,445.189 L231.137,446.039 L228.6,445.877 L230.541,444.511 L235.448,445.189" fill="#FCF5D5"/>
    <path d="M271.844,445.196 L276.159,446.064 L278.829,445.932 L276.762,444.518 L271.844,445.196" fill="#FCF5D5"/>
    <path d="M375.025,239.844 C375.025,284.686 318.958,321.043 249.788,321.043 C180.623,321.043 124.552,284.686 124.552,239.844 C124.552,194.998 180.623,158.648 249.788,158.648 C318.958,158.648 375.025,194.998 375.025,239.844" fill="#FFFFFE"/>
    <path d="M238.729,175.606 L249.788,143.468 L260.848,175.606 L238.729,175.606" fill="#FFFFFE"/>
    <path d="M139.923,250.902 L107.781,239.843 L139.923,228.786 L139.923,250.902" fill="#FFFFFE"/>
    <path d="M357.668,228.791 L389.813,239.847 L357.668,250.9 L357.668,228.791" fill="#FFFFFE"/>
    <path d="M260.848,306.039 L249.786,338.18 L238.733,306.039 L260.848,306.039" fill="#FFFFFE"/>
  </g>
  <g id="cascading-media">
    <g id="Typography">
      <path d="M177.04,235.855 C175.705,237.457 174.023,238.65 171.992,239.435 C169.962,240.22 167.893,240.615 165.789,240.615 C163.418,240.615 161.254,240.199 159.297,239.369 C157.341,238.539 155.651,237.39 154.228,235.923 C152.805,234.455 151.701,232.699 150.916,230.653 C150.13,228.607 149.737,226.384 149.737,223.983 C149.737,221.582 150.13,219.358 150.916,217.312 C151.701,215.267 152.806,213.51 154.228,212.042 C155.651,210.575 157.348,209.427 159.32,208.597 C161.292,207.767 163.449,207.352 165.79,207.352 C167.747,207.352 169.651,207.685 171.504,208.352 C173.358,209.019 174.937,210.035 176.24,211.399 L175.617,212.11 C174.995,211.458 174.291,210.887 173.505,210.398 C172.72,209.909 171.89,209.501 171.015,209.174 C170.141,208.849 169.259,208.612 168.369,208.463 C167.48,208.316 166.62,208.24 165.79,208.24 C163.537,208.24 161.484,208.648 159.631,209.464 C157.778,210.278 156.193,211.399 154.873,212.821 C153.555,214.244 152.531,215.911 151.806,217.823 C151.079,219.735 150.716,221.789 150.716,223.982 C150.716,226.176 151.071,228.229 151.783,230.14 C152.494,232.052 153.51,233.72 154.829,235.143 C156.148,236.566 157.734,237.685 159.587,238.499 C161.441,239.314 163.507,239.723 165.79,239.723 C167.747,239.723 169.681,239.345 171.594,238.589 C173.505,237.833 175.084,236.699 176.329,235.187 L177.04,235.855 z" fill="#30343A"/>
      <path d="M196.516,235.101 C196.516,235.872 196.554,236.694 196.627,237.568 C196.702,238.443 196.783,239.163 196.872,239.725 L195.938,239.725 C195.878,239.429 195.834,239.065 195.804,238.635 C195.775,238.205 195.738,237.761 195.693,237.301 C195.649,236.842 195.619,236.39 195.605,235.946 C195.589,235.501 195.582,235.131 195.582,234.835 L195.449,234.835 C194.856,236.702 193.833,238.088 192.381,238.991 C190.929,239.895 189.372,240.347 187.712,240.347 C186.882,240.347 186.059,240.229 185.244,239.992 C184.429,239.756 183.695,239.399 183.042,238.926 C182.391,238.451 181.864,237.843 181.464,237.103 C181.065,236.362 180.864,235.487 180.864,234.479 C180.864,233.026 181.241,231.855 181.998,230.966 C182.754,230.076 183.695,229.387 184.821,228.898 C185.948,228.409 187.156,228.09 188.445,227.943 C189.734,227.794 190.913,227.72 191.98,227.72 L195.538,227.72 L195.538,226.074 C195.538,223.792 194.931,222.124 193.715,221.071 C192.499,220.019 190.913,219.493 188.957,219.493 C187.741,219.493 186.607,219.715 185.556,220.16 C184.503,220.604 183.562,221.198 182.732,221.938 L182.199,221.182 C183.147,220.352 184.221,219.722 185.423,219.292 C186.625,218.862 187.802,218.646 188.958,218.646 C191.3,218.646 193.146,219.247 194.494,220.448 C195.843,221.648 196.516,223.538 196.516,226.118 L196.516,235.101 z M195.538,228.563 L192.381,228.563 C191.254,228.563 190.069,228.629 188.823,228.763 C187.578,228.896 186.437,229.171 185.399,229.585 C184.361,230 183.509,230.593 182.842,231.363 C182.175,232.134 181.841,233.173 181.841,234.476 C181.841,235.425 182.027,236.217 182.398,236.855 C182.768,237.492 183.243,238.003 183.821,238.389 C184.399,238.775 185.036,239.056 185.733,239.234 C186.429,239.412 187.088,239.501 187.712,239.501 C189.224,239.501 190.483,239.22 191.491,238.656 C192.499,238.094 193.307,237.375 193.915,236.5 C194.523,235.625 194.944,234.661 195.183,233.609 C195.42,232.557 195.538,231.526 195.538,230.518 L195.538,228.563 z" fill="#30343A"/>
      <path d="M216.749,234.389 C216.749,235.308 216.571,236.13 216.216,236.857 C215.86,237.584 215.378,238.199 214.771,238.703 C214.163,239.207 213.459,239.593 212.659,239.859 C211.859,240.126 210.999,240.258 210.08,240.258 C208.568,240.258 207.197,239.97 205.967,239.391 C204.737,238.814 203.721,237.961 202.92,236.834 L203.721,236.301 C205.204,238.376 207.338,239.413 210.125,239.413 C210.776,239.413 211.436,239.309 212.104,239.102 C212.771,238.894 213.378,238.582 213.927,238.167 C214.475,237.752 214.919,237.233 215.261,236.61 C215.602,235.988 215.772,235.277 215.772,234.476 C215.772,233.527 215.557,232.756 215.127,232.164 C214.697,231.57 214.156,231.096 213.504,230.74 C212.853,230.385 212.133,230.095 211.347,229.873 C210.562,229.65 209.828,229.451 209.147,229.273 C208.406,229.065 207.709,228.835 207.057,228.583 C206.405,228.332 205.833,228.006 205.344,227.605 C204.856,227.205 204.47,226.709 204.189,226.116 C203.907,225.523 203.766,224.782 203.766,223.892 C203.766,223.002 203.944,222.232 204.299,221.58 C204.655,220.928 205.129,220.387 205.723,219.957 C206.315,219.526 206.99,219.201 207.746,218.978 C208.501,218.756 209.265,218.644 210.036,218.644 C212.822,218.644 214.912,219.638 216.306,221.624 L215.461,222.112 C214.778,221.223 214.008,220.563 213.149,220.133 C212.289,219.703 211.252,219.488 210.037,219.488 C209.474,219.488 208.881,219.562 208.258,219.71 C207.636,219.859 207.065,220.104 206.546,220.444 C206.027,220.784 205.598,221.237 205.257,221.799 C204.915,222.363 204.744,223.044 204.744,223.845 C204.744,224.735 204.886,225.446 205.167,225.98 C205.448,226.513 205.842,226.944 206.346,227.269 C206.85,227.595 207.457,227.87 208.169,228.092 C208.88,228.314 209.666,228.529 210.525,228.737 C211.326,228.945 212.103,229.189 212.86,229.47 C213.616,229.752 214.283,230.1 214.861,230.515 C215.439,230.931 215.898,231.45 216.24,232.072 C216.578,232.699 216.749,233.47 216.749,234.389 z" fill="#30343A"/>
      <path d="M238.271,222.026 C237.5,221.226 236.595,220.603 235.559,220.159 C234.521,219.714 233.438,219.492 232.313,219.492 C230.86,219.492 229.555,219.766 228.399,220.314 C227.243,220.862 226.257,221.596 225.442,222.515 C224.627,223.434 223.997,224.501 223.552,225.717 C223.108,226.932 222.885,228.207 222.885,229.541 C222.885,230.875 223.108,232.149 223.552,233.365 C223.996,234.58 224.626,235.639 225.442,236.544 C226.258,237.449 227.243,238.167 228.399,238.701 C229.555,239.234 230.86,239.501 232.313,239.501 C233.438,239.501 234.542,239.309 235.625,238.924 C236.707,238.538 237.648,237.96 238.448,237.19 L239.115,237.812 C238.225,238.702 237.18,239.346 235.979,239.747 C234.779,240.147 233.556,240.347 232.312,240.347 C230.799,240.347 229.414,240.08 228.154,239.547 C226.894,239.013 225.798,238.272 224.863,237.323 C223.929,236.375 223.203,235.233 222.684,233.899 C222.165,232.565 221.906,231.112 221.906,229.542 C221.906,227.971 222.166,226.518 222.684,225.184 C223.202,223.85 223.929,222.702 224.863,221.738 C225.798,220.775 226.894,220.019 228.154,219.47 C229.414,218.922 230.8,218.647 232.312,218.647 C233.616,218.647 234.853,218.884 236.025,219.359 C237.196,219.834 238.195,220.501 239.026,221.361 L238.271,222.026 z" fill="#30343A"/>
      <path d="M259.082,235.101 C259.082,235.872 259.119,236.694 259.193,237.568 C259.267,238.443 259.348,239.163 259.437,239.725 L258.503,239.725 C258.443,239.429 258.399,239.065 258.369,238.635 C258.341,238.205 258.303,237.761 258.259,237.301 C258.213,236.842 258.185,236.39 258.169,235.946 C258.155,235.501 258.148,235.131 258.148,234.835 L258.014,234.835 C257.421,236.702 256.399,238.088 254.946,238.991 C253.493,239.895 251.937,240.347 250.278,240.347 C249.447,240.347 248.625,240.229 247.809,239.992 C246.994,239.756 246.26,239.399 245.608,238.926 C244.956,238.451 244.429,237.843 244.03,237.103 C243.629,236.362 243.429,235.487 243.429,234.479 C243.429,233.026 243.807,231.855 244.563,230.966 C245.319,230.076 246.26,229.387 247.387,228.898 C248.512,228.409 249.721,228.09 251.01,227.943 C252.3,227.794 253.479,227.72 254.546,227.72 L258.103,227.72 L258.103,226.074 C258.103,223.792 257.496,222.124 256.28,221.071 C255.064,220.019 253.479,219.493 251.522,219.493 C250.306,219.493 249.173,219.715 248.121,220.16 C247.068,220.604 246.127,221.198 245.298,221.938 L244.764,221.182 C245.712,220.352 246.787,219.722 247.988,219.292 C249.189,218.862 250.367,218.646 251.523,218.646 C253.865,218.646 255.711,219.247 257.059,220.448 C258.408,221.648 259.082,223.538 259.082,226.118 L259.082,235.101 z M258.104,228.563 L254.947,228.563 C253.82,228.563 252.635,228.629 251.39,228.763 C250.145,228.896 249.002,229.171 247.965,229.585 C246.928,230 246.075,230.593 245.408,231.363 C244.741,232.134 244.407,233.173 244.407,234.476 C244.407,235.425 244.593,236.217 244.964,236.855 C245.334,237.492 245.809,238.003 246.387,238.389 C246.965,238.775 247.602,239.056 248.299,239.234 C248.996,239.412 249.654,239.501 250.278,239.501 C251.789,239.501 253.049,239.22 254.057,238.656 C255.064,238.094 255.871,237.375 256.48,236.5 C257.089,235.625 257.51,234.661 257.748,233.609 C257.984,232.557 258.103,231.526 258.103,230.518 L258.103,228.563 z" fill="#30343A"/>
      <path d="M285.62,194.979 L286.556,194.979 L286.564,239.725 L285.585,239.725 L285.585,234.211 L285.453,234.211 C284.562,236.227 283.295,237.753 281.65,238.791 C280.004,239.828 278.204,240.347 276.248,240.347 C274.765,240.347 273.394,240.074 272.134,239.525 C270.875,238.977 269.792,238.221 268.888,237.257 C267.985,236.293 267.28,235.153 266.776,233.833 C266.272,232.513 266.02,231.083 266.02,229.542 C266.02,228 266.272,226.563 266.776,225.229 C267.28,223.895 267.985,222.739 268.888,221.76 C269.792,220.781 270.875,220.019 272.134,219.47 C273.395,218.922 274.765,218.647 276.248,218.647 C278.204,218.647 280.005,219.167 281.65,220.204 C283.295,221.242 284.562,222.783 285.453,224.829 L285.585,224.829 L285.62,194.979 z M266.998,229.542 C266.998,230.876 267.212,232.15 267.642,233.366 C268.072,234.581 268.687,235.64 269.488,236.545 C270.288,237.449 271.259,238.168 272.401,238.702 C273.543,239.235 274.824,239.502 276.248,239.502 C277.611,239.502 278.863,239.235 280.005,238.702 C281.148,238.168 282.133,237.449 282.962,236.545 C283.793,235.641 284.444,234.581 284.919,233.366 C285.394,232.15 285.63,230.86 285.63,229.497 C285.63,228.134 285.394,226.844 284.919,225.629 C284.444,224.413 283.793,223.354 282.962,222.449 C282.133,221.545 281.148,220.826 280.005,220.293 C278.863,219.759 277.611,219.492 276.248,219.492 C274.824,219.492 273.543,219.766 272.401,220.314 C271.259,220.862 270.288,221.596 269.488,222.515 C268.687,223.434 268.072,224.501 267.642,225.717 C267.212,226.933 266.998,228.208 266.998,229.542 z" fill="#30343A"/>
      <path d="M296.123,211.577 C295.856,211.577 295.619,211.473 295.411,211.265 C295.204,211.057 295.1,210.776 295.1,210.42 C295.1,210.094 295.204,209.826 295.411,209.619 C295.619,209.412 295.856,209.307 296.123,209.307 C296.391,209.307 296.628,209.411 296.835,209.619 C297.043,209.826 297.147,210.094 297.147,210.42 C297.147,210.775 297.036,211.057 296.814,211.265 C296.591,211.474 296.361,211.577 296.123,211.577 z M295.628,246.648 L295.634,219.269 L296.613,219.269 L296.606,246.648 L295.628,246.648 z" fill="#30343A"/>
      <path d="M306.841,224.65 C307.137,223.702 307.567,222.857 308.129,222.115 C308.692,221.374 309.33,220.745 310.042,220.225 C310.753,219.706 311.524,219.314 312.354,219.047 C313.185,218.779 314.044,218.646 314.933,218.646 C316.357,218.646 317.541,218.899 318.492,219.403 C319.44,219.907 320.196,220.574 320.76,221.404 C321.322,222.234 321.723,223.168 321.96,224.205 C322.197,225.243 322.315,226.295 322.315,227.362 L322.315,239.724 L321.336,239.724 L321.336,227.452 C321.336,226.622 321.247,225.732 321.069,224.784 C320.892,223.835 320.557,222.974 320.07,222.204 C319.58,221.433 318.921,220.789 318.091,220.269 C317.261,219.75 316.208,219.492 314.933,219.492 C313.807,219.492 312.747,219.721 311.754,220.18 C310.761,220.64 309.901,221.3 309.174,222.159 C308.448,223.019 307.87,224.064 307.441,225.294 C307.012,226.524 306.795,227.925 306.795,229.496 L306.795,239.724 L305.817,239.724 L305.817,224.427 C305.817,224.101 305.809,223.701 305.796,223.227 C305.78,222.752 305.766,222.271 305.751,221.782 C305.736,221.293 305.714,220.826 305.684,220.381 C305.655,219.937 305.624,219.567 305.595,219.27 L306.574,219.27 C306.603,219.567 306.626,219.937 306.641,220.381 C306.656,220.826 306.67,221.308 306.685,221.826 C306.7,222.346 306.714,222.849 306.73,223.338 C306.745,223.827 306.751,224.265 306.751,224.65 L306.841,224.65 z" fill="#30343A"/>
      <path d="M348.906,234.211 L348.772,234.211 C348.386,235.219 347.869,236.101 347.216,236.857 C346.563,237.613 345.837,238.251 345.037,238.769 C344.236,239.288 343.369,239.681 342.435,239.948 C341.501,240.215 340.545,240.347 339.567,240.347 C338.085,240.347 336.713,240.074 335.454,239.525 C334.194,238.977 333.112,238.221 332.208,237.257 C331.303,236.293 330.6,235.153 330.097,233.833 C329.592,232.513 329.34,231.083 329.34,229.542 C329.34,228 329.592,226.563 330.097,225.229 C330.6,223.895 331.303,222.739 332.208,221.76 C333.112,220.781 334.194,220.019 335.454,219.47 C336.714,218.922 338.085,218.647 339.567,218.647 C341.524,218.647 343.325,219.167 344.969,220.204 C346.615,221.242 347.882,222.783 348.771,224.829 L348.905,224.829 L348.905,219.27 L349.883,219.27 L349.883,238.569 C349.883,240.2 349.713,241.756 349.373,243.238 C349.032,244.721 348.468,246.025 347.683,247.151 C346.898,248.278 345.86,249.174 344.57,249.841 C343.282,250.508 341.688,250.842 339.79,250.842 C337.863,250.842 336.144,250.508 334.633,249.841 C333.121,249.174 331.831,248.233 330.764,247.018 L331.432,246.351 C332.558,247.625 333.839,248.552 335.278,249.13 C336.716,249.708 338.22,249.997 339.791,249.997 C341.57,249.997 343.053,249.671 344.238,249.018 C345.425,248.367 346.357,247.506 347.04,246.439 C347.722,245.373 348.203,244.149 348.484,242.77 C348.766,241.391 348.907,239.961 348.907,238.479 L348.907,234.211 z M330.318,229.542 C330.318,230.876 330.534,232.15 330.964,233.366 C331.394,234.581 332.009,235.648 332.81,236.567 C333.61,237.486 334.581,238.213 335.722,238.746 C336.863,239.279 338.146,239.547 339.569,239.547 C340.933,239.547 342.185,239.279 343.327,238.746 C344.468,238.213 345.453,237.486 346.284,236.567 C347.114,235.648 347.766,234.581 348.24,233.366 C348.715,232.15 348.952,230.86 348.952,229.497 C348.952,228.134 348.715,226.844 348.24,225.629 C347.766,224.413 347.114,223.354 346.284,222.449 C345.453,221.545 344.468,220.826 343.327,220.293 C342.185,219.759 340.933,219.492 339.569,219.492 C338.146,219.492 336.864,219.766 335.722,220.314 C334.58,220.862 333.61,221.596 332.81,222.515 C332.009,223.434 331.394,224.501 330.964,225.717 C330.534,226.933 330.318,228.208 330.318,229.542 z" fill="#30343A"/>
      <path d="M242.267,260.401 C242.267,261.647 242.453,262.878 242.823,264.091 C243.194,265.308 243.758,266.397 244.512,267.361 C245.269,268.325 246.225,269.102 247.381,269.696 C248.537,270.288 249.901,270.585 251.472,270.585 C253.074,270.585 254.495,270.266 255.742,269.629 C256.987,268.991 258.068,268.066 258.988,266.85 L259.699,267.473 C258.691,268.778 257.512,269.77 256.163,270.452 C254.815,271.135 253.251,271.474 251.473,271.474 C249.961,271.474 248.583,271.201 247.337,270.652 C246.092,270.103 245.018,269.34 244.113,268.362 C243.209,267.384 242.512,266.214 242.023,264.849 C241.534,263.486 241.29,262.002 241.29,260.402 C241.29,258.861 241.541,257.438 242.046,256.133 C242.55,254.829 243.238,253.702 244.113,252.753 C244.988,251.805 246.018,251.071 247.204,250.553 C248.39,250.035 249.665,249.775 251.028,249.775 C252.629,249.775 254.022,250.056 255.208,250.62 C256.395,251.183 257.38,251.925 258.165,252.844 C258.95,253.764 259.536,254.807 259.922,255.979 C260.307,257.15 260.5,258.343 260.5,259.558 L260.5,260.403 L242.267,260.403 z M259.564,259.557 C259.535,258.224 259.305,257.008 258.875,255.911 C258.446,254.815 257.86,253.874 257.119,253.089 C256.378,252.302 255.489,251.695 254.451,251.266 C253.413,250.835 252.257,250.62 250.982,250.62 C249.441,250.62 248.122,250.939 247.025,251.576 C245.927,252.214 245.031,252.999 244.335,253.932 C243.638,254.866 243.127,255.844 242.801,256.868 C242.475,257.89 242.312,258.788 242.312,259.557 L259.564,259.557 z" fill="#30343A"/>
      <path d="M285.578,237.234 L286.556,237.234 L286.564,273.623 L285.551,273.623 L285.578,265.338 L285.444,265.338 C284.555,267.354 283.288,268.881 281.642,269.918 C279.997,270.956 278.197,271.474 276.239,271.474 C274.758,271.474 273.386,271.201 272.127,270.652 C270.868,270.103 269.785,269.348 268.881,268.385 C267.976,267.421 267.273,266.28 266.769,264.96 C266.265,263.64 266.013,262.211 266.013,260.669 C266.013,259.127 266.265,257.69 266.769,256.356 C267.273,255.022 267.976,253.866 268.881,252.887 C269.785,251.908 270.867,251.146 272.127,250.597 C273.387,250.049 274.758,249.775 276.239,249.775 C278.197,249.775 279.998,250.294 281.642,251.331 C283.288,252.369 284.555,253.911 285.444,255.957 L285.578,255.957 L285.578,237.234 z M266.99,260.669 C266.99,262.002 267.206,263.278 267.636,264.493 C268.066,265.708 268.681,266.768 269.482,267.673 C270.282,268.577 271.253,269.296 272.394,269.829 C273.536,270.363 274.818,270.63 276.24,270.63 C277.604,270.63 278.857,270.363 279.999,269.829 C281.14,269.296 282.125,268.577 282.956,267.673 C283.785,266.769 284.437,265.708 284.912,264.493 C285.386,263.278 285.624,261.988 285.624,260.624 C285.624,259.261 285.386,257.971 284.912,256.756 C284.437,255.54 283.785,254.481 282.956,253.575 C282.125,252.672 281.14,251.953 279.999,251.419 C278.857,250.886 277.604,250.619 276.24,250.619 C274.818,250.619 273.536,250.893 272.394,251.441 C271.252,251.99 270.282,252.723 269.482,253.643 C268.681,254.562 268.066,255.629 267.636,256.844 C267.206,258.061 266.99,259.334 266.99,260.669 z" fill="#30343A"/>
      <path d="M296.606,250.397 L296.598,280.742 L295.587,280.742 L295.627,250.397 L296.606,250.397 z" fill="#30343A"/>
      <path d="M319.729,266.227 C319.729,266.998 319.766,267.821 319.839,268.696 C319.913,269.57 319.995,270.289 320.084,270.852 L319.15,270.852 C319.09,270.555 319.046,270.193 319.016,269.763 C318.987,269.332 318.95,268.888 318.906,268.429 C318.861,267.969 318.831,267.517 318.816,267.073 C318.801,266.628 318.795,266.258 318.795,265.961 L318.661,265.961 C318.068,267.828 317.045,269.215 315.593,270.119 C314.141,271.023 312.584,271.474 310.925,271.474 C310.094,271.474 309.271,271.356 308.455,271.12 C307.641,270.882 306.907,270.527 306.255,270.053 C305.603,269.579 305.076,268.971 304.676,268.23 C304.277,267.489 304.076,266.614 304.076,265.607 C304.076,264.154 304.453,262.982 305.209,262.093 C305.966,261.203 306.907,260.515 308.033,260.025 C309.16,259.537 310.368,259.218 311.658,259.069 C312.946,258.922 314.126,258.847 315.192,258.847 L318.75,258.847 L318.75,257.2 C318.75,254.918 318.143,253.25 316.927,252.197 C315.711,251.145 314.126,250.619 312.169,250.619 C310.953,250.619 309.819,250.842 308.768,251.286 C307.715,251.731 306.774,252.323 305.944,253.065 L305.411,252.309 C306.359,251.478 307.434,250.849 308.635,250.419 C309.836,249.988 311.014,249.773 312.17,249.773 C314.512,249.773 316.358,250.373 317.705,251.574 C319.055,252.774 319.729,254.665 319.729,257.243 L319.729,266.227 z M318.751,259.691 L315.594,259.691 C314.467,259.691 313.282,259.756 312.036,259.889 C310.791,260.023 309.65,260.297 308.612,260.713 C307.574,261.128 306.722,261.721 306.054,262.491 C305.388,263.262 305.055,264.299 305.055,265.604 C305.055,266.551 305.241,267.345 305.61,267.982 C305.981,268.62 306.456,269.131 307.033,269.517 C307.611,269.903 308.249,270.183 308.945,270.362 C309.642,270.54 310.301,270.629 310.925,270.629 C312.436,270.629 313.696,270.347 314.703,269.784 C315.711,269.22 316.519,268.501 317.127,267.627 C317.735,266.753 318.157,265.789 318.395,264.736 C318.633,263.683 318.75,262.653 318.75,261.646 L318.75,259.691 z" fill="#30343A"/>
      <path d="M219.195,256.045 C219.789,254.029 220.797,252.48 222.219,251.398 C223.641,250.316 225.258,249.775 227.066,249.775 C228.429,249.775 229.579,250.027 230.512,250.531 C231.446,251.036 232.187,251.702 232.736,252.533 C233.284,253.362 233.677,254.297 233.915,255.334 C234.151,256.371 234.27,257.424 234.27,258.49 L234.285,283.914 L233.273,283.914 L233.292,258.579 C233.292,257.75 233.196,256.861 233.003,255.911 C232.811,254.963 232.477,254.103 232.002,253.333 C231.528,252.562 230.891,251.918 230.091,251.398 C229.29,250.879 228.282,250.62 227.067,250.62 C226,250.62 225,250.85 224.065,251.309 C223.131,251.768 222.317,252.427 221.62,253.288 C220.924,254.147 220.367,255.192 219.952,256.423 C219.538,257.653 219.33,259.055 219.33,260.625 L219.33,270.853 L218.351,270.853 L218.351,258.58 C218.351,257.751 218.27,256.862 218.107,255.912 C217.944,254.964 217.639,254.104 217.195,253.334 C216.751,252.563 216.136,251.919 215.35,251.399 C214.565,250.88 213.564,250.621 212.348,250.621 C211.281,250.621 210.281,250.851 209.347,251.31 C208.413,251.769 207.597,252.428 206.901,253.289 C206.205,254.148 205.657,255.193 205.256,256.424 C204.855,257.655 204.655,259.056 204.655,260.626 L204.655,270.854 L203.676,270.854 L203.676,255.557 C203.676,255.231 203.668,254.831 203.654,254.357 C203.64,253.883 203.625,253.401 203.61,252.912 C203.594,252.423 203.573,251.956 203.543,251.512 C203.514,251.067 203.484,250.697 203.454,250.401 L204.433,250.401 C204.462,250.697 204.485,251.067 204.499,251.512 C204.514,251.956 204.529,252.439 204.544,252.956 C204.559,253.475 204.573,253.979 204.589,254.469 C204.603,254.958 204.61,255.396 204.61,255.781 L204.699,255.781 C204.995,254.833 205.411,253.987 205.944,253.246 C206.478,252.505 207.078,251.875 207.746,251.356 C208.413,250.837 209.139,250.445 209.925,250.178 C210.71,249.911 211.518,249.778 212.348,249.778 C213.415,249.778 214.342,249.941 215.127,250.267 C215.913,250.593 216.572,251.038 217.106,251.601 C217.64,252.164 218.07,252.825 218.396,253.579 C218.722,254.336 218.958,255.158 219.108,256.049 L219.195,256.049 z" fill="#30343A"/>
    </g>
    <g id="Cascades">
      <path d="M197.056,177.154 L197.056,206.291" fill-opacity="0" stroke="#30343A" stroke-width="0.992"/>
      <path d="M213.911,166.025 L213.911,195.162" fill-opacity="0" stroke="#30343A" stroke-width="0.992"/>
      <path d="M224.937,184.4 L224.937,213.537" fill-opacity="0" stroke="#30343A" stroke-width="0.992"/>
      <path d="M252.181,287.404 L252.181,316.541" fill-opacity="0" stroke="#30343A" stroke-width="0.992"/>
      <path d="M263.66,268.281 L263.66,297.417" fill-opacity="0" stroke="#30343A" stroke-width="0.992"/>
      <path d="M278.059,279.292 L278.059,308.43" fill-opacity="0" stroke="#30343A" stroke-width="0.992"/>
    </g>
    <g id="HRs">
      <path d="M336.656,276.24 L202.535,276.24" fill-opacity="0" stroke="#30343A" stroke-width="0.992"/>
      <path d="M286.373,245.737 L152.252,245.737" fill-opacity="0" stroke="#30343A" stroke-width="0.992"/>
    </g>
  </g>
</svg>
